<svg xmlns="http://www.w3.org/2000/svg" xmlns:xlink="http://www.w3.org/1999/xlink" contentStyleType="text/css" height="446px" preserveAspectRatio="none" style="width:1132px;height:446px;background:#FFFFFF;" version="1.1" viewBox="0 0 1132 446" width="1132px" zoomAndPan="magnify"><defs/><g><rect fill="#FFFFFF" height="281.6191" style="stroke:#181818;stroke-width:1.0;" width="10" x="181.2598" y="90.5332"/><rect fill="#FFFFFF" height="219.0371" style="stroke:#181818;stroke-width:1.0;" width="10" x="327.665" y="121.8242"/><rect fill="#FFFFFF" height="156.4551" style="stroke:#181818;stroke-width:1.0;" width="10" x="518.9248" y="153.1152"/><rect fill="#FFFFFF" height="93.873" style="stroke:#181818;stroke-width:1.0;" width="10" x="833.7227" y="184.4063"/><line style="stroke:#181818;stroke-width:0.5;stroke-dasharray:5.0,5.0;" x1="185.5151" x2="185.5151" y1="57.2422" y2="390.1523"/><line style="stroke:#181818;stroke-width:0.5;stroke-dasharray:5.0,5.0;" x1="332.2446" x2="332.2446" y1="57.2422" y2="390.1523"/><line style="stroke:#181818;stroke-width:0.5;stroke-dasharray:5.0,5.0;" x1="523.5044" x2="523.5044" y1="57.2422" y2="390.1523"/><line style="stroke:#181818;stroke-width:0.5;stroke-dasharray:5.0,5.0;" x1="838.3022" x2="838.3022" y1="57.2422" y2="390.1523"/><rect fill="#E3E3E3" height="51.2422" rx="2.5" ry="2.5" style="stroke:#181818;stroke-width:0.5;" width="103.4893" x="134.5151" y="5"/><text fill="#000000" font-family="sans-serif" font-size="14" font-style="italic" lengthAdjust="spacing" textLength="84.8408" x="143.8394" y="27.1074">&#171;component&#187;</text><text fill="#000000" font-family="sans-serif" font-size="14" lengthAdjust="spacing" textLength="89.4893" x="141.5151" y="45.7285">WebAplication</text><rect fill="#E3E3E3" height="51.2422" rx="2.5" ry="2.5" style="stroke:#181818;stroke-width:0.5;" width="103.4893" x="134.5151" y="389.1523"/><text fill="#000000" font-family="sans-serif" font-size="14" font-style="italic" lengthAdjust="spacing" textLength="84.8408" x="143.8394" y="411.2598">&#171;component&#187;</text><text fill="#000000" font-family="sans-serif" font-size="14" lengthAdjust="spacing" textLength="89.4893" x="141.5151" y="429.8809">WebAplication</text><rect fill="#E3E3E3" height="51.2422" rx="2.5" ry="2.5" style="stroke:#181818;stroke-width:0.5;" width="98.8408" x="283.2446" y="5"/><text fill="#000000" font-family="sans-serif" font-size="14" font-style="italic" lengthAdjust="spacing" textLength="84.8408" x="290.2446" y="27.1074">&#171;component&#187;</text><text fill="#000000" font-family="sans-serif" font-size="14" lengthAdjust="spacing" textLength="75.0723" x="295.1289" y="45.7285">HTML+CSS</text><rect fill="#E3E3E3" height="51.2422" rx="2.5" ry="2.5" style="stroke:#181818;stroke-width:0.5;" width="98.8408" x="283.2446" y="389.1523"/><text fill="#000000" font-family="sans-serif" font-size="14" font-style="italic" lengthAdjust="spacing" textLength="84.8408" x="290.2446" y="411.2598">&#171;component&#187;</text><text fill="#000000" font-family="sans-serif" font-size="14" lengthAdjust="spacing" textLength="75.0723" x="295.1289" y="429.8809">HTML+CSS</text><rect fill="#E3E3E3" height="51.2422" rx="2.5" ry="2.5" style="stroke:#181818;stroke-width:0.5;" width="98.8408" x="474.5044" y="5"/><text fill="#000000" font-family="sans-serif" font-size="14" font-style="italic" lengthAdjust="spacing" textLength="84.8408" x="481.5044" y="27.1074">&#171;component&#187;</text><text fill="#000000" font-family="sans-serif" font-size="14" lengthAdjust="spacing" textLength="72.3789" x="487.7354" y="45.7285">Component</text><rect fill="#E3E3E3" height="51.2422" rx="2.5" ry="2.5" style="stroke:#181818;stroke-width:0.5;" width="98.8408" x="474.5044" y="389.1523"/><text fill="#000000" font-family="sans-serif" font-size="14" font-style="italic" lengthAdjust="spacing" textLength="84.8408" x="481.5044" y="411.2598">&#171;component&#187;</text><text fill="#000000" font-family="sans-serif" font-size="14" lengthAdjust="spacing" textLength="72.3789" x="487.7354" y="429.8809">Component</text><rect fill="#E3E3E3" height="51.2422" rx="2.5" ry="2.5" style="stroke:#181818;stroke-width:0.5;" width="98.8408" x="789.3022" y="5"/><text fill="#000000" font-family="sans-serif" font-size="14" font-style="italic" lengthAdjust="spacing" textLength="84.8408" x="796.3022" y="27.1074">&#171;component&#187;</text><text fill="#000000" font-family="sans-serif" font-size="14" lengthAdjust="spacing" textLength="46.6826" x="815.3813" y="45.7285">Service</text><rect fill="#E3E3E3" height="51.2422" rx="2.5" ry="2.5" style="stroke:#181818;stroke-width:0.5;" width="98.8408" x="789.3022" y="389.1523"/><text fill="#000000" font-family="sans-serif" font-size="14" font-style="italic" lengthAdjust="spacing" textLength="84.8408" x="796.3022" y="411.2598">&#171;component&#187;</text><text fill="#000000" font-family="sans-serif" font-size="14" lengthAdjust="spacing" textLength="46.6826" x="815.3813" y="429.8809">Service</text><rect fill="#FFFFFF" height="281.6191" style="stroke:#181818;stroke-width:1.0;" width="10" x="181.2598" y="90.5332"/><rect fill="#FFFFFF" height="219.0371" style="stroke:#181818;stroke-width:1.0;" width="10" x="327.665" y="121.8242"/><rect fill="#FFFFFF" height="156.4551" style="stroke:#181818;stroke-width:1.0;" width="10" x="518.9248" y="153.1152"/><rect fill="#FFFFFF" height="93.873" style="stroke:#181818;stroke-width:1.0;" width="10" x="833.7227" y="184.4063"/><polygon fill="#181818" points="169.2598,86.5332,179.2598,90.5332,169.2598,94.5332,173.2598,90.5332" style="stroke:#181818;stroke-width:1.0;"/><line style="stroke:#181818;stroke-width:1.0;" x1="0" x2="175.2598" y1="90.5332" y2="90.5332"/><text fill="#000000" font-family="sans-serif" font-size="13" font-weight="bold" lengthAdjust="spacing" textLength="7.23" x="7" y="85.2705">1</text><text fill="#000000" font-family="sans-serif" font-size="13" lengthAdjust="spacing" textLength="151.0298" x="18.23" y="85.2705">Edit info of OperationType</text><polygon fill="#181818" points="315.665,117.8242,325.665,121.8242,315.665,125.8242,319.665,121.8242" style="stroke:#181818;stroke-width:1.0;"/><line style="stroke:#181818;stroke-width:1.0;" x1="191.2598" x2="321.665" y1="121.8242" y2="121.8242"/><text fill="#000000" font-family="sans-serif" font-size="13" font-weight="bold" lengthAdjust="spacing" textLength="7.23" x="198.2598" y="116.5615">2</text><text fill="#000000" font-family="sans-serif" font-size="13" lengthAdjust="spacing" textLength="51.2827" x="209.4897" y="116.5615">onClick()</text><polygon fill="#181818" points="506.9248,149.1152,516.9248,153.1152,506.9248,157.1152,510.9248,153.1152" style="stroke:#181818;stroke-width:1.0;"/><line style="stroke:#181818;stroke-width:1.0;" x1="337.665" x2="512.9248" y1="153.1152" y2="153.1152"/><text fill="#000000" font-family="sans-serif" font-size="13" font-weight="bold" lengthAdjust="spacing" textLength="7.23" x="344.665" y="147.8525">3</text><text fill="#000000" font-family="sans-serif" font-size="13" lengthAdjust="spacing" textLength="151.0298" x="355.895" y="147.8525">onUpdateOperationType()</text><polygon fill="#181818" points="821.7227,180.4063,831.7227,184.4063,821.7227,188.4063,825.7227,184.4063" style="stroke:#181818;stroke-width:1.0;"/><line style="stroke:#181818;stroke-width:1.0;" x1="528.9248" x2="827.7227" y1="184.4063" y2="184.4063"/><text fill="#000000" font-family="sans-serif" font-size="13" font-weight="bold" lengthAdjust="spacing" textLength="7.23" x="535.9248" y="179.1436">4</text><text fill="#000000" font-family="sans-serif" font-size="13" lengthAdjust="spacing" textLength="274.5679" x="547.1548" y="179.1436">UpdateOperationType(Id, OperationTypesDTO)</text><polygon fill="#181818" points="1114.7969,211.6973,1124.7969,215.6973,1114.7969,219.6973,1118.7969,215.6973" style="stroke:#181818;stroke-width:1.0;"/><line style="stroke:#181818;stroke-width:1.0;" x1="843.7227" x2="1120.7969" y1="215.6973" y2="215.6973"/><text fill="#000000" font-family="sans-serif" font-size="13" font-weight="bold" lengthAdjust="spacing" textLength="7.23" x="850.7227" y="210.4346">5</text><text fill="#000000" font-family="sans-serif" font-size="13" lengthAdjust="spacing" textLength="247.8442" x="861.9526" y="210.4346">updateOperationType(OperationTypeDTO)</text><polygon fill="#181818" points="854.7227,242.9883,844.7227,246.9883,854.7227,250.9883,850.7227,246.9883" style="stroke:#181818;stroke-width:1.0;"/><line style="stroke:#181818;stroke-width:1.0;stroke-dasharray:2.0,2.0;" x1="848.7227" x2="1125.7969" y1="246.9883" y2="246.9883"/><text fill="#000000" font-family="sans-serif" font-size="13" font-weight="bold" lengthAdjust="spacing" textLength="7.23" x="860.7227" y="241.7256">6</text><text fill="#000000" font-family="sans-serif" font-size="13" lengthAdjust="spacing" textLength="101.1753" x="871.9526" y="241.7256">success and data</text><polygon fill="#181818" points="539.9248,274.2793,529.9248,278.2793,539.9248,282.2793,535.9248,278.2793" style="stroke:#181818;stroke-width:1.0;"/><line style="stroke:#181818;stroke-width:1.0;stroke-dasharray:2.0,2.0;" x1="533.9248" x2="837.7227" y1="278.2793" y2="278.2793"/><text fill="#000000" font-family="sans-serif" font-size="13" font-weight="bold" lengthAdjust="spacing" textLength="7.23" x="545.9248" y="273.0166">7</text><text fill="#000000" font-family="sans-serif" font-size="13" lengthAdjust="spacing" textLength="101.1753" x="557.1548" y="273.0166">success and data</text><polygon fill="#181818" points="348.665,305.5703,338.665,309.5703,348.665,313.5703,344.665,309.5703" style="stroke:#181818;stroke-width:1.0;"/><line style="stroke:#181818;stroke-width:1.0;stroke-dasharray:2.0,2.0;" x1="342.665" x2="522.9248" y1="309.5703" y2="309.5703"/><text fill="#000000" font-family="sans-serif" font-size="13" font-weight="bold" lengthAdjust="spacing" textLength="7.23" x="354.665" y="304.3076">8</text><text fill="#000000" font-family="sans-serif" font-size="13" lengthAdjust="spacing" textLength="101.1753" x="365.895" y="304.3076">success and data</text><polygon fill="#181818" points="202.2598,336.8613,192.2598,340.8613,202.2598,344.8613,198.2598,340.8613" style="stroke:#181818;stroke-width:1.0;"/><line style="stroke:#181818;stroke-width:1.0;stroke-dasharray:2.0,2.0;" x1="196.2598" x2="331.665" y1="340.8613" y2="340.8613"/><text fill="#000000" font-family="sans-serif" font-size="13" font-weight="bold" lengthAdjust="spacing" textLength="7.23" x="208.2598" y="335.5986">9</text><text fill="#000000" font-family="sans-serif" font-size="13" lengthAdjust="spacing" textLength="101.1753" x="219.4897" y="335.5986">success and data</text><polygon fill="#181818" points="11,368.1523,1,372.1523,11,376.1523,7,372.1523" style="stroke:#181818;stroke-width:1.0;"/><line style="stroke:#181818;stroke-width:1.0;stroke-dasharray:2.0,2.0;" x1="5" x2="185.2598" y1="372.1523" y2="372.1523"/><text fill="#000000" font-family="sans-serif" font-size="13" font-weight="bold" lengthAdjust="spacing" textLength="14.46" x="17" y="366.8896">10</text><text fill="#000000" font-family="sans-serif" font-size="13" lengthAdjust="spacing" textLength="101.1753" x="35.46" y="366.8896">success and data</text><!--SRC=[XT71QiCm30RWkvv2zBInzGL2AOoifOELmf9jPzLHMzF4DhRJqRUVOaYNRAKx9leaVidXg8qZJmqsrbXryBPXZBvb29UA8tMaFHVnN3DwLf7ClXw2SA3AVccpnntLWG6eZTQqpPOzW92ebNPa8au-UVlaQgqeQcicI06N2vpDb6sSDMpYV3xsgtBz-f0NHQAhyXRD-qAo-VgMBTYVjE8aYyNRnoyBE9rBi0mNbOwepSwYtU76iK-voxDZ81NrYIAB0v0bf4FoPMXDBliTx-v_nAe4AGcGK1ruTvNy7eqRydmD859yYfRXDVzIFOu3XUToCnZIjG90cY2JCcol31bzfVw-PJQTIazebU8Ga4o5qasNWVqkVq35umJT7lrbRk5kv-v6wUx_M3adTFckmw7idWRW6m00]--></g></svg>