<svg xmlns="http://www.w3.org/2000/svg" xmlns:xlink="http://www.w3.org/1999/xlink" contentStyleType="text/css" height="508px" preserveAspectRatio="none" style="width:1206px;height:508px;background:#FFFFFF;" version="1.1" viewBox="0 0 1206 508" width="1206px" zoomAndPan="magnify"><defs/><g><rect fill="#FFFFFF" height="156.4551" style="stroke:#181818;stroke-width:1.0;" width="10" x="497.0112" y="90.5332"/><rect fill="#FFFFFF" height="165.4551" style="stroke:#181818;stroke-width:1.0;" width="10" x="497.0112" y="278.2793"/><rect fill="#FFFFFF" height="93.873" style="stroke:#181818;stroke-width:1.0;" width="10" x="1004.0225" y="121.8242"/><rect fill="#FFFFFF" height="93.873" style="stroke:#181818;stroke-width:1.0;" width="10" x="1004.0225" y="309.5703"/><rect fill="#FFFFFF" height="31.291" style="stroke:#181818;stroke-width:1.0;" width="10" x="1133.145" y="153.1152"/><rect fill="#FFFFFF" height="31.291" style="stroke:#181818;stroke-width:1.0;" width="10" x="1133.145" y="340.8613"/><line style="stroke:#181818;stroke-width:0.5;stroke-dasharray:5.0,5.0;" x1="501.8735" x2="501.8735" y1="57.2422" y2="452.7344"/><line style="stroke:#181818;stroke-width:0.5;stroke-dasharray:5.0,5.0;" x1="1008.8882" x2="1008.8882" y1="57.2422" y2="452.7344"/><line style="stroke:#181818;stroke-width:0.5;stroke-dasharray:5.0,5.0;" x1="1137.8936" x2="1137.8936" y1="57.2422" y2="452.7344"/><rect fill="#E3E3E3" height="51.2422" rx="2.5" ry="2.5" style="stroke:#181818;stroke-width:0.5;" width="118.2754" x="442.8735" y="5"/><text fill="#000000" font-family="sans-serif" font-size="14" font-style="italic" lengthAdjust="spacing" textLength="84.8408" x="459.5908" y="27.1074">&#171;component&#187;</text><text fill="#000000" font-family="sans-serif" font-size="14" lengthAdjust="spacing" textLength="104.2754" x="449.8735" y="45.7285">PatientController</text><rect fill="#E3E3E3" height="51.2422" rx="2.5" ry="2.5" style="stroke:#181818;stroke-width:0.5;" width="118.2754" x="442.8735" y="451.7344"/><text fill="#000000" font-family="sans-serif" font-size="14" font-style="italic" lengthAdjust="spacing" textLength="84.8408" x="459.5908" y="473.8418">&#171;component&#187;</text><text fill="#000000" font-family="sans-serif" font-size="14" lengthAdjust="spacing" textLength="104.2754" x="449.8735" y="492.4629">PatientController</text><rect fill="#E3E3E3" height="51.2422" rx="2.5" ry="2.5" style="stroke:#181818;stroke-width:0.5;" width="104.2686" x="956.8882" y="5"/><text fill="#000000" font-family="sans-serif" font-size="14" font-style="italic" lengthAdjust="spacing" textLength="84.8408" x="966.6021" y="27.1074">&#171;component&#187;</text><text fill="#000000" font-family="sans-serif" font-size="14" lengthAdjust="spacing" textLength="90.2686" x="963.8882" y="45.7285">PatientService</text><rect fill="#E3E3E3" height="51.2422" rx="2.5" ry="2.5" style="stroke:#181818;stroke-width:0.5;" width="104.2686" x="956.8882" y="451.7344"/><text fill="#000000" font-family="sans-serif" font-size="14" font-style="italic" lengthAdjust="spacing" textLength="84.8408" x="966.6021" y="473.8418">&#171;component&#187;</text><text fill="#000000" font-family="sans-serif" font-size="14" lengthAdjust="spacing" textLength="90.2686" x="963.8882" y="492.4629">PatientService</text><rect fill="#E3E3E3" height="51.2422" rx="2.5" ry="2.5" style="stroke:#181818;stroke-width:0.5;" width="124.5029" x="1075.8936" y="5"/><text fill="#000000" font-family="sans-serif" font-size="14" font-style="italic" lengthAdjust="spacing" textLength="84.8408" x="1095.7246" y="27.1074">&#171;component&#187;</text><text fill="#000000" font-family="sans-serif" font-size="14" lengthAdjust="spacing" textLength="110.5029" x="1082.8936" y="45.7285">PatientRepository</text><rect fill="#E3E3E3" height="51.2422" rx="2.5" ry="2.5" style="stroke:#181818;stroke-width:0.5;" width="124.5029" x="1075.8936" y="451.7344"/><text fill="#000000" font-family="sans-serif" font-size="14" font-style="italic" lengthAdjust="spacing" textLength="84.8408" x="1095.7246" y="473.8418">&#171;component&#187;</text><text fill="#000000" font-family="sans-serif" font-size="14" lengthAdjust="spacing" textLength="110.5029" x="1082.8936" y="492.4629">PatientRepository</text><rect fill="#FFFFFF" height="156.4551" style="stroke:#181818;stroke-width:1.0;" width="10" x="497.0112" y="90.5332"/><rect fill="#FFFFFF" height="165.4551" style="stroke:#181818;stroke-width:1.0;" width="10" x="497.0112" y="278.2793"/><rect fill="#FFFFFF" height="93.873" style="stroke:#181818;stroke-width:1.0;" width="10" x="1004.0225" y="121.8242"/><rect fill="#FFFFFF" height="93.873" style="stroke:#181818;stroke-width:1.0;" width="10" x="1004.0225" y="309.5703"/><rect fill="#FFFFFF" height="31.291" style="stroke:#181818;stroke-width:1.0;" width="10" x="1133.145" y="153.1152"/><rect fill="#FFFFFF" height="31.291" style="stroke:#181818;stroke-width:1.0;" width="10" x="1133.145" y="340.8613"/><polygon fill="#181818" points="485.0112,86.5332,495.0112,90.5332,485.0112,94.5332,489.0112,90.5332" style="stroke:#181818;stroke-width:1.0;"/><line style="stroke:#181818;stroke-width:1.0;" x1="0" x2="491.0112" y1="90.5332" y2="90.5332"/><text fill="#000000" font-family="sans-serif" font-size="13" font-weight="bold" lengthAdjust="spacing" textLength="7.23" x="7" y="85.2705">1</text><text fill="#000000" font-family="sans-serif" font-size="13" lengthAdjust="spacing" textLength="92.46" x="18.23" y="85.2705">getEditForm(ID)</text><polygon fill="#181818" points="992.0225,117.8242,1002.0225,121.8242,992.0225,125.8242,996.0225,121.8242" style="stroke:#181818;stroke-width:1.0;"/><line style="stroke:#181818;stroke-width:1.0;" x1="507.0112" x2="998.0225" y1="121.8242" y2="121.8242"/><text fill="#000000" font-family="sans-serif" font-size="13" font-weight="bold" lengthAdjust="spacing" textLength="7.23" x="514.0112" y="116.5615">2</text><text fill="#000000" font-family="sans-serif" font-size="13" lengthAdjust="spacing" textLength="61.4136" x="525.2412" y="116.5615">getInfo(ID)</text><polygon fill="#181818" points="1121.145,149.1152,1131.145,153.1152,1121.145,157.1152,1125.145,153.1152" style="stroke:#181818;stroke-width:1.0;"/><line style="stroke:#181818;stroke-width:1.0;" x1="1014.0225" x2="1127.145" y1="153.1152" y2="153.1152"/><text fill="#000000" font-family="sans-serif" font-size="13" font-weight="bold" lengthAdjust="spacing" textLength="7.23" x="1021.0225" y="147.8525">3</text><text fill="#000000" font-family="sans-serif" font-size="13" lengthAdjust="spacing" textLength="39.73" x="1032.2524" y="147.8525">get(ID)</text><polygon fill="#181818" points="1025.0225,180.4063,1015.0225,184.4063,1025.0225,188.4063,1021.0225,184.4063" style="stroke:#181818;stroke-width:1.0;"/><line style="stroke:#181818;stroke-width:1.0;stroke-dasharray:2.0,2.0;" x1="1019.0225" x2="1137.145" y1="184.4063" y2="184.4063"/><text fill="#000000" font-family="sans-serif" font-size="13" font-weight="bold" lengthAdjust="spacing" textLength="7.23" x="1031.0225" y="179.1436">4</text><text fill="#000000" font-family="sans-serif" font-size="13" lengthAdjust="spacing" textLength="40.4727" x="1042.2524" y="179.1436">Patient</text><polygon fill="#181818" points="518.0112,211.6973,508.0112,215.6973,518.0112,219.6973,514.0112,215.6973" style="stroke:#181818;stroke-width:1.0;"/><line style="stroke:#181818;stroke-width:1.0;stroke-dasharray:2.0,2.0;" x1="512.0112" x2="1008.0225" y1="215.6973" y2="215.6973"/><text fill="#000000" font-family="sans-serif" font-size="13" font-weight="bold" lengthAdjust="spacing" textLength="7.23" x="524.0112" y="210.4346">5</text><text fill="#000000" font-family="sans-serif" font-size="13" lengthAdjust="spacing" textLength="40.4727" x="535.2412" y="210.4346">Patient</text><polygon fill="#181818" points="11,242.9883,1,246.9883,11,250.9883,7,246.9883" style="stroke:#181818;stroke-width:1.0;"/><line style="stroke:#181818;stroke-width:1.0;stroke-dasharray:2.0,2.0;" x1="5" x2="501.0112" y1="246.9883" y2="246.9883"/><text fill="#000000" font-family="sans-serif" font-size="13" font-weight="bold" lengthAdjust="spacing" textLength="7.23" x="17" y="241.7256">6</text><text fill="#000000" font-family="sans-serif" font-size="13" lengthAdjust="spacing" textLength="60.7026" x="28.23" y="241.7256">PatientDto</text><polygon fill="#181818" points="485.0112,274.2793,495.0112,278.2793,485.0112,282.2793,489.0112,278.2793" style="stroke:#181818;stroke-width:1.0;"/><line style="stroke:#181818;stroke-width:1.0;" x1="0" x2="491.0112" y1="278.2793" y2="278.2793"/><text fill="#000000" font-family="sans-serif" font-size="13" font-weight="bold" lengthAdjust="spacing" textLength="7.23" x="7" y="273.0166">7</text><text fill="#000000" font-family="sans-serif" font-size="13" lengthAdjust="spacing" textLength="466.7813" x="18.23" y="273.0166">updatePatient(Full Name, Phone, Email, MedicalConditions, AppointmentHistory)</text><polygon fill="#181818" points="992.0225,305.5703,1002.0225,309.5703,992.0225,313.5703,996.0225,309.5703" style="stroke:#181818;stroke-width:1.0;"/><line style="stroke:#181818;stroke-width:1.0;" x1="507.0112" x2="998.0225" y1="309.5703" y2="309.5703"/><text fill="#000000" font-family="sans-serif" font-size="13" font-weight="bold" lengthAdjust="spacing" textLength="7.23" x="514.0112" y="304.3076">8</text><text fill="#000000" font-family="sans-serif" font-size="13" lengthAdjust="spacing" textLength="466.7813" x="525.2412" y="304.3076">updatePatient(Full Name, Phone, Email, MedicalConditions, AppointmentHistory)</text><polygon fill="#181818" points="1121.145,336.8613,1131.145,340.8613,1121.145,344.8613,1125.145,340.8613" style="stroke:#181818;stroke-width:1.0;"/><line style="stroke:#181818;stroke-width:1.0;" x1="1014.0225" x2="1127.145" y1="340.8613" y2="340.8613"/><text fill="#000000" font-family="sans-serif" font-size="13" font-weight="bold" lengthAdjust="spacing" textLength="7.23" x="1021.0225" y="335.5986">9</text><text fill="#000000" font-family="sans-serif" font-size="13" lengthAdjust="spacing" textLength="88.8926" x="1032.2524" y="335.5986">update(Patient)</text><polygon fill="#181818" points="1025.0225,368.1523,1015.0225,372.1523,1025.0225,376.1523,1021.0225,372.1523" style="stroke:#181818;stroke-width:1.0;"/><line style="stroke:#181818;stroke-width:1.0;stroke-dasharray:2.0,2.0;" x1="1019.0225" x2="1137.145" y1="372.1523" y2="372.1523"/><text fill="#000000" font-family="sans-serif" font-size="13" font-weight="bold" lengthAdjust="spacing" textLength="14.46" x="1031.0225" y="366.8896">10</text><text fill="#000000" font-family="sans-serif" font-size="13" lengthAdjust="spacing" textLength="46.96" x="1049.4824" y="366.8896">success</text><polygon fill="#181818" points="518.0112,399.4434,508.0112,403.4434,518.0112,407.4434,514.0112,403.4434" style="stroke:#181818;stroke-width:1.0;"/><line style="stroke:#181818;stroke-width:1.0;stroke-dasharray:2.0,2.0;" x1="512.0112" x2="1008.0225" y1="403.4434" y2="403.4434"/><text fill="#000000" font-family="sans-serif" font-size="13" font-weight="bold" lengthAdjust="spacing" textLength="14.46" x="524.0112" y="398.1807">11</text><text fill="#000000" font-family="sans-serif" font-size="13" lengthAdjust="spacing" textLength="46.96" x="542.4712" y="398.1807">success</text><polygon fill="#181818" points="11,430.7344,1,434.7344,11,438.7344,7,434.7344" style="stroke:#181818;stroke-width:1.0;"/><line style="stroke:#181818;stroke-width:1.0;stroke-dasharray:2.0,2.0;" x1="5" x2="496.0112" y1="434.7344" y2="434.7344"/><text fill="#000000" font-family="sans-serif" font-size="13" font-weight="bold" lengthAdjust="spacing" textLength="14.46" x="17" y="429.4717">12</text><text fill="#000000" font-family="sans-serif" font-size="13" lengthAdjust="spacing" textLength="46.96" x="35.46" y="429.4717">success</text><!--SRC=[jP7DQiCm48JlUWgHKmhs2vGGA8b30_q9JkbzAsyS4Kbhf7LAthwo4joucAQNNZNVx0oZSD2k0GzMMdAazfuiIlOjYj0h3QW3rBZbaq7fKJ6usbm3OGyLVMfNonsOW490o-HQ-u5UY8YmLhe1ntAo0TReU46EFHc3VY8XoCLR-IHdCqMs8HVb-NpKjKL_r0gJPLkKxt-mbDXGq4p-b5nbiNdzuH8YdwS2zx96BYhDA_9skbxU2L2iZy2OP95AHhPBJkpQxMZ8TP98pIBNPILko7JF8lN8-sENigB28NO-rVSRmLBYBC_F4_R8akcQIlrbVwTjglXwGQUhrXZv0XOpkTd7LJ9PMD0cayzOQGKc_bKSHPCBcNne6jAERVGzwj3D-ljA_vGqilCvQNg9kh5tQ9N246xjFO8DzvRVZ11V]--></g></svg>