<svg xmlns="http://www.w3.org/2000/svg" xmlns:xlink="http://www.w3.org/1999/xlink" contentStyleType="text/css" height="508px" preserveAspectRatio="none" style="width:759px;height:508px;background:#FFFFFF;" version="1.1" viewBox="0 0 759 508" width="759px" zoomAndPan="magnify"><defs/><g><rect fill="#FFFFFF" height="344.2012" style="stroke:#181818;stroke-width:1.0;" width="10" x="197.167" y="90.5332"/><rect fill="#FFFFFF" height="93.873" style="stroke:#181818;stroke-width:1.0;" width="10" x="454.8804" y="121.8242"/><rect fill="#FFFFFF" height="93.873" style="stroke:#181818;stroke-width:1.0;" width="10" x="454.8804" y="246.9883"/><rect fill="#FFFFFF" height="31.291" style="stroke:#181818;stroke-width:1.0;" width="10" x="454.8804" y="372.1523"/><rect fill="#FFFFFF" height="31.291" style="stroke:#181818;stroke-width:1.0;" width="10" x="698.8638" y="153.1152"/><rect fill="#FFFFFF" height="31.291" style="stroke:#181818;stroke-width:1.0;" width="10" x="698.8638" y="278.2793"/><line style="stroke:#181818;stroke-width:0.5;stroke-dasharray:5.0,5.0;" x1="201.7466" x2="201.7466" y1="57.2422" y2="452.7344"/><line style="stroke:#181818;stroke-width:0.5;stroke-dasharray:5.0,5.0;" x1="459.46" x2="459.46" y1="57.2422" y2="452.7344"/><line style="stroke:#181818;stroke-width:0.5;stroke-dasharray:5.0,5.0;" x1="703.4434" x2="703.4434" y1="57.2422" y2="452.7344"/><rect fill="#E3E3E3" height="51.2422" rx="2.5" ry="2.5" style="stroke:#181818;stroke-width:0.5;" width="98.8408" x="152.7466" y="5"/><text fill="#000000" font-family="sans-serif" font-size="14" font-style="italic" lengthAdjust="spacing" textLength="84.8408" x="159.7466" y="27.1074">&#171;component&#187;</text><text fill="#000000" font-family="sans-serif" font-size="14" lengthAdjust="spacing" textLength="60.6895" x="171.8223" y="45.7285">Controller</text><rect fill="#E3E3E3" height="51.2422" rx="2.5" ry="2.5" style="stroke:#181818;stroke-width:0.5;" width="98.8408" x="152.7466" y="451.7344"/><text fill="#000000" font-family="sans-serif" font-size="14" font-style="italic" lengthAdjust="spacing" textLength="84.8408" x="159.7466" y="473.8418">&#171;component&#187;</text><text fill="#000000" font-family="sans-serif" font-size="14" lengthAdjust="spacing" textLength="60.6895" x="171.8223" y="492.4629">Controller</text><rect fill="#E3E3E3" height="51.2422" rx="2.5" ry="2.5" style="stroke:#181818;stroke-width:0.5;" width="98.8408" x="410.46" y="5"/><text fill="#000000" font-family="sans-serif" font-size="14" font-style="italic" lengthAdjust="spacing" textLength="84.8408" x="417.46" y="27.1074">&#171;component&#187;</text><text fill="#000000" font-family="sans-serif" font-size="14" lengthAdjust="spacing" textLength="46.6826" x="436.5391" y="45.7285">Service</text><rect fill="#E3E3E3" height="51.2422" rx="2.5" ry="2.5" style="stroke:#181818;stroke-width:0.5;" width="98.8408" x="410.46" y="451.7344"/><text fill="#000000" font-family="sans-serif" font-size="14" font-style="italic" lengthAdjust="spacing" textLength="84.8408" x="417.46" y="473.8418">&#171;component&#187;</text><text fill="#000000" font-family="sans-serif" font-size="14" lengthAdjust="spacing" textLength="46.6826" x="436.5391" y="492.4629">Service</text><rect fill="#E3E3E3" height="51.2422" rx="2.5" ry="2.5" style="stroke:#181818;stroke-width:0.5;" width="98.8408" x="654.4434" y="5"/><text fill="#000000" font-family="sans-serif" font-size="14" font-style="italic" lengthAdjust="spacing" textLength="84.8408" x="661.4434" y="27.1074">&#171;component&#187;</text><text fill="#000000" font-family="sans-serif" font-size="14" lengthAdjust="spacing" textLength="66.917" x="670.4053" y="45.7285">Repository</text><rect fill="#E3E3E3" height="51.2422" rx="2.5" ry="2.5" style="stroke:#181818;stroke-width:0.5;" width="98.8408" x="654.4434" y="451.7344"/><text fill="#000000" font-family="sans-serif" font-size="14" font-style="italic" lengthAdjust="spacing" textLength="84.8408" x="661.4434" y="473.8418">&#171;component&#187;</text><text fill="#000000" font-family="sans-serif" font-size="14" lengthAdjust="spacing" textLength="66.917" x="670.4053" y="492.4629">Repository</text><rect fill="#FFFFFF" height="344.2012" style="stroke:#181818;stroke-width:1.0;" width="10" x="197.167" y="90.5332"/><rect fill="#FFFFFF" height="93.873" style="stroke:#181818;stroke-width:1.0;" width="10" x="454.8804" y="121.8242"/><rect fill="#FFFFFF" height="93.873" style="stroke:#181818;stroke-width:1.0;" width="10" x="454.8804" y="246.9883"/><rect fill="#FFFFFF" height="31.291" style="stroke:#181818;stroke-width:1.0;" width="10" x="454.8804" y="372.1523"/><rect fill="#FFFFFF" height="31.291" style="stroke:#181818;stroke-width:1.0;" width="10" x="698.8638" y="153.1152"/><rect fill="#FFFFFF" height="31.291" style="stroke:#181818;stroke-width:1.0;" width="10" x="698.8638" y="278.2793"/><polygon fill="#181818" points="185.167,86.5332,195.167,90.5332,185.167,94.5332,189.167,90.5332" style="stroke:#181818;stroke-width:1.0;"/><line style="stroke:#181818;stroke-width:1.0;" x1="0" x2="191.167" y1="90.5332" y2="90.5332"/><text fill="#000000" font-family="sans-serif" font-size="13" font-weight="bold" lengthAdjust="spacing" textLength="7.23" x="7" y="85.2705">1</text><text fill="#000000" font-family="sans-serif" font-size="13" lengthAdjust="spacing" textLength="108.4053" x="18.23" y="85.2705">Login Get Request</text><polygon fill="#181818" points="442.8804,117.8242,452.8804,121.8242,442.8804,125.8242,446.8804,121.8242" style="stroke:#181818;stroke-width:1.0;"/><line style="stroke:#181818;stroke-width:1.0;" x1="207.167" x2="448.8804" y1="121.8242" y2="121.8242"/><text fill="#000000" font-family="sans-serif" font-size="13" font-weight="bold" lengthAdjust="spacing" textLength="7.23" x="214.167" y="116.5615">2</text><text fill="#000000" font-family="sans-serif" font-size="13" lengthAdjust="spacing" textLength="217.4834" x="225.397" y="116.5615">Call GetPatientByEmailAsync method</text><polygon fill="#181818" points="686.8638,149.1152,696.8638,153.1152,686.8638,157.1152,690.8638,153.1152" style="stroke:#181818;stroke-width:1.0;"/><line style="stroke:#181818;stroke-width:1.0;" x1="464.8804" x2="692.8638" y1="153.1152" y2="153.1152"/><text fill="#000000" font-family="sans-serif" font-size="13" font-weight="bold" lengthAdjust="spacing" textLength="7.23" x="471.8804" y="147.8525">3</text><text fill="#000000" font-family="sans-serif" font-size="13" lengthAdjust="spacing" textLength="196.5425" x="483.1104" y="147.8525">Get Patient through ClaimedEmail</text><polygon fill="#181818" points="475.8804,180.4063,465.8804,184.4063,475.8804,188.4063,471.8804,184.4063" style="stroke:#181818;stroke-width:1.0;"/><line style="stroke:#181818;stroke-width:1.0;stroke-dasharray:2.0,2.0;" x1="469.8804" x2="702.8638" y1="184.4063" y2="184.4063"/><text fill="#000000" font-family="sans-serif" font-size="13" font-weight="bold" lengthAdjust="spacing" textLength="7.23" x="481.8804" y="179.1436">4</text><text fill="#000000" font-family="sans-serif" font-size="13" lengthAdjust="spacing" textLength="83.1035" x="493.1104" y="179.1436">Return Patient</text><polygon fill="#181818" points="218.167,211.6973,208.167,215.6973,218.167,219.6973,214.167,215.6973" style="stroke:#181818;stroke-width:1.0;"/><line style="stroke:#181818;stroke-width:1.0;stroke-dasharray:2.0,2.0;" x1="212.167" x2="458.8804" y1="215.6973" y2="215.6973"/><text fill="#000000" font-family="sans-serif" font-size="13" font-weight="bold" lengthAdjust="spacing" textLength="7.23" x="224.167" y="210.4346">5</text><text fill="#000000" font-family="sans-serif" font-size="13" lengthAdjust="spacing" textLength="83.1035" x="235.397" y="210.4346">Return Patient</text><polygon fill="#181818" points="442.8804,242.9883,452.8804,246.9883,442.8804,250.9883,446.8804,246.9883" style="stroke:#181818;stroke-width:1.0;"/><line style="stroke:#181818;stroke-width:1.0;" x1="207.167" x2="448.8804" y1="246.9883" y2="246.9883"/><text fill="#000000" font-family="sans-serif" font-size="13" font-weight="bold" lengthAdjust="spacing" textLength="7.23" x="214.167" y="241.7256">6</text><text fill="#000000" font-family="sans-serif" font-size="13" lengthAdjust="spacing" textLength="180.6289" x="225.397" y="241.7256">Call GeBbyEmailAsync method</text><polygon fill="#181818" points="686.8638,274.2793,696.8638,278.2793,686.8638,282.2793,690.8638,278.2793" style="stroke:#181818;stroke-width:1.0;"/><line style="stroke:#181818;stroke-width:1.0;" x1="464.8804" x2="692.8638" y1="278.2793" y2="278.2793"/><text fill="#000000" font-family="sans-serif" font-size="13" font-weight="bold" lengthAdjust="spacing" textLength="7.23" x="471.8804" y="273.0166">7</text><text fill="#000000" font-family="sans-serif" font-size="13" lengthAdjust="spacing" textLength="203.7534" x="483.1104" y="273.0166">Get User through PatientUserEmail</text><polygon fill="#181818" points="475.8804,305.5703,465.8804,309.5703,475.8804,313.5703,471.8804,309.5703" style="stroke:#181818;stroke-width:1.0;"/><line style="stroke:#181818;stroke-width:1.0;stroke-dasharray:2.0,2.0;" x1="469.8804" x2="702.8638" y1="309.5703" y2="309.5703"/><text fill="#000000" font-family="sans-serif" font-size="13" font-weight="bold" lengthAdjust="spacing" textLength="7.23" x="481.8804" y="304.3076">8</text><text fill="#000000" font-family="sans-serif" font-size="13" lengthAdjust="spacing" textLength="97.519" x="493.1104" y="304.3076">Return UserDTO</text><polygon fill="#181818" points="218.167,336.8613,208.167,340.8613,218.167,344.8613,214.167,340.8613" style="stroke:#181818;stroke-width:1.0;"/><line style="stroke:#181818;stroke-width:1.0;stroke-dasharray:2.0,2.0;" x1="212.167" x2="458.8804" y1="340.8613" y2="340.8613"/><text fill="#000000" font-family="sans-serif" font-size="13" font-weight="bold" lengthAdjust="spacing" textLength="7.23" x="224.167" y="335.5986">9</text><text fill="#000000" font-family="sans-serif" font-size="13" lengthAdjust="spacing" textLength="97.519" x="235.397" y="335.5986">Return UserDTO</text><polygon fill="#181818" points="442.8804,368.1523,452.8804,372.1523,442.8804,376.1523,446.8804,372.1523" style="stroke:#181818;stroke-width:1.0;"/><line style="stroke:#181818;stroke-width:1.0;" x1="207.167" x2="448.8804" y1="372.1523" y2="372.1523"/><text fill="#000000" font-family="sans-serif" font-size="13" font-weight="bold" lengthAdjust="spacing" textLength="14.46" x="214.167" y="366.8896">10</text><text fill="#000000" font-family="sans-serif" font-size="13" lengthAdjust="spacing" textLength="163.3125" x="232.627" y="366.8896">Call GenerateToken method</text><polygon fill="#181818" points="218.167,399.4434,208.167,403.4434,218.167,407.4434,214.167,403.4434" style="stroke:#181818;stroke-width:1.0;"/><line style="stroke:#181818;stroke-width:1.0;stroke-dasharray:2.0,2.0;" x1="212.167" x2="458.8804" y1="403.4434" y2="403.4434"/><text fill="#000000" font-family="sans-serif" font-size="13" font-weight="bold" lengthAdjust="spacing" textLength="14.46" x="224.167" y="398.1807">11</text><text fill="#000000" font-family="sans-serif" font-size="13" lengthAdjust="spacing" textLength="81.6626" x="242.627" y="398.1807">Token to login</text><polygon fill="#181818" points="11,430.7344,1,434.7344,11,438.7344,7,434.7344" style="stroke:#181818;stroke-width:1.0;"/><line style="stroke:#181818;stroke-width:1.0;stroke-dasharray:2.0,2.0;" x1="5" x2="201.167" y1="434.7344" y2="434.7344"/><text fill="#000000" font-family="sans-serif" font-size="13" font-weight="bold" lengthAdjust="spacing" textLength="14.46" x="17" y="429.4717">12</text><text fill="#000000" font-family="sans-serif" font-size="13" lengthAdjust="spacing" textLength="159.707" x="35.46" y="429.4717">Success and Token to login</text><!--SRC=[dP9DJy9048RlyoicNj03Vu0G4gdeXGHIqFku7Sg6_QYxKmp_tdQh1GmIzTZkyyuxJxjnfrr5WInQxxpQ1cyP9TGCiJ-fIEsev9KS36DW9UHASmh4BHN-NRiIDsGY0r0jtjNsbGD0WuXMkY8dU9Dv9y4Rm-46AMAspkSu7YjlA-_OoMHoZgyuxBNYnAvc-SirDkVAHoq-71AUpvQBRpWCS3X9dICiMRB09FpeWxszWm4fqVlcEPt3O3mSTjlX23SD0eE2pn7ePyrzgHq-iM3ERpL7WNCopMderc246HdJmaiItUmrFSmiQNCV3qwXPTdwuXXl4m39lCctIgFKyvb5QVvNNMunCwGj5sdICTto0Eb33FlwdAKExci2d5XrU5VMk_sCTxjTbfk-_iVgENBebJuRstT_q6hnX_NYjreNy6jQZaE3hFsEtLMflgP3nQDfhyY5cjDhjggLuXYHN74bsDqzW0y0]--></g></svg>