<svg xmlns="http://www.w3.org/2000/svg" xmlns:xlink="http://www.w3.org/1999/xlink" contentStyleType="text/css" height="383px" preserveAspectRatio="none" style="width:674px;height:383px;background:#FFFFFF;" version="1.1" viewBox="0 0 674 383" width="674px" zoomAndPan="magnify"><defs/><g><rect fill="#FFFFFF" height="219.0371" style="stroke:#181818;stroke-width:1.0;" width="10" x="189.937" y="90.5332"/><rect fill="#FFFFFF" height="93.873" style="stroke:#181818;stroke-width:1.0;" width="10" x="410.7959" y="121.8242"/><rect fill="#FFFFFF" height="31.291" style="stroke:#181818;stroke-width:1.0;" width="10" x="410.7959" y="246.9883"/><rect fill="#FFFFFF" height="31.291" style="stroke:#181818;stroke-width:1.0;" width="10" x="614.3066" y="153.1152"/><line style="stroke:#181818;stroke-width:0.5;stroke-dasharray:5.0,5.0;" x1="194.5166" x2="194.5166" y1="57.2422" y2="327.5703"/><line style="stroke:#181818;stroke-width:0.5;stroke-dasharray:5.0,5.0;" x1="415.3755" x2="415.3755" y1="57.2422" y2="327.5703"/><line style="stroke:#181818;stroke-width:0.5;stroke-dasharray:5.0,5.0;" x1="618.8862" x2="618.8862" y1="57.2422" y2="327.5703"/><rect fill="#E3E3E3" height="51.2422" rx="2.5" ry="2.5" style="stroke:#181818;stroke-width:0.5;" width="98.8408" x="145.5166" y="5"/><text fill="#000000" font-family="sans-serif" font-size="14" font-style="italic" lengthAdjust="spacing" textLength="84.8408" x="152.5166" y="27.1074">&#171;component&#187;</text><text fill="#000000" font-family="sans-serif" font-size="14" lengthAdjust="spacing" textLength="60.6895" x="164.5923" y="45.7285">Controller</text><rect fill="#E3E3E3" height="51.2422" rx="2.5" ry="2.5" style="stroke:#181818;stroke-width:0.5;" width="98.8408" x="145.5166" y="326.5703"/><text fill="#000000" font-family="sans-serif" font-size="14" font-style="italic" lengthAdjust="spacing" textLength="84.8408" x="152.5166" y="348.6777">&#171;component&#187;</text><text fill="#000000" font-family="sans-serif" font-size="14" lengthAdjust="spacing" textLength="60.6895" x="164.5923" y="367.2988">Controller</text><rect fill="#E3E3E3" height="51.2422" rx="2.5" ry="2.5" style="stroke:#181818;stroke-width:0.5;" width="98.8408" x="366.3755" y="5"/><text fill="#000000" font-family="sans-serif" font-size="14" font-style="italic" lengthAdjust="spacing" textLength="84.8408" x="373.3755" y="27.1074">&#171;component&#187;</text><text fill="#000000" font-family="sans-serif" font-size="14" lengthAdjust="spacing" textLength="46.6826" x="392.4546" y="45.7285">Service</text><rect fill="#E3E3E3" height="51.2422" rx="2.5" ry="2.5" style="stroke:#181818;stroke-width:0.5;" width="98.8408" x="366.3755" y="326.5703"/><text fill="#000000" font-family="sans-serif" font-size="14" font-style="italic" lengthAdjust="spacing" textLength="84.8408" x="373.3755" y="348.6777">&#171;component&#187;</text><text fill="#000000" font-family="sans-serif" font-size="14" lengthAdjust="spacing" textLength="46.6826" x="392.4546" y="367.2988">Service</text><rect fill="#E3E3E3" height="51.2422" rx="2.5" ry="2.5" style="stroke:#181818;stroke-width:0.5;" width="98.8408" x="569.8862" y="5"/><text fill="#000000" font-family="sans-serif" font-size="14" font-style="italic" lengthAdjust="spacing" textLength="84.8408" x="576.8862" y="27.1074">&#171;component&#187;</text><text fill="#000000" font-family="sans-serif" font-size="14" lengthAdjust="spacing" textLength="66.917" x="585.8481" y="45.7285">Repository</text><rect fill="#E3E3E3" height="51.2422" rx="2.5" ry="2.5" style="stroke:#181818;stroke-width:0.5;" width="98.8408" x="569.8862" y="326.5703"/><text fill="#000000" font-family="sans-serif" font-size="14" font-style="italic" lengthAdjust="spacing" textLength="84.8408" x="576.8862" y="348.6777">&#171;component&#187;</text><text fill="#000000" font-family="sans-serif" font-size="14" lengthAdjust="spacing" textLength="66.917" x="585.8481" y="367.2988">Repository</text><rect fill="#FFFFFF" height="219.0371" style="stroke:#181818;stroke-width:1.0;" width="10" x="189.937" y="90.5332"/><rect fill="#FFFFFF" height="93.873" style="stroke:#181818;stroke-width:1.0;" width="10" x="410.7959" y="121.8242"/><rect fill="#FFFFFF" height="31.291" style="stroke:#181818;stroke-width:1.0;" width="10" x="410.7959" y="246.9883"/><rect fill="#FFFFFF" height="31.291" style="stroke:#181818;stroke-width:1.0;" width="10" x="614.3066" y="153.1152"/><polygon fill="#181818" points="177.937,86.5332,187.937,90.5332,177.937,94.5332,181.937,90.5332" style="stroke:#181818;stroke-width:1.0;"/><line style="stroke:#181818;stroke-width:1.0;" x1="0" x2="183.937" y1="90.5332" y2="90.5332"/><text fill="#000000" font-family="sans-serif" font-size="13" font-weight="bold" lengthAdjust="spacing" textLength="7.23" x="7" y="85.2705">1</text><text fill="#000000" font-family="sans-serif" font-size="13" lengthAdjust="spacing" textLength="108.4053" x="18.23" y="85.2705">Login Get Request</text><polygon fill="#181818" points="398.7959,117.8242,408.7959,121.8242,398.7959,125.8242,402.7959,121.8242" style="stroke:#181818;stroke-width:1.0;"/><line style="stroke:#181818;stroke-width:1.0;" x1="199.937" x2="404.7959" y1="121.8242" y2="121.8242"/><text fill="#000000" font-family="sans-serif" font-size="13" font-weight="bold" lengthAdjust="spacing" textLength="7.23" x="206.937" y="116.5615">2</text><text fill="#000000" font-family="sans-serif" font-size="13" lengthAdjust="spacing" textLength="180.6289" x="218.167" y="116.5615">Call GeBbyEmailAsync method</text><polygon fill="#181818" points="602.3066,149.1152,612.3066,153.1152,602.3066,157.1152,606.3066,153.1152" style="stroke:#181818;stroke-width:1.0;"/><line style="stroke:#181818;stroke-width:1.0;" x1="420.7959" x2="608.3066" y1="153.1152" y2="153.1152"/><text fill="#000000" font-family="sans-serif" font-size="13" font-weight="bold" lengthAdjust="spacing" textLength="7.23" x="427.7959" y="147.8525">3</text><text fill="#000000" font-family="sans-serif" font-size="13" lengthAdjust="spacing" textLength="163.2808" x="439.0259" y="147.8525">Get User through UserEmail</text><polygon fill="#181818" points="431.7959,180.4063,421.7959,184.4063,431.7959,188.4063,427.7959,184.4063" style="stroke:#181818;stroke-width:1.0;"/><line style="stroke:#181818;stroke-width:1.0;stroke-dasharray:2.0,2.0;" x1="425.7959" x2="618.3066" y1="184.4063" y2="184.4063"/><text fill="#000000" font-family="sans-serif" font-size="13" font-weight="bold" lengthAdjust="spacing" textLength="7.23" x="437.7959" y="179.1436">4</text><text fill="#000000" font-family="sans-serif" font-size="13" lengthAdjust="spacing" textLength="97.519" x="449.0259" y="179.1436">Return UserDTO</text><polygon fill="#181818" points="210.937,211.6973,200.937,215.6973,210.937,219.6973,206.937,215.6973" style="stroke:#181818;stroke-width:1.0;"/><line style="stroke:#181818;stroke-width:1.0;stroke-dasharray:2.0,2.0;" x1="204.937" x2="414.7959" y1="215.6973" y2="215.6973"/><text fill="#000000" font-family="sans-serif" font-size="13" font-weight="bold" lengthAdjust="spacing" textLength="7.23" x="216.937" y="210.4346">5</text><text fill="#000000" font-family="sans-serif" font-size="13" lengthAdjust="spacing" textLength="97.519" x="228.167" y="210.4346">Return UserDTO</text><polygon fill="#181818" points="398.7959,242.9883,408.7959,246.9883,398.7959,250.9883,402.7959,246.9883" style="stroke:#181818;stroke-width:1.0;"/><line style="stroke:#181818;stroke-width:1.0;" x1="199.937" x2="404.7959" y1="246.9883" y2="246.9883"/><text fill="#000000" font-family="sans-serif" font-size="13" font-weight="bold" lengthAdjust="spacing" textLength="7.23" x="206.937" y="241.7256">6</text><text fill="#000000" font-family="sans-serif" font-size="13" lengthAdjust="spacing" textLength="163.3125" x="218.167" y="241.7256">Call GenerateToken method</text><polygon fill="#181818" points="210.937,274.2793,200.937,278.2793,210.937,282.2793,206.937,278.2793" style="stroke:#181818;stroke-width:1.0;"/><line style="stroke:#181818;stroke-width:1.0;stroke-dasharray:2.0,2.0;" x1="204.937" x2="414.7959" y1="278.2793" y2="278.2793"/><text fill="#000000" font-family="sans-serif" font-size="13" font-weight="bold" lengthAdjust="spacing" textLength="7.23" x="216.937" y="273.0166">7</text><text fill="#000000" font-family="sans-serif" font-size="13" lengthAdjust="spacing" textLength="81.6626" x="228.167" y="273.0166">Token to login</text><polygon fill="#181818" points="11,305.5703,1,309.5703,11,313.5703,7,309.5703" style="stroke:#181818;stroke-width:1.0;"/><line style="stroke:#181818;stroke-width:1.0;stroke-dasharray:2.0,2.0;" x1="5" x2="193.937" y1="309.5703" y2="309.5703"/><text fill="#000000" font-family="sans-serif" font-size="13" font-weight="bold" lengthAdjust="spacing" textLength="7.23" x="17" y="304.3076">8</text><text fill="#000000" font-family="sans-serif" font-size="13" lengthAdjust="spacing" textLength="159.707" x="28.23" y="304.3076">Success and Token to login</text><!--SRC=[VT7DJiCm30Vmkv_2sgLms0jKqoGeWykaeNPmprBJHij7IToXlZrfAdKR6Zj6-TdEFmv7PJlXXK7Zh9EjTuQGVKyGvfjEoADegE914tgIB6oZBq5eHUr-b6tmI-X00A9dPtjp80yG2IkfEc4P5uMpx9tMv1Se0XRxSekhbNIcSvOihzVNl29_KfAIhJRbvprRKkU2OkU7nClD- -uFXmoNwpGpnuQuy2IONfqt3u-G2Sdg5C_f7hBLSZcz3dFyYWIocgu9pBsshb4MtuYnfE-U0iErJ7sY7XFaM0Yj8tu-31iZb7uAWvLeY5jNd-j62f0Yny8nIvu6V0Joo75BVTEcG-fnhXibGCg-d2UMnBstYR_iTt0HPEBJc3dE_tnwrUqybdmaUtSaUpVDF6QYx52FttTZpEKAgbvA2W65hUyKJdi1-0K0]--></g></svg>