<?xml version="1.0" encoding="us-ascii" standalone="no"?><svg xmlns="http://www.w3.org/2000/svg" xmlns:xlink="http://www.w3.org/1999/xlink" contentStyleType="text/css" height="493px" preserveAspectRatio="none" style="width:1595px;height:493px;background:#FFFFFF;" version="1.1" viewBox="0 0 1595 493" width="1595px" zoomAndPan="magnify"><defs/><g><rect fill="#FFFFFF" height="342.9922" style="stroke:#181818;stroke-width:1.0;" width="10" x="205" y="81.8047"/><rect fill="#FFFFFF" height="28.5234" style="stroke:#181818;stroke-width:1.0;" width="10" x="926" y="110.3281"/><rect fill="#FFFFFF" height="141.8516" style="stroke:#181818;stroke-width:1.0;" width="10" x="1060" y="167.375"/><rect fill="#FFFFFF" height="58.5234" style="stroke:#181818;stroke-width:1.0;" width="10" x="1172.5" y="337.75"/><rect fill="#FFFFFF" height="28.5234" style="stroke:#181818;stroke-width:1.0;" width="10" x="1405.5" y="252.1797"/><rect fill="#FFFFFF" height="30" style="stroke:#181818;stroke-width:1.0;" width="10" x="1531.5" y="366.2734"/><line style="stroke:#181818;stroke-width:0.5;stroke-dasharray:5.0,5.0;" x1="210" x2="210" y1="51.2813" y2="442.7969"/><line style="stroke:#181818;stroke-width:0.5;stroke-dasharray:5.0,5.0;" x1="930.5" x2="930.5" y1="51.2813" y2="442.7969"/><line style="stroke:#181818;stroke-width:0.5;stroke-dasharray:5.0,5.0;" x1="1064.5" x2="1064.5" y1="51.2813" y2="442.7969"/><line style="stroke:#181818;stroke-width:0.5;stroke-dasharray:5.0,5.0;" x1="1177.5" x2="1177.5" y1="51.2813" y2="442.7969"/><line style="stroke:#181818;stroke-width:0.5;stroke-dasharray:5.0,5.0;" x1="1287.5" x2="1287.5" y1="213.5156" y2="442.7969"/><line style="stroke:#181818;stroke-width:0.5;stroke-dasharray:5.0,5.0;" x1="1410.5" x2="1410.5" y1="51.2813" y2="442.7969"/><line style="stroke:#181818;stroke-width:0.5;stroke-dasharray:5.0,5.0;" x1="1536.5" x2="1536.5" y1="51.2813" y2="442.7969"/><rect fill="#E3E3E3" height="45.2813" rx="2.5" ry="2.5" style="stroke:#181818;stroke-width:0.5;" width="120" x="150" y="5"/><text fill="#000000" font-family="sans-serif" font-size="14" font-style="italic" lengthAdjust="spacing" textLength="86" x="167" y="24.6738">&#171;component&#187;</text><text fill="#000000" font-family="sans-serif" font-size="14" lengthAdjust="spacing" textLength="106" x="157" y="40.3145">PatientController</text><rect fill="#E3E3E3" height="45.2813" rx="2.5" ry="2.5" style="stroke:#181818;stroke-width:0.5;" width="120" x="150" y="441.7969"/><text fill="#000000" font-family="sans-serif" font-size="14" font-style="italic" lengthAdjust="spacing" textLength="86" x="167" y="461.4707">&#171;component&#187;</text><text fill="#000000" font-family="sans-serif" font-size="14" lengthAdjust="spacing" textLength="106" x="157" y="477.1113">PatientController</text><rect fill="#E3E3E3" height="45.2813" rx="2.5" ry="2.5" style="stroke:#181818;stroke-width:0.5;" width="143" x="859.5" y="5"/><text fill="#000000" font-family="sans-serif" font-size="14" font-style="italic" lengthAdjust="spacing" textLength="86" x="888" y="24.6738">&#171;component&#187;</text><text fill="#000000" font-family="sans-serif" font-size="14" lengthAdjust="spacing" textLength="129" x="866.5" y="40.3145">AuthorizationService</text><rect fill="#E3E3E3" height="45.2813" rx="2.5" ry="2.5" style="stroke:#181818;stroke-width:0.5;" width="143" x="859.5" y="441.7969"/><text fill="#000000" font-family="sans-serif" font-size="14" font-style="italic" lengthAdjust="spacing" textLength="86" x="888" y="461.4707">&#171;component&#187;</text><text fill="#000000" font-family="sans-serif" font-size="14" lengthAdjust="spacing" textLength="129" x="866.5" y="477.1113">AuthorizationService</text><rect fill="#E3E3E3" height="45.2813" rx="2.5" ry="2.5" style="stroke:#181818;stroke-width:0.5;" width="105" x="1012.5" y="5"/><text fill="#000000" font-family="sans-serif" font-size="14" font-style="italic" lengthAdjust="spacing" textLength="86" x="1022" y="24.6738">&#171;component&#187;</text><text fill="#000000" font-family="sans-serif" font-size="14" lengthAdjust="spacing" textLength="91" x="1019.5" y="40.3145">PatientService</text><rect fill="#E3E3E3" height="45.2813" rx="2.5" ry="2.5" style="stroke:#181818;stroke-width:0.5;" width="105" x="1012.5" y="441.7969"/><text fill="#000000" font-family="sans-serif" font-size="14" font-style="italic" lengthAdjust="spacing" textLength="86" x="1022" y="461.4707">&#171;component&#187;</text><text fill="#000000" font-family="sans-serif" font-size="14" lengthAdjust="spacing" textLength="91" x="1019.5" y="477.1113">PatientService</text><rect fill="#E3E3E3" height="45.2813" rx="2.5" ry="2.5" style="stroke:#181818;stroke-width:0.5;" width="100" x="1127.5" y="5"/><text fill="#000000" font-family="sans-serif" font-size="14" font-style="italic" lengthAdjust="spacing" textLength="86" x="1134.5" y="24.6738">&#171;component&#187;</text><text fill="#000000" font-family="sans-serif" font-size="14" lengthAdjust="spacing" textLength="71" x="1142" y="40.3145">LogService</text><rect fill="#E3E3E3" height="45.2813" rx="2.5" ry="2.5" style="stroke:#181818;stroke-width:0.5;" width="100" x="1127.5" y="441.7969"/><text fill="#000000" font-family="sans-serif" font-size="14" font-style="italic" lengthAdjust="spacing" textLength="86" x="1134.5" y="461.4707">&#171;component&#187;</text><text fill="#000000" font-family="sans-serif" font-size="14" lengthAdjust="spacing" textLength="71" x="1142" y="477.1113">LogService</text><rect fill="#E3E3E3" height="45.2813" rx="2.5" ry="2.5" style="stroke:#181818;stroke-width:0.5;" width="100" x="1237.5" y="441.7969"/><text fill="#000000" font-family="sans-serif" font-size="14" font-style="italic" lengthAdjust="spacing" textLength="86" x="1244.5" y="461.4707">&#171;component&#187;</text><text fill="#000000" font-family="sans-serif" font-size="14" lengthAdjust="spacing" textLength="44" x="1265.5" y="477.1113">Patient</text><rect fill="#E3E3E3" height="45.2813" rx="2.5" ry="2.5" style="stroke:#181818;stroke-width:0.5;" width="126" x="1347.5" y="5"/><text fill="#000000" font-family="sans-serif" font-size="14" font-style="italic" lengthAdjust="spacing" textLength="86" x="1367.5" y="24.6738">&#171;component&#187;</text><text fill="#000000" font-family="sans-serif" font-size="14" lengthAdjust="spacing" textLength="112" x="1354.5" y="40.3145">PatientRepository</text><rect fill="#E3E3E3" height="45.2813" rx="2.5" ry="2.5" style="stroke:#181818;stroke-width:0.5;" width="126" x="1347.5" y="441.7969"/><text fill="#000000" font-family="sans-serif" font-size="14" font-style="italic" lengthAdjust="spacing" textLength="86" x="1367.5" y="461.4707">&#171;component&#187;</text><text fill="#000000" font-family="sans-serif" font-size="14" lengthAdjust="spacing" textLength="112" x="1354.5" y="477.1113">PatientRepository</text><rect fill="#E3E3E3" height="45.2813" rx="2.5" ry="2.5" style="stroke:#181818;stroke-width:0.5;" width="106" x="1483.5" y="5"/><text fill="#000000" font-family="sans-serif" font-size="14" font-style="italic" lengthAdjust="spacing" textLength="86" x="1493.5" y="24.6738">&#171;component&#187;</text><text fill="#000000" font-family="sans-serif" font-size="14" lengthAdjust="spacing" textLength="92" x="1490.5" y="40.3145">LogRepository</text><rect fill="#E3E3E3" height="45.2813" rx="2.5" ry="2.5" style="stroke:#181818;stroke-width:0.5;" width="106" x="1483.5" y="441.7969"/><text fill="#000000" font-family="sans-serif" font-size="14" font-style="italic" lengthAdjust="spacing" textLength="86" x="1493.5" y="461.4707">&#171;component&#187;</text><text fill="#000000" font-family="sans-serif" font-size="14" lengthAdjust="spacing" textLength="92" x="1490.5" y="477.1113">LogRepository</text><rect fill="#FFFFFF" height="342.9922" style="stroke:#181818;stroke-width:1.0;" width="10" x="205" y="81.8047"/><rect fill="#FFFFFF" height="28.5234" style="stroke:#181818;stroke-width:1.0;" width="10" x="926" y="110.3281"/><rect fill="#FFFFFF" height="141.8516" style="stroke:#181818;stroke-width:1.0;" width="10" x="1060" y="167.375"/><rect fill="#FFFFFF" height="58.5234" style="stroke:#181818;stroke-width:1.0;" width="10" x="1172.5" y="337.75"/><rect fill="#FFFFFF" height="28.5234" style="stroke:#181818;stroke-width:1.0;" width="10" x="1405.5" y="252.1797"/><rect fill="#FFFFFF" height="30" style="stroke:#181818;stroke-width:1.0;" width="10" x="1531.5" y="366.2734"/><polygon fill="#181818" points="193,77.8047,203,81.8047,193,85.8047,197,81.8047" style="stroke:#181818;stroke-width:1.0;"/><line style="stroke:#181818;stroke-width:1.0;" x1="0" x2="199" y1="81.8047" y2="81.8047"/><text fill="#000000" font-family="sans-serif" font-size="13" font-weight="bold" lengthAdjust="spacing" textLength="7" x="7" y="77.0498">1</text><text fill="#000000" font-family="sans-serif" font-size="13" lengthAdjust="spacing" textLength="175" x="18" y="77.0498">create(CreatingPatientDto dto)</text><polygon fill="#181818" points="914,106.3281,924,110.3281,914,114.3281,918,110.3281" style="stroke:#181818;stroke-width:1.0;"/><line style="stroke:#181818;stroke-width:1.0;" x1="215" x2="920" y1="110.3281" y2="110.3281"/><text fill="#000000" font-family="sans-serif" font-size="13" font-weight="bold" lengthAdjust="spacing" textLength="7" x="222" y="105.5732">2</text><text fill="#000000" font-family="sans-serif" font-size="13" lengthAdjust="spacing" textLength="681" x="233" y="105.5732">ValidateUserRole(Request.Headers["Authorization"].ToString(), new List&lt;string&gt; {Role.ADMIN, Role.PATIENT}).Result</text><polygon fill="#181818" points="226,134.8516,216,138.8516,226,142.8516,222,138.8516" style="stroke:#181818;stroke-width:1.0;"/><line style="stroke:#181818;stroke-width:1.0;" x1="220" x2="930" y1="138.8516" y2="138.8516"/><text fill="#000000" font-family="sans-serif" font-size="13" font-weight="bold" lengthAdjust="spacing" textLength="7" x="232" y="134.0967">3</text><text fill="#000000" font-family="sans-serif" font-size="13" lengthAdjust="spacing" textLength="22" x="243" y="134.0967">true</text><polygon fill="#181818" points="1048,163.375,1058,167.375,1048,171.375,1052,167.375" style="stroke:#181818;stroke-width:1.0;"/><line style="stroke:#181818;stroke-width:1.0;" x1="215" x2="1054" y1="167.375" y2="167.375"/><text fill="#000000" font-family="sans-serif" font-size="13" font-weight="bold" lengthAdjust="spacing" textLength="7" x="222" y="162.6201">4</text><text fill="#000000" font-family="sans-serif" font-size="13" lengthAdjust="spacing" textLength="199" x="233" y="162.6201">AddAsync(CreatingPatientDto dto)</text><polygon fill="#181818" points="1225.5,191.8984,1235.5,195.8984,1225.5,199.8984,1229.5,195.8984" style="stroke:#181818;stroke-width:1.0;"/><line style="stroke:#181818;stroke-width:1.0;" x1="1070" x2="1231.5" y1="195.8984" y2="195.8984"/><text fill="#000000" font-family="sans-serif" font-size="13" font-weight="bold" lengthAdjust="spacing" textLength="7" x="1077" y="191.1436">5</text><text fill="#000000" font-family="sans-serif" font-size="13" lengthAdjust="spacing" textLength="44" x="1088" y="191.1436">create()</text><rect fill="#E3E3E3" height="45.2813" rx="2.5" ry="2.5" style="stroke:#181818;stroke-width:0.5;" width="100" x="1237.5" y="175.375"/><text fill="#000000" font-family="sans-serif" font-size="14" font-style="italic" lengthAdjust="spacing" textLength="86" x="1244.5" y="195.0488">&#171;component&#187;</text><text fill="#000000" font-family="sans-serif" font-size="14" lengthAdjust="spacing" textLength="44" x="1265.5" y="210.6895">Patient</text><polygon fill="#181818" points="1393.5,248.1797,1403.5,252.1797,1393.5,256.1797,1397.5,252.1797" style="stroke:#181818;stroke-width:1.0;"/><line style="stroke:#181818;stroke-width:1.0;" x1="1070" x2="1399.5" y1="252.1797" y2="252.1797"/><text fill="#000000" font-family="sans-serif" font-size="13" font-weight="bold" lengthAdjust="spacing" textLength="7" x="1077" y="247.4248">6</text><text fill="#000000" font-family="sans-serif" font-size="13" lengthAdjust="spacing" textLength="109" x="1088" y="247.4248">AddAsync(Patient)</text><polygon fill="#181818" points="1081,276.7031,1071,280.7031,1081,284.7031,1077,280.7031" style="stroke:#181818;stroke-width:1.0;"/><line style="stroke:#181818;stroke-width:1.0;stroke-dasharray:2.0,2.0;" x1="1075" x2="1409.5" y1="280.7031" y2="280.7031"/><text fill="#000000" font-family="sans-serif" font-size="13" font-weight="bold" lengthAdjust="spacing" textLength="7" x="1087" y="275.9482">7</text><text fill="#000000" font-family="sans-serif" font-size="13" lengthAdjust="spacing" textLength="42" x="1098" y="275.9482">sucess</text><polygon fill="#181818" points="226,305.2266,216,309.2266,226,313.2266,222,309.2266" style="stroke:#181818;stroke-width:1.0;"/><line style="stroke:#181818;stroke-width:1.0;stroke-dasharray:2.0,2.0;" x1="220" x2="1064" y1="309.2266" y2="309.2266"/><text fill="#000000" font-family="sans-serif" font-size="13" font-weight="bold" lengthAdjust="spacing" textLength="7" x="232" y="304.4717">8</text><text fill="#000000" font-family="sans-serif" font-size="13" lengthAdjust="spacing" textLength="32" x="243" y="304.4717">result</text><polygon fill="#181818" points="1160.5,333.75,1170.5,337.75,1160.5,341.75,1164.5,337.75" style="stroke:#181818;stroke-width:1.0;"/><line style="stroke:#181818;stroke-width:1.0;" x1="215" x2="1166.5" y1="337.75" y2="337.75"/><text fill="#000000" font-family="sans-serif" font-size="13" font-weight="bold" lengthAdjust="spacing" textLength="7" x="222" y="332.9951">9</text><text fill="#000000" font-family="sans-serif" font-size="13" lengthAdjust="spacing" textLength="444" x="233" y="332.9951">LogAsync("Patient", "Created", result.Id, JsonConvert.SerializeObject(result))</text><polygon fill="#181818" points="1519.5,362.2734,1529.5,366.2734,1519.5,370.2734,1523.5,366.2734" style="stroke:#181818;stroke-width:1.0;"/><line style="stroke:#181818;stroke-width:1.0;" x1="1182.5" x2="1525.5" y1="366.2734" y2="366.2734"/><text fill="#000000" font-family="sans-serif" font-size="13" font-weight="bold" lengthAdjust="spacing" textLength="14" x="1189.5" y="361.5186">10</text><text fill="#000000" font-family="sans-serif" font-size="13" lengthAdjust="spacing" textLength="116" x="1207.5" y="361.5186">AddAsync(logEntry)</text><polygon fill="#181818" points="11,420.7969,1,424.7969,11,428.7969,7,424.7969" style="stroke:#181818;stroke-width:1.0;"/><line style="stroke:#181818;stroke-width:1.0;stroke-dasharray:2.0,2.0;" x1="5" x2="209" y1="424.7969" y2="424.7969"/><text fill="#000000" font-family="sans-serif" font-size="13" font-weight="bold" lengthAdjust="spacing" textLength="14" x="17" y="420.042">11</text><text fill="#000000" font-family="sans-serif" font-size="13" lengthAdjust="spacing" textLength="32" x="35" y="420.042">result</text><!--SRC=[ZLHTRzem57tthxZYfL25_024a3A8MgOKK61zcVRW9fV4gsDdjaD5f_ttEGvafkjNNXBPvvnxZk-DzICJDLMqWaeAcPLALWX6DKXqlrFJx94Mk3L7Zg0mCrGKt0VeakRoYOa2zfHh98GsHegcUa15Y8KObh6Q2WE33JKCXPbBOPJa7DK0g8RvBarWEiraLKjXjsUpIrRKc58gzcp9KcnH7LY6ZXXju_J-FUQfdi_vY9B8meSdh-2lBWWt5MNSfznyqfK3BzPtdu2cM4lDZ5H7HqhZpVg332yOoIiK-undxl0da2ca1eVpzcKRUIgxC19o8qVaQjzmlg8L1jYc3Q0khKe01OeSLG2v9Q_tNvWoPG2DHXMtC48pmmvsonKXhisseklQ1EufPotlcuMdakCmnLyDQXFU8hMY-ljbtmS_mftS6cNT3KS127o2X6aprMvf1hzRZJ1Qt2rN0RZlJRHRnglTdr6Oecwu-MV7EI3Tz9oE02RTsEVu0dLstPcEyZpIHv6zUL8zsv7F5MoNhw_xKnxrwsrNFD6JcAVI0eZhtRZte9iCjVQTEbIdsNTKTPazr4MSfDEoazALxeSoW87BXhdzx4J2PHx0Los5_MyFg4nefvtPxZtZ-k6dlG-67Mpa-NRo93ddxCRFIyfb4TixuEXJN0hFx_yBJdGw7hyPqSsPVVu2]--></g></svg>