<?xml version="1.0" encoding="us-ascii" standalone="no"?><svg xmlns="http://www.w3.org/2000/svg" xmlns:xlink="http://www.w3.org/1999/xlink" contentStyleType="text/css" height="553px" preserveAspectRatio="none" style="width:1537px;height:553px;background:#FFFFFF;" version="1.1" viewBox="0 0 1537 553" width="1537px" zoomAndPan="magnify"><defs/><g><rect fill="#FFFFFF" height="403.7578" style="stroke:#181818;stroke-width:1.0;" width="10" x="112" y="81.8047"/><rect fill="#FFFFFF" height="28.5234" style="stroke:#181818;stroke-width:1.0;" width="10" x="833" y="110.3281"/><rect fill="#FFFFFF" height="202.6172" style="stroke:#181818;stroke-width:1.0;" width="10" x="967" y="167.375"/><rect fill="#FFFFFF" height="58.5234" style="stroke:#181818;stroke-width:1.0;" width="10" x="1079.5" y="398.5156"/><rect fill="#FFFFFF" height="30" style="stroke:#181818;stroke-width:1.0;" width="10" x="1224" y="252.9453"/><rect fill="#FFFFFF" height="28.5234" style="stroke:#181818;stroke-width:1.0;" width="10" x="1347" y="195.8984"/><rect fill="#FFFFFF" height="30" style="stroke:#181818;stroke-width:1.0;" width="10" x="1347" y="311.4688"/><rect fill="#FFFFFF" height="30" style="stroke:#181818;stroke-width:1.0;" width="10" x="1473" y="427.0391"/><line style="stroke:#181818;stroke-width:0.5;stroke-dasharray:5.0,5.0;" x1="117" x2="117" y1="51.2813" y2="503.5625"/><line style="stroke:#181818;stroke-width:0.5;stroke-dasharray:5.0,5.0;" x1="837.5" x2="837.5" y1="51.2813" y2="503.5625"/><line style="stroke:#181818;stroke-width:0.5;stroke-dasharray:5.0,5.0;" x1="971.5" x2="971.5" y1="51.2813" y2="503.5625"/><line style="stroke:#181818;stroke-width:0.5;stroke-dasharray:5.0,5.0;" x1="1084.5" x2="1084.5" y1="51.2813" y2="503.5625"/><line style="stroke:#181818;stroke-width:0.5;stroke-dasharray:5.0,5.0;" x1="1229" x2="1229" y1="51.2813" y2="503.5625"/><line style="stroke:#181818;stroke-width:0.5;stroke-dasharray:5.0,5.0;" x1="1352" x2="1352" y1="51.2813" y2="503.5625"/><line style="stroke:#181818;stroke-width:0.5;stroke-dasharray:5.0,5.0;" x1="1478" x2="1478" y1="51.2813" y2="503.5625"/><rect fill="#E3E3E3" height="45.2813" rx="2.5" ry="2.5" style="stroke:#181818;stroke-width:0.5;" width="120" x="57" y="5"/><text fill="#000000" font-family="sans-serif" font-size="14" font-style="italic" lengthAdjust="spacing" textLength="86" x="74" y="24.6738">&#171;component&#187;</text><text fill="#000000" font-family="sans-serif" font-size="14" lengthAdjust="spacing" textLength="106" x="64" y="40.3145">PatientController</text><rect fill="#E3E3E3" height="45.2813" rx="2.5" ry="2.5" style="stroke:#181818;stroke-width:0.5;" width="120" x="57" y="502.5625"/><text fill="#000000" font-family="sans-serif" font-size="14" font-style="italic" lengthAdjust="spacing" textLength="86" x="74" y="522.2363">&#171;component&#187;</text><text fill="#000000" font-family="sans-serif" font-size="14" lengthAdjust="spacing" textLength="106" x="64" y="537.877">PatientController</text><rect fill="#E3E3E3" height="45.2813" rx="2.5" ry="2.5" style="stroke:#181818;stroke-width:0.5;" width="143" x="766.5" y="5"/><text fill="#000000" font-family="sans-serif" font-size="14" font-style="italic" lengthAdjust="spacing" textLength="86" x="795" y="24.6738">&#171;component&#187;</text><text fill="#000000" font-family="sans-serif" font-size="14" lengthAdjust="spacing" textLength="129" x="773.5" y="40.3145">AuthorizationService</text><rect fill="#E3E3E3" height="45.2813" rx="2.5" ry="2.5" style="stroke:#181818;stroke-width:0.5;" width="143" x="766.5" y="502.5625"/><text fill="#000000" font-family="sans-serif" font-size="14" font-style="italic" lengthAdjust="spacing" textLength="86" x="795" y="522.2363">&#171;component&#187;</text><text fill="#000000" font-family="sans-serif" font-size="14" lengthAdjust="spacing" textLength="129" x="773.5" y="537.877">AuthorizationService</text><rect fill="#E3E3E3" height="45.2813" rx="2.5" ry="2.5" style="stroke:#181818;stroke-width:0.5;" width="105" x="919.5" y="5"/><text fill="#000000" font-family="sans-serif" font-size="14" font-style="italic" lengthAdjust="spacing" textLength="86" x="929" y="24.6738">&#171;component&#187;</text><text fill="#000000" font-family="sans-serif" font-size="14" lengthAdjust="spacing" textLength="91" x="926.5" y="40.3145">PatientService</text><rect fill="#E3E3E3" height="45.2813" rx="2.5" ry="2.5" style="stroke:#181818;stroke-width:0.5;" width="105" x="919.5" y="502.5625"/><text fill="#000000" font-family="sans-serif" font-size="14" font-style="italic" lengthAdjust="spacing" textLength="86" x="929" y="522.2363">&#171;component&#187;</text><text fill="#000000" font-family="sans-serif" font-size="14" lengthAdjust="spacing" textLength="91" x="926.5" y="537.877">PatientService</text><rect fill="#E3E3E3" height="45.2813" rx="2.5" ry="2.5" style="stroke:#181818;stroke-width:0.5;" width="100" x="1034.5" y="5"/><text fill="#000000" font-family="sans-serif" font-size="14" font-style="italic" lengthAdjust="spacing" textLength="86" x="1041.5" y="24.6738">&#171;component&#187;</text><text fill="#000000" font-family="sans-serif" font-size="14" lengthAdjust="spacing" textLength="71" x="1049" y="40.3145">LogService</text><rect fill="#E3E3E3" height="45.2813" rx="2.5" ry="2.5" style="stroke:#181818;stroke-width:0.5;" width="100" x="1034.5" y="502.5625"/><text fill="#000000" font-family="sans-serif" font-size="14" font-style="italic" lengthAdjust="spacing" textLength="86" x="1041.5" y="522.2363">&#171;component&#187;</text><text fill="#000000" font-family="sans-serif" font-size="14" lengthAdjust="spacing" textLength="71" x="1049" y="537.877">LogService</text><rect fill="#E3E3E3" height="45.2813" rx="2.5" ry="2.5" style="stroke:#181818;stroke-width:0.5;" width="100" x="1179" y="5"/><text fill="#000000" font-family="sans-serif" font-size="14" font-style="italic" lengthAdjust="spacing" textLength="86" x="1186" y="24.6738">&#171;component&#187;</text><text fill="#000000" font-family="sans-serif" font-size="14" lengthAdjust="spacing" textLength="83" x="1187.5" y="40.3145">GmailService</text><rect fill="#E3E3E3" height="45.2813" rx="2.5" ry="2.5" style="stroke:#181818;stroke-width:0.5;" width="100" x="1179" y="502.5625"/><text fill="#000000" font-family="sans-serif" font-size="14" font-style="italic" lengthAdjust="spacing" textLength="86" x="1186" y="522.2363">&#171;component&#187;</text><text fill="#000000" font-family="sans-serif" font-size="14" lengthAdjust="spacing" textLength="83" x="1187.5" y="537.877">GmailService</text><rect fill="#E3E3E3" height="45.2813" rx="2.5" ry="2.5" style="stroke:#181818;stroke-width:0.5;" width="126" x="1289" y="5"/><text fill="#000000" font-family="sans-serif" font-size="14" font-style="italic" lengthAdjust="spacing" textLength="86" x="1309" y="24.6738">&#171;component&#187;</text><text fill="#000000" font-family="sans-serif" font-size="14" lengthAdjust="spacing" textLength="112" x="1296" y="40.3145">PatientRepository</text><rect fill="#E3E3E3" height="45.2813" rx="2.5" ry="2.5" style="stroke:#181818;stroke-width:0.5;" width="126" x="1289" y="502.5625"/><text fill="#000000" font-family="sans-serif" font-size="14" font-style="italic" lengthAdjust="spacing" textLength="86" x="1309" y="522.2363">&#171;component&#187;</text><text fill="#000000" font-family="sans-serif" font-size="14" lengthAdjust="spacing" textLength="112" x="1296" y="537.877">PatientRepository</text><rect fill="#E3E3E3" height="45.2813" rx="2.5" ry="2.5" style="stroke:#181818;stroke-width:0.5;" width="106" x="1425" y="5"/><text fill="#000000" font-family="sans-serif" font-size="14" font-style="italic" lengthAdjust="spacing" textLength="86" x="1435" y="24.6738">&#171;component&#187;</text><text fill="#000000" font-family="sans-serif" font-size="14" lengthAdjust="spacing" textLength="92" x="1432" y="40.3145">LogRepository</text><rect fill="#E3E3E3" height="45.2813" rx="2.5" ry="2.5" style="stroke:#181818;stroke-width:0.5;" width="106" x="1425" y="502.5625"/><text fill="#000000" font-family="sans-serif" font-size="14" font-style="italic" lengthAdjust="spacing" textLength="86" x="1435" y="522.2363">&#171;component&#187;</text><text fill="#000000" font-family="sans-serif" font-size="14" lengthAdjust="spacing" textLength="92" x="1432" y="537.877">LogRepository</text><rect fill="#FFFFFF" height="403.7578" style="stroke:#181818;stroke-width:1.0;" width="10" x="112" y="81.8047"/><rect fill="#FFFFFF" height="28.5234" style="stroke:#181818;stroke-width:1.0;" width="10" x="833" y="110.3281"/><rect fill="#FFFFFF" height="202.6172" style="stroke:#181818;stroke-width:1.0;" width="10" x="967" y="167.375"/><rect fill="#FFFFFF" height="58.5234" style="stroke:#181818;stroke-width:1.0;" width="10" x="1079.5" y="398.5156"/><rect fill="#FFFFFF" height="30" style="stroke:#181818;stroke-width:1.0;" width="10" x="1224" y="252.9453"/><rect fill="#FFFFFF" height="28.5234" style="stroke:#181818;stroke-width:1.0;" width="10" x="1347" y="195.8984"/><rect fill="#FFFFFF" height="30" style="stroke:#181818;stroke-width:1.0;" width="10" x="1347" y="311.4688"/><rect fill="#FFFFFF" height="30" style="stroke:#181818;stroke-width:1.0;" width="10" x="1473" y="427.0391"/><polygon fill="#181818" points="100,77.8047,110,81.8047,100,85.8047,104,81.8047" style="stroke:#181818;stroke-width:1.0;"/><line style="stroke:#181818;stroke-width:1.0;" x1="0" x2="106" y1="81.8047" y2="81.8047"/><text fill="#000000" font-family="sans-serif" font-size="13" font-weight="bold" lengthAdjust="spacing" textLength="7" x="7" y="77.0498">1</text><text fill="#000000" font-family="sans-serif" font-size="13" lengthAdjust="spacing" textLength="82" x="18" y="77.0498">HardDelete(id)</text><polygon fill="#181818" points="821,106.3281,831,110.3281,821,114.3281,825,110.3281" style="stroke:#181818;stroke-width:1.0;"/><line style="stroke:#181818;stroke-width:1.0;" x1="122" x2="827" y1="110.3281" y2="110.3281"/><text fill="#000000" font-family="sans-serif" font-size="13" font-weight="bold" lengthAdjust="spacing" textLength="7" x="129" y="105.5732">2</text><text fill="#000000" font-family="sans-serif" font-size="13" lengthAdjust="spacing" textLength="681" x="140" y="105.5732">ValidateUserRole(Request.Headers["Authorization"].ToString(), new List&lt;string&gt; {Role.ADMIN, Role.PATIENT}).Result</text><polygon fill="#181818" points="133,134.8516,123,138.8516,133,142.8516,129,138.8516" style="stroke:#181818;stroke-width:1.0;"/><line style="stroke:#181818;stroke-width:1.0;" x1="127" x2="837" y1="138.8516" y2="138.8516"/><text fill="#000000" font-family="sans-serif" font-size="13" font-weight="bold" lengthAdjust="spacing" textLength="7" x="139" y="134.0967">3</text><text fill="#000000" font-family="sans-serif" font-size="13" lengthAdjust="spacing" textLength="22" x="150" y="134.0967">true</text><polygon fill="#181818" points="955,163.375,965,167.375,955,171.375,959,167.375" style="stroke:#181818;stroke-width:1.0;"/><line style="stroke:#181818;stroke-width:1.0;" x1="122" x2="961" y1="167.375" y2="167.375"/><text fill="#000000" font-family="sans-serif" font-size="13" font-weight="bold" lengthAdjust="spacing" textLength="7" x="129" y="162.6201">4</text><text fill="#000000" font-family="sans-serif" font-size="13" lengthAdjust="spacing" textLength="234" x="140" y="162.6201">DeleteAsync(PatientId id, bool isPatient)</text><polygon fill="#181818" points="1335,191.8984,1345,195.8984,1335,199.8984,1339,195.8984" style="stroke:#181818;stroke-width:1.0;"/><line style="stroke:#181818;stroke-width:1.0;" x1="977" x2="1341" y1="195.8984" y2="195.8984"/><text fill="#000000" font-family="sans-serif" font-size="13" font-weight="bold" lengthAdjust="spacing" textLength="7" x="984" y="191.1436">5</text><text fill="#000000" font-family="sans-serif" font-size="13" lengthAdjust="spacing" textLength="102" x="995" y="191.1436">GetByIdAsync(id)</text><polygon fill="#181818" points="988,220.4219,978,224.4219,988,228.4219,984,224.4219" style="stroke:#181818;stroke-width:1.0;"/><line style="stroke:#181818;stroke-width:1.0;stroke-dasharray:2.0,2.0;" x1="982" x2="1351" y1="224.4219" y2="224.4219"/><text fill="#000000" font-family="sans-serif" font-size="13" font-weight="bold" lengthAdjust="spacing" textLength="7" x="994" y="219.667">6</text><text fill="#000000" font-family="sans-serif" font-size="13" lengthAdjust="spacing" textLength="25" x="1005" y="219.667">prod</text><polygon fill="#181818" points="1212,248.9453,1222,252.9453,1212,256.9453,1216,252.9453" style="stroke:#181818;stroke-width:1.0;"/><line style="stroke:#181818;stroke-width:1.0;" x1="977" x2="1218" y1="252.9453" y2="252.9453"/><text fill="#000000" font-family="sans-serif" font-size="13" font-weight="bold" lengthAdjust="spacing" textLength="7" x="984" y="248.1904">7</text><text fill="#000000" font-family="sans-serif" font-size="13" lengthAdjust="spacing" textLength="217" x="995" y="248.1904">SendEmailAsync(sendEmailRequest)</text><polygon fill="#181818" points="1335,307.4688,1345,311.4688,1335,315.4688,1339,311.4688" style="stroke:#181818;stroke-width:1.0;"/><line style="stroke:#181818;stroke-width:1.0;stroke-dasharray:2.0,2.0;" x1="977" x2="1341" y1="311.4688" y2="311.4688"/><text fill="#000000" font-family="sans-serif" font-size="13" font-weight="bold" lengthAdjust="spacing" textLength="7" x="984" y="306.7139">8</text><text fill="#000000" font-family="sans-serif" font-size="13" lengthAdjust="spacing" textLength="79" x="995" y="306.7139">Remove(prod)</text><polygon fill="#181818" points="133,365.9922,123,369.9922,133,373.9922,129,369.9922" style="stroke:#181818;stroke-width:1.0;"/><line style="stroke:#181818;stroke-width:1.0;stroke-dasharray:2.0,2.0;" x1="127" x2="971" y1="369.9922" y2="369.9922"/><text fill="#000000" font-family="sans-serif" font-size="13" font-weight="bold" lengthAdjust="spacing" textLength="7" x="139" y="365.2373">9</text><text fill="#000000" font-family="sans-serif" font-size="13" lengthAdjust="spacing" textLength="75" x="150" y="365.2373">patientProfile</text><polygon fill="#181818" points="1067.5,394.5156,1077.5,398.5156,1067.5,402.5156,1071.5,398.5156" style="stroke:#181818;stroke-width:1.0;"/><line style="stroke:#181818;stroke-width:1.0;" x1="122" x2="1073.5" y1="398.5156" y2="398.5156"/><text fill="#000000" font-family="sans-serif" font-size="13" font-weight="bold" lengthAdjust="spacing" textLength="14" x="129" y="393.7607">10</text><text fill="#000000" font-family="sans-serif" font-size="13" lengthAdjust="spacing" textLength="522" x="147" y="393.7607">LogAsync("Patient", "Delete", patientProfile.Id, JsonConvert.SerializeObject(patientProfile))</text><polygon fill="#181818" points="1461,423.0391,1471,427.0391,1461,431.0391,1465,427.0391" style="stroke:#181818;stroke-width:1.0;"/><line style="stroke:#181818;stroke-width:1.0;" x1="1089.5" x2="1467" y1="427.0391" y2="427.0391"/><text fill="#000000" font-family="sans-serif" font-size="13" font-weight="bold" lengthAdjust="spacing" textLength="14" x="1096.5" y="422.2842">11</text><text fill="#000000" font-family="sans-serif" font-size="13" lengthAdjust="spacing" textLength="116" x="1114.5" y="422.2842">AddAsync(logEntry)</text><polygon fill="#181818" points="11,481.5625,1,485.5625,11,489.5625,7,485.5625" style="stroke:#181818;stroke-width:1.0;"/><line style="stroke:#181818;stroke-width:1.0;stroke-dasharray:2.0,2.0;" x1="5" x2="116" y1="485.5625" y2="485.5625"/><text fill="#000000" font-family="sans-serif" font-size="13" font-weight="bold" lengthAdjust="spacing" textLength="14" x="17" y="480.8076">12</text><text fill="#000000" font-family="sans-serif" font-size="13" lengthAdjust="spacing" textLength="75" x="35" y="480.8076">patientProfile</text><!--SRC=[ZLJ1Rjim3BthAuIS723n1mH10AyrKWzU6pXPBqCFYiKcMcNHa-GKwR1_dopPhPqDotoonVV8nqVAvaMeccbMqGeLbaUD5L2h6o3cFLApyeKTO6lF4gY6qZ9ra4E0EJAEhq8Tw3EJ1WXXZKNLL7lGX3Y85QMecR9qic5MWB8tgAn6AK5FA3FqPbVaTBaiiQfHkV1gDMObZJsY5c-EZ6eB-YHAyCHacnQF_s9szOQSQvGS3qDuVWs_hfYGGyRwFqKLKACH5lNPqufqyt15rmKZ_ml5FtI-yfukw1tJ_1OaM8W4dn9MMd5Y5doKUDiTrBkue8zC2kw2Nmte0YL41VnemDZu3XW7RRwDvp1vYdUujTgDFPhEg89NcWjZbyOVhUZFDaUSt7x9xcVKls-INPRUxtvDum9C8-s77A-0X6bsskaYh2672rIlEeWEpINchCgeypNZLF0PtIDAAantEEZTPo5zhTR31Ls3_NJEUCWpSggD4s_q_BrehP4FXNbCdt0TC5jGF6rN8-Gq_MTdwg229mpJXOEGhrFet2YWmXD4RUrBUPTIFhXX2-hWmKRZiv0ZIqUEva6vMxIWkL_KoOnEWi_kRPmhpfpJdmqgTwDFe6tiBe9mU_G63_llxayHZU7JWN9VZUIzRNdNPiAxAKWyfEulSHvIBhlzyo0Cbv3bV7wrUNy92FaD]--></g></svg>