<?xml version="1.0" encoding="us-ascii" standalone="no"?><svg xmlns="http://www.w3.org/2000/svg" xmlns:xlink="http://www.w3.org/1999/xlink" contentStyleType="text/css" height="722px" preserveAspectRatio="none" style="width:1085px;height:722px;background:#FFFFFF;" version="1.1" viewBox="0 0 1085 722" width="1085px" zoomAndPan="magnify"><defs/><g><rect fill="#FFFFFF" height="337.2813" style="stroke:#181818;stroke-width:1.0;" width="10" x="159" y="81.8047"/><rect fill="#FFFFFF" height="206.6641" style="stroke:#181818;stroke-width:1.0;" width="10" x="159" y="447.6094"/><rect fill="#FFFFFF" height="280.2344" style="stroke:#181818;stroke-width:1.0;" width="10" x="271" y="110.3281"/><rect fill="#FFFFFF" height="149.6172" style="stroke:#181818;stroke-width:1.0;" width="10" x="271" y="476.1328"/><rect fill="#FFFFFF" height="223.1875" style="stroke:#181818;stroke-width:1.0;" width="10" x="572" y="138.8516"/><rect fill="#FFFFFF" height="92.5703" style="stroke:#181818;stroke-width:1.0;" width="10" x="572" y="504.6563"/><rect fill="#FFFFFF" height="85.5703" style="stroke:#181818;stroke-width:1.0;" width="10" x="887" y="167.375"/><rect fill="#FFFFFF" height="256.7109" style="stroke:#181818;stroke-width:1.0;" width="10" x="887" y="304.9922"/><rect fill="none" height="301.7578" style="stroke:#000000;stroke-width:1.5;" width="979" x="3" y="267.9453"/><line style="stroke:#181818;stroke-width:0.5;stroke-dasharray:5.0,5.0;" x1="164" x2="164" y1="51.2813" y2="672.2734"/><line style="stroke:#181818;stroke-width:0.5;stroke-dasharray:5.0,5.0;" x1="276" x2="276" y1="51.2813" y2="672.2734"/><line style="stroke:#181818;stroke-width:0.5;stroke-dasharray:5.0,5.0;" x1="577" x2="577" y1="51.2813" y2="672.2734"/><line style="stroke:#181818;stroke-width:0.5;stroke-dasharray:5.0,5.0;" x1="892" x2="892" y1="51.2813" y2="672.2734"/><rect fill="#E3E3E3" height="45.2813" rx="2.5" ry="2.5" style="stroke:#181818;stroke-width:0.5;" width="104" x="112" y="5"/><text fill="#000000" font-family="sans-serif" font-size="14" font-style="italic" lengthAdjust="spacing" textLength="86" x="121" y="24.6738">&#171;component&#187;</text><text fill="#000000" font-family="sans-serif" font-size="14" lengthAdjust="spacing" textLength="90" x="119" y="40.3145">WebAplication</text><rect fill="#E3E3E3" height="45.2813" rx="2.5" ry="2.5" style="stroke:#181818;stroke-width:0.5;" width="104" x="112" y="671.2734"/><text fill="#000000" font-family="sans-serif" font-size="14" font-style="italic" lengthAdjust="spacing" textLength="86" x="121" y="690.9473">&#171;component&#187;</text><text fill="#000000" font-family="sans-serif" font-size="14" lengthAdjust="spacing" textLength="90" x="119" y="706.5879">WebAplication</text><rect fill="#E3E3E3" height="45.2813" rx="2.5" ry="2.5" style="stroke:#181818;stroke-width:0.5;" width="100" x="226" y="5"/><text fill="#000000" font-family="sans-serif" font-size="14" font-style="italic" lengthAdjust="spacing" textLength="86" x="233" y="24.6738">&#171;component&#187;</text><text fill="#000000" font-family="sans-serif" font-size="14" lengthAdjust="spacing" textLength="73" x="239.5" y="40.3145">HTML+CSS</text><rect fill="#E3E3E3" height="45.2813" rx="2.5" ry="2.5" style="stroke:#181818;stroke-width:0.5;" width="100" x="226" y="671.2734"/><text fill="#000000" font-family="sans-serif" font-size="14" font-style="italic" lengthAdjust="spacing" textLength="86" x="233" y="690.9473">&#171;component&#187;</text><text fill="#000000" font-family="sans-serif" font-size="14" lengthAdjust="spacing" textLength="73" x="239.5" y="706.5879">HTML+CSS</text><rect fill="#E3E3E3" height="45.2813" rx="2.5" ry="2.5" style="stroke:#181818;stroke-width:0.5;" width="100" x="527" y="5"/><text fill="#000000" font-family="sans-serif" font-size="14" font-style="italic" lengthAdjust="spacing" textLength="86" x="534" y="24.6738">&#171;component&#187;</text><text fill="#000000" font-family="sans-serif" font-size="14" lengthAdjust="spacing" textLength="70" x="542" y="40.3145">component</text><rect fill="#E3E3E3" height="45.2813" rx="2.5" ry="2.5" style="stroke:#181818;stroke-width:0.5;" width="100" x="527" y="671.2734"/><text fill="#000000" font-family="sans-serif" font-size="14" font-style="italic" lengthAdjust="spacing" textLength="86" x="534" y="690.9473">&#171;component&#187;</text><text fill="#000000" font-family="sans-serif" font-size="14" lengthAdjust="spacing" textLength="70" x="542" y="706.5879">component</text><rect fill="#E3E3E3" height="45.2813" rx="2.5" ry="2.5" style="stroke:#181818;stroke-width:0.5;" width="100" x="842" y="5"/><text fill="#000000" font-family="sans-serif" font-size="14" font-style="italic" lengthAdjust="spacing" textLength="86" x="849" y="24.6738">&#171;component&#187;</text><text fill="#000000" font-family="sans-serif" font-size="14" lengthAdjust="spacing" textLength="47" x="868.5" y="40.3145">Service</text><rect fill="#E3E3E3" height="45.2813" rx="2.5" ry="2.5" style="stroke:#181818;stroke-width:0.5;" width="100" x="842" y="671.2734"/><text fill="#000000" font-family="sans-serif" font-size="14" font-style="italic" lengthAdjust="spacing" textLength="86" x="849" y="690.9473">&#171;component&#187;</text><text fill="#000000" font-family="sans-serif" font-size="14" lengthAdjust="spacing" textLength="47" x="868.5" y="706.5879">Service</text><rect fill="#FFFFFF" height="337.2813" style="stroke:#181818;stroke-width:1.0;" width="10" x="159" y="81.8047"/><rect fill="#FFFFFF" height="206.6641" style="stroke:#181818;stroke-width:1.0;" width="10" x="159" y="447.6094"/><rect fill="#FFFFFF" height="280.2344" style="stroke:#181818;stroke-width:1.0;" width="10" x="271" y="110.3281"/><rect fill="#FFFFFF" height="149.6172" style="stroke:#181818;stroke-width:1.0;" width="10" x="271" y="476.1328"/><rect fill="#FFFFFF" height="223.1875" style="stroke:#181818;stroke-width:1.0;" width="10" x="572" y="138.8516"/><rect fill="#FFFFFF" height="92.5703" style="stroke:#181818;stroke-width:1.0;" width="10" x="572" y="504.6563"/><rect fill="#FFFFFF" height="85.5703" style="stroke:#181818;stroke-width:1.0;" width="10" x="887" y="167.375"/><rect fill="#FFFFFF" height="256.7109" style="stroke:#181818;stroke-width:1.0;" width="10" x="887" y="304.9922"/><polygon fill="#181818" points="147,77.8047,157,81.8047,147,85.8047,151,81.8047" style="stroke:#181818;stroke-width:1.0;"/><line style="stroke:#181818;stroke-width:1.0;" x1="0" x2="153" y1="81.8047" y2="81.8047"/><text fill="#000000" font-family="sans-serif" font-size="13" font-weight="bold" lengthAdjust="spacing" textLength="7" x="7" y="77.0498">1</text><text fill="#000000" font-family="sans-serif" font-size="13" lengthAdjust="spacing" textLength="122" x="18" y="77.0498">update info of Patient</text><polygon fill="#181818" points="259,106.3281,269,110.3281,259,114.3281,263,110.3281" style="stroke:#181818;stroke-width:1.0;"/><line style="stroke:#181818;stroke-width:1.0;" x1="169" x2="265" y1="110.3281" y2="110.3281"/><text fill="#000000" font-family="sans-serif" font-size="13" font-weight="bold" lengthAdjust="spacing" textLength="7" x="176" y="105.5732">2</text><text fill="#000000" font-family="sans-serif" font-size="13" lengthAdjust="spacing" textLength="51" x="187" y="105.5732">onClick()</text><polygon fill="#181818" points="560,134.8516,570,138.8516,560,142.8516,564,138.8516" style="stroke:#181818;stroke-width:1.0;"/><line style="stroke:#181818;stroke-width:1.0;" x1="281" x2="566" y1="138.8516" y2="138.8516"/><text fill="#000000" font-family="sans-serif" font-size="13" font-weight="bold" lengthAdjust="spacing" textLength="7" x="288" y="134.0967">3</text><text fill="#000000" font-family="sans-serif" font-size="13" lengthAdjust="spacing" textLength="204" x="299" y="134.0967">onUpdatePatient(email, PatientDto)</text><polygon fill="#181818" points="875,163.375,885,167.375,875,171.375,879,167.375" style="stroke:#181818;stroke-width:1.0;"/><line style="stroke:#181818;stroke-width:1.0;" x1="582" x2="881" y1="167.375" y2="167.375"/><text fill="#000000" font-family="sans-serif" font-size="13" font-weight="bold" lengthAdjust="spacing" textLength="7" x="589" y="162.6201">4</text><text fill="#000000" font-family="sans-serif" font-size="13" lengthAdjust="spacing" textLength="188" x="600" y="162.6201">updatePatient(email, PatientDto)</text><polygon fill="#181818" points="1067,191.8984,1077,195.8984,1067,199.8984,1071,195.8984" style="stroke:#181818;stroke-width:1.0;"/><line style="stroke:#181818;stroke-width:1.0;" x1="897" x2="1073" y1="195.8984" y2="195.8984"/><text fill="#000000" font-family="sans-serif" font-size="13" font-weight="bold" lengthAdjust="spacing" textLength="7" x="904" y="191.1436">5</text><text fill="#000000" font-family="sans-serif" font-size="13" lengthAdjust="spacing" textLength="147" x="915" y="191.1436">update(email, PatientDto)</text><polygon fill="#181818" points="908,220.4219,898,224.4219,908,228.4219,904,224.4219" style="stroke:#181818;stroke-width:1.0;"/><line style="stroke:#181818;stroke-width:1.0;stroke-dasharray:2.0,2.0;" x1="902" x2="1078" y1="224.4219" y2="224.4219"/><text fill="#000000" font-family="sans-serif" font-size="13" font-weight="bold" lengthAdjust="spacing" textLength="7" x="914" y="219.667">6</text><text fill="#000000" font-family="sans-serif" font-size="13" lengthAdjust="spacing" textLength="49" x="925" y="219.667">success</text><polygon fill="#181818" points="593,248.9453,583,252.9453,593,256.9453,589,252.9453" style="stroke:#181818;stroke-width:1.0;"/><line style="stroke:#181818;stroke-width:1.0;stroke-dasharray:2.0,2.0;" x1="587" x2="891" y1="252.9453" y2="252.9453"/><text fill="#000000" font-family="sans-serif" font-size="13" font-weight="bold" lengthAdjust="spacing" textLength="7" x="599" y="248.1904">7</text><text fill="#000000" font-family="sans-serif" font-size="13" lengthAdjust="spacing" textLength="49" x="610" y="248.1904">success</text><path d="M3,267.9453 L64,267.9453 L64,274.4688 L54,284.4688 L3,284.4688 L3,267.9453 " fill="#EEEEEE" style="stroke:#000000;stroke-width:1.5;"/><rect fill="none" height="301.7578" style="stroke:#000000;stroke-width:1.5;" width="979" x="3" y="267.9453"/><text fill="#000000" font-family="sans-serif" font-size="13" font-weight="bold" lengthAdjust="spacing" textLength="16" x="18" y="280.7139">alt</text><text fill="#000000" font-family="sans-serif" font-size="11" font-weight="bold" lengthAdjust="spacing" textLength="85" x="79" y="279.9033">[sensitive data]</text><polygon fill="#181818" points="908,300.9922,898,304.9922,908,308.9922,904,304.9922" style="stroke:#181818;stroke-width:1.0;"/><line style="stroke:#181818;stroke-width:1.0;stroke-dasharray:2.0,2.0;" x1="902" x2="1078" y1="304.9922" y2="304.9922"/><text fill="#000000" font-family="sans-serif" font-size="13" font-weight="bold" lengthAdjust="spacing" textLength="7" x="914" y="300.2373">8</text><text fill="#000000" font-family="sans-serif" font-size="13" lengthAdjust="spacing" textLength="53" x="925" y="300.2373">message</text><polygon fill="#181818" points="593,329.5156,583,333.5156,593,337.5156,589,333.5156" style="stroke:#181818;stroke-width:1.0;"/><line style="stroke:#181818;stroke-width:1.0;stroke-dasharray:2.0,2.0;" x1="587" x2="886" y1="333.5156" y2="333.5156"/><text fill="#000000" font-family="sans-serif" font-size="13" font-weight="bold" lengthAdjust="spacing" textLength="7" x="599" y="328.7607">9</text><text fill="#000000" font-family="sans-serif" font-size="13" lengthAdjust="spacing" textLength="53" x="610" y="328.7607">message</text><polygon fill="#181818" points="292,358.0391,282,362.0391,292,366.0391,288,362.0391" style="stroke:#181818;stroke-width:1.0;"/><line style="stroke:#181818;stroke-width:1.0;stroke-dasharray:2.0,2.0;" x1="286" x2="576" y1="362.0391" y2="362.0391"/><text fill="#000000" font-family="sans-serif" font-size="13" font-weight="bold" lengthAdjust="spacing" textLength="14" x="298" y="357.2842">10</text><text fill="#000000" font-family="sans-serif" font-size="13" lengthAdjust="spacing" textLength="53" x="316" y="357.2842">message</text><polygon fill="#181818" points="180,386.5625,170,390.5625,180,394.5625,176,390.5625" style="stroke:#181818;stroke-width:1.0;"/><line style="stroke:#181818;stroke-width:1.0;stroke-dasharray:2.0,2.0;" x1="174" x2="275" y1="390.5625" y2="390.5625"/><text fill="#000000" font-family="sans-serif" font-size="13" font-weight="bold" lengthAdjust="spacing" textLength="14" x="186" y="385.8076">11</text><text fill="#000000" font-family="sans-serif" font-size="13" lengthAdjust="spacing" textLength="53" x="204" y="385.8076">message</text><polygon fill="#181818" points="11,415.0859,1,419.0859,11,423.0859,7,419.0859" style="stroke:#181818;stroke-width:1.0;"/><line style="stroke:#181818;stroke-width:1.0;stroke-dasharray:2.0,2.0;" x1="5" x2="163" y1="419.0859" y2="419.0859"/><text fill="#000000" font-family="sans-serif" font-size="13" font-weight="bold" lengthAdjust="spacing" textLength="14" x="17" y="414.3311">12</text><text fill="#000000" font-family="sans-serif" font-size="13" lengthAdjust="spacing" textLength="53" x="35" y="414.3311">message</text><polygon fill="#181818" points="147,443.6094,157,447.6094,147,451.6094,151,447.6094" style="stroke:#181818;stroke-width:1.0;"/><line style="stroke:#181818;stroke-width:1.0;" x1="0" x2="153" y1="447.6094" y2="447.6094"/><text fill="#000000" font-family="sans-serif" font-size="13" font-weight="bold" lengthAdjust="spacing" textLength="14" x="7" y="442.8545">13</text><text fill="#000000" font-family="sans-serif" font-size="13" lengthAdjust="spacing" textLength="66" x="25" y="442.8545">confimation</text><polygon fill="#181818" points="259,472.1328,269,476.1328,259,480.1328,263,476.1328" style="stroke:#181818;stroke-width:1.0;"/><line style="stroke:#181818;stroke-width:1.0;" x1="169" x2="265" y1="476.1328" y2="476.1328"/><text fill="#000000" font-family="sans-serif" font-size="13" font-weight="bold" lengthAdjust="spacing" textLength="14" x="176" y="471.3779">14</text><text fill="#000000" font-family="sans-serif" font-size="13" lengthAdjust="spacing" textLength="51" x="194" y="471.3779">onClick()</text><polygon fill="#181818" points="560,500.6563,570,504.6563,560,508.6563,564,504.6563" style="stroke:#181818;stroke-width:1.0;"/><line style="stroke:#181818;stroke-width:1.0;" x1="281" x2="566" y1="504.6563" y2="504.6563"/><text fill="#000000" font-family="sans-serif" font-size="13" font-weight="bold" lengthAdjust="spacing" textLength="14" x="288" y="499.9014">15</text><text fill="#000000" font-family="sans-serif" font-size="13" lengthAdjust="spacing" textLength="254" x="306" y="499.9014">confirmation(actionId, selectedPatientEmail)</text><polygon fill="#181818" points="875,529.1797,885,533.1797,875,537.1797,879,533.1797" style="stroke:#181818;stroke-width:1.0;"/><line style="stroke:#181818;stroke-width:1.0;" x1="582" x2="881" y1="533.1797" y2="533.1797"/><text fill="#000000" font-family="sans-serif" font-size="13" font-weight="bold" lengthAdjust="spacing" textLength="14" x="589" y="528.4248">16</text><text fill="#000000" font-family="sans-serif" font-size="13" lengthAdjust="spacing" textLength="263" x="607" y="528.4248">confirmAction(actionId, selectedPatientEmail)</text><polygon fill="#181818" points="593,557.7031,583,561.7031,593,565.7031,589,561.7031" style="stroke:#181818;stroke-width:1.0;"/><line style="stroke:#181818;stroke-width:1.0;stroke-dasharray:2.0,2.0;" x1="587" x2="891" y1="561.7031" y2="561.7031"/><text fill="#000000" font-family="sans-serif" font-size="13" font-weight="bold" lengthAdjust="spacing" textLength="14" x="599" y="556.9482">17</text><text fill="#000000" font-family="sans-serif" font-size="13" lengthAdjust="spacing" textLength="49" x="617" y="556.9482">success</text><polygon fill="#181818" points="292,593.2266,282,597.2266,292,601.2266,288,597.2266" style="stroke:#181818;stroke-width:1.0;"/><line style="stroke:#181818;stroke-width:1.0;stroke-dasharray:2.0,2.0;" x1="286" x2="576" y1="597.2266" y2="597.2266"/><text fill="#000000" font-family="sans-serif" font-size="13" font-weight="bold" lengthAdjust="spacing" textLength="14" x="298" y="592.4717">18</text><text fill="#000000" font-family="sans-serif" font-size="13" lengthAdjust="spacing" textLength="49" x="316" y="592.4717">success</text><polygon fill="#181818" points="180,621.75,170,625.75,180,629.75,176,625.75" style="stroke:#181818;stroke-width:1.0;"/><line style="stroke:#181818;stroke-width:1.0;stroke-dasharray:2.0,2.0;" x1="174" x2="275" y1="625.75" y2="625.75"/><text fill="#000000" font-family="sans-serif" font-size="13" font-weight="bold" lengthAdjust="spacing" textLength="14" x="186" y="620.9951">19</text><text fill="#000000" font-family="sans-serif" font-size="13" lengthAdjust="spacing" textLength="49" x="204" y="620.9951">success</text><polygon fill="#181818" points="11,650.2734,1,654.2734,11,658.2734,7,654.2734" style="stroke:#181818;stroke-width:1.0;"/><line style="stroke:#181818;stroke-width:1.0;stroke-dasharray:2.0,2.0;" x1="5" x2="163" y1="654.2734" y2="654.2734"/><text fill="#000000" font-family="sans-serif" font-size="13" font-weight="bold" lengthAdjust="spacing" textLength="14" x="17" y="649.5186">20</text><text fill="#000000" font-family="sans-serif" font-size="13" lengthAdjust="spacing" textLength="49" x="35" y="649.5186">success</text><!--SRC=[ZPF1Ri8m44Jl-nKhJg0sFu1Gf8g2g5Iagg7jsJWBM2Hs53jK_Vkk3KuJ2eWSlM_6cvd4xfMkH2rAB8qsSbURaj3L3O5j9vMGUx6bpFqKX3L99_Isw09s9tBphVGMDwAm120QPtHJhga6OCGfgIgX7Gw-QFrK5KeAfumUeB0ud-5a8arP6KtQfMcVNwoMhm_JB0leOdKBRGU1dIvliHdL1oKfaDdi_VECvIT9_MPZRAfSE4AbDmRD1jzuSMP0IASEVZ2V0NYIULvlZ4PF-VNsmn5WoonMpF2K6LxBCn_1zMGsf5AeuZ5wFpip-lEVBe4rh0nhndtkKNe115MIHjqbmP6P90cxsqPAilPqbiI5s-ES-lOW2eUMj5LyIiXNYAvToIB-SCvsEZEF48GNZJd6qywD70Nu59CqDDFgEeXFsbzz5V1rnMgbqHjLXY-nt-V5EdjtGAVDO5CVVOQUClebV-HK2lvJA3z5FVF1ztlj5tkoUP9t-TnR4EaSkQF_WpRho-A_h8zPHUPQrgt7UTW0lm00]--></g></svg>