<?xml version="1.0" encoding="us-ascii" standalone="no"?><svg xmlns="http://www.w3.org/2000/svg" xmlns:xlink="http://www.w3.org/1999/xlink" contentStyleType="text/css" height="437px" preserveAspectRatio="none" style="width:658px;height:437px;background:#FFFFFF;" version="1.1" viewBox="0 0 658 437" width="658px" zoomAndPan="magnify"><defs/><g><rect fill="#FFFFFF" height="287.2344" style="stroke:#181818;stroke-width:1.0;" width="10" x="152" y="81.8047"/><rect fill="#FFFFFF" height="85.5703" style="stroke:#181818;stroke-width:1.0;" width="10" x="460" y="110.3281"/><rect fill="#FFFFFF" height="85.5703" style="stroke:#181818;stroke-width:1.0;" width="10" x="460" y="247.9453"/><rect fill="none" height="130.6172" style="stroke:#000000;stroke-width:1.5;" width="460" x="95" y="210.8984"/><line style="stroke:#181818;stroke-width:0.5;stroke-dasharray:5.0,5.0;" x1="157" x2="157" y1="51.2813" y2="387.0391"/><line style="stroke:#181818;stroke-width:0.5;stroke-dasharray:5.0,5.0;" x1="465" x2="465" y1="51.2813" y2="387.0391"/><rect fill="#E3E3E3" height="45.2813" rx="2.5" ry="2.5" style="stroke:#181818;stroke-width:0.5;" width="104" x="105" y="5"/><text fill="#000000" font-family="sans-serif" font-size="14" font-style="italic" lengthAdjust="spacing" textLength="86" x="114" y="24.6738">&#171;component&#187;</text><text fill="#000000" font-family="sans-serif" font-size="14" lengthAdjust="spacing" textLength="90" x="112" y="40.3145">WebAplication</text><rect fill="#E3E3E3" height="45.2813" rx="2.5" ry="2.5" style="stroke:#181818;stroke-width:0.5;" width="104" x="105" y="386.0391"/><text fill="#000000" font-family="sans-serif" font-size="14" font-style="italic" lengthAdjust="spacing" textLength="86" x="114" y="405.7129">&#171;component&#187;</text><text fill="#000000" font-family="sans-serif" font-size="14" lengthAdjust="spacing" textLength="90" x="112" y="421.3535">WebAplication</text><rect fill="#E3E3E3" height="45.2813" rx="2.5" ry="2.5" style="stroke:#181818;stroke-width:0.5;" width="100" x="415" y="5"/><text fill="#000000" font-family="sans-serif" font-size="14" font-style="italic" lengthAdjust="spacing" textLength="86" x="422" y="24.6738">&#171;component&#187;</text><text fill="#000000" font-family="sans-serif" font-size="14" lengthAdjust="spacing" textLength="47" x="441.5" y="40.3145">Service</text><rect fill="#E3E3E3" height="45.2813" rx="2.5" ry="2.5" style="stroke:#181818;stroke-width:0.5;" width="100" x="415" y="386.0391"/><text fill="#000000" font-family="sans-serif" font-size="14" font-style="italic" lengthAdjust="spacing" textLength="86" x="422" y="405.7129">&#171;component&#187;</text><text fill="#000000" font-family="sans-serif" font-size="14" lengthAdjust="spacing" textLength="47" x="441.5" y="421.3535">Service</text><rect fill="#FFFFFF" height="287.2344" style="stroke:#181818;stroke-width:1.0;" width="10" x="152" y="81.8047"/><rect fill="#FFFFFF" height="85.5703" style="stroke:#181818;stroke-width:1.0;" width="10" x="460" y="110.3281"/><rect fill="#FFFFFF" height="85.5703" style="stroke:#181818;stroke-width:1.0;" width="10" x="460" y="247.9453"/><polygon fill="#181818" points="140,77.8047,150,81.8047,140,85.8047,144,81.8047" style="stroke:#181818;stroke-width:1.0;"/><line style="stroke:#181818;stroke-width:1.0;" x1="0" x2="146" y1="81.8047" y2="81.8047"/><text fill="#000000" font-family="sans-serif" font-size="13" font-weight="bold" lengthAdjust="spacing" textLength="7" x="7" y="77.0498">1</text><text fill="#000000" font-family="sans-serif" font-size="13" lengthAdjust="spacing" textLength="122" x="18" y="77.0498">update info of Patient</text><polygon fill="#181818" points="448,106.3281,458,110.3281,448,114.3281,452,110.3281" style="stroke:#181818;stroke-width:1.0;"/><line style="stroke:#181818;stroke-width:1.0;" x1="162" x2="454" y1="110.3281" y2="110.3281"/><text fill="#000000" font-family="sans-serif" font-size="13" font-weight="bold" lengthAdjust="spacing" textLength="7" x="169" y="105.5732">2</text><text fill="#000000" font-family="sans-serif" font-size="13" lengthAdjust="spacing" textLength="188" x="180" y="105.5732">updatePatient(email, PatientDto)</text><polygon fill="#181818" points="640,134.8516,650,138.8516,640,142.8516,644,138.8516" style="stroke:#181818;stroke-width:1.0;"/><line style="stroke:#181818;stroke-width:1.0;" x1="470" x2="646" y1="138.8516" y2="138.8516"/><text fill="#000000" font-family="sans-serif" font-size="13" font-weight="bold" lengthAdjust="spacing" textLength="7" x="477" y="134.0967">3</text><text fill="#000000" font-family="sans-serif" font-size="13" lengthAdjust="spacing" textLength="147" x="488" y="134.0967">update(email, PatientDto)</text><polygon fill="#181818" points="481,163.375,471,167.375,481,171.375,477,167.375" style="stroke:#181818;stroke-width:1.0;"/><line style="stroke:#181818;stroke-width:1.0;stroke-dasharray:2.0,2.0;" x1="475" x2="651" y1="167.375" y2="167.375"/><text fill="#000000" font-family="sans-serif" font-size="13" font-weight="bold" lengthAdjust="spacing" textLength="7" x="487" y="162.6201">4</text><text fill="#000000" font-family="sans-serif" font-size="13" lengthAdjust="spacing" textLength="49" x="498" y="162.6201">success</text><polygon fill="#181818" points="173,191.8984,163,195.8984,173,199.8984,169,195.8984" style="stroke:#181818;stroke-width:1.0;"/><line style="stroke:#181818;stroke-width:1.0;stroke-dasharray:2.0,2.0;" x1="167" x2="464" y1="195.8984" y2="195.8984"/><text fill="#000000" font-family="sans-serif" font-size="13" font-weight="bold" lengthAdjust="spacing" textLength="7" x="179" y="191.1436">5</text><text fill="#000000" font-family="sans-serif" font-size="13" lengthAdjust="spacing" textLength="42" x="190" y="191.1436">sucess</text><path d="M95,210.8984 L156,210.8984 L156,217.4219 L146,227.4219 L95,227.4219 L95,210.8984 " fill="#EEEEEE" style="stroke:#000000;stroke-width:1.5;"/><rect fill="none" height="130.6172" style="stroke:#000000;stroke-width:1.5;" width="460" x="95" y="210.8984"/><text fill="#000000" font-family="sans-serif" font-size="13" font-weight="bold" lengthAdjust="spacing" textLength="16" x="110" y="223.667">alt</text><text fill="#000000" font-family="sans-serif" font-size="11" font-weight="bold" lengthAdjust="spacing" textLength="85" x="171" y="222.8564">[sensitive data]</text><polygon fill="#181818" points="481,243.9453,471,247.9453,481,251.9453,477,247.9453" style="stroke:#181818;stroke-width:1.0;"/><line style="stroke:#181818;stroke-width:1.0;stroke-dasharray:2.0,2.0;" x1="475" x2="651" y1="247.9453" y2="247.9453"/><text fill="#000000" font-family="sans-serif" font-size="13" font-weight="bold" lengthAdjust="spacing" textLength="7" x="487" y="243.1904">6</text><text fill="#000000" font-family="sans-serif" font-size="13" lengthAdjust="spacing" textLength="53" x="498" y="243.1904">message</text><polygon fill="#181818" points="173,272.4688,163,276.4688,173,280.4688,169,276.4688" style="stroke:#181818;stroke-width:1.0;"/><line style="stroke:#181818;stroke-width:1.0;stroke-dasharray:2.0,2.0;" x1="167" x2="459" y1="276.4688" y2="276.4688"/><text fill="#000000" font-family="sans-serif" font-size="13" font-weight="bold" lengthAdjust="spacing" textLength="7" x="179" y="271.7139">7</text><text fill="#000000" font-family="sans-serif" font-size="13" lengthAdjust="spacing" textLength="53" x="190" y="271.7139">message</text><polygon fill="#181818" points="448,300.9922,458,304.9922,448,308.9922,452,304.9922" style="stroke:#181818;stroke-width:1.0;"/><line style="stroke:#181818;stroke-width:1.0;" x1="162" x2="454" y1="304.9922" y2="304.9922"/><text fill="#000000" font-family="sans-serif" font-size="13" font-weight="bold" lengthAdjust="spacing" textLength="7" x="169" y="300.2373">8</text><text fill="#000000" font-family="sans-serif" font-size="13" lengthAdjust="spacing" textLength="263" x="180" y="300.2373">confirmAction(actionId, selectedPatientEmail)</text><polygon fill="#181818" points="173,329.5156,163,333.5156,173,337.5156,169,333.5156" style="stroke:#181818;stroke-width:1.0;"/><line style="stroke:#181818;stroke-width:1.0;stroke-dasharray:2.0,2.0;" x1="167" x2="464" y1="333.5156" y2="333.5156"/><text fill="#000000" font-family="sans-serif" font-size="13" font-weight="bold" lengthAdjust="spacing" textLength="7" x="179" y="328.7607">9</text><text fill="#000000" font-family="sans-serif" font-size="13" lengthAdjust="spacing" textLength="42" x="190" y="328.7607">sucess</text><polygon fill="#181818" points="11,365.0391,1,369.0391,11,373.0391,7,369.0391" style="stroke:#181818;stroke-width:1.0;"/><line style="stroke:#181818;stroke-width:1.0;stroke-dasharray:2.0,2.0;" x1="5" x2="156" y1="369.0391" y2="369.0391"/><text fill="#000000" font-family="sans-serif" font-size="13" font-weight="bold" lengthAdjust="spacing" textLength="14" x="17" y="364.2842">10</text><text fill="#000000" font-family="sans-serif" font-size="13" lengthAdjust="spacing" textLength="49" x="35" y="364.2842">success</text><!--SRC=[ZP71QiCm38RlVWhHKmlD2umGA2o5tSe2srbrbDJKbeFjTEpjfsJ9rgGxp9U0zFs_VaNnQhZ3W0wSPwylmJk257fIyQVJeRvYIrNwj0I1T49kxJqGBrZx3yCjD6WZAOLzyjoxCmMb14b6cmuvmUQTpeVE6et9UDu0HZYMaEVQkyupSIgA9LzHk1bD8rcLhsyhLbvM31PFq7Sr9WB3ZGVVm4ac2ADG9tCR6iTI2IVqQ3Fp4xObXyRkPzLpyhjVvI1GeoehPjrVWcycpp9nZxtM5EDKo-QGKXwhDItT5Te4aJWQgHB81BntSoAI0wmYhRmd2DHoJ-svCS4TzF37jpX-NkgzJBDoIQgd3SfXdzr_ynBN894V6qFUMVaWbHF8-m80]--></g></svg>