<svg xmlns="http://www.w3.org/2000/svg" xmlns:xlink="http://www.w3.org/1999/xlink" contentStyleType="text/css" height="540px" preserveAspectRatio="none" style="width:890px;height:540px;background:#FFFFFF;" version="1.1" viewBox="0 0 890 540" width="890px" zoomAndPan="magnify"><defs/><g><rect fill="#FFFFFF" height="375.4922" style="stroke:#181818;stroke-width:1.0;" width="10" x="207.9961" y="90.5332"/><rect fill="#FFFFFF" height="312.9102" style="stroke:#181818;stroke-width:1.0;" width="10" x="418.0259" y="121.8242"/><rect fill="#FFFFFF" height="31.291" style="stroke:#181818;stroke-width:1.0;" width="10" x="576.0303" y="372.1523"/><rect fill="#FFFFFF" height="31.291" style="stroke:#181818;stroke-width:1.0;" width="10" x="684.8711" y="153.1152"/><rect fill="#FFFFFF" height="93.873" style="stroke:#181818;stroke-width:1.0;" width="10" x="684.8711" y="246.9883"/><rect fill="#FFFFFF" height="31.291" style="stroke:#181818;stroke-width:1.0;" width="10" x="830.5146" y="278.2793"/><line style="stroke:#181818;stroke-width:0.5;stroke-dasharray:5.0,5.0;" x1="212.5757" x2="212.5757" y1="57.2422" y2="484.0254"/><line style="stroke:#181818;stroke-width:0.5;stroke-dasharray:5.0,5.0;" x1="422.6055" x2="422.6055" y1="57.2422" y2="484.0254"/><line style="stroke:#181818;stroke-width:0.5;stroke-dasharray:5.0,5.0;" x1="580.6099" x2="580.6099" y1="57.2422" y2="484.0254"/><line style="stroke:#181818;stroke-width:0.5;stroke-dasharray:5.0,5.0;" x1="689.4507" x2="689.4507" y1="57.2422" y2="484.0254"/><line style="stroke:#181818;stroke-width:0.5;stroke-dasharray:5.0,5.0;" x1="835.0942" x2="835.0942" y1="57.2422" y2="484.0254"/><rect fill="#E3E3E3" height="51.2422" rx="2.5" ry="2.5" style="stroke:#181818;stroke-width:0.5;" width="98.8408" x="163.5757" y="5"/><text fill="#000000" font-family="sans-serif" font-size="14" font-style="italic" lengthAdjust="spacing" textLength="84.8408" x="170.5757" y="27.1074">&#171;component&#187;</text><text fill="#000000" font-family="sans-serif" font-size="14" lengthAdjust="spacing" textLength="60.6895" x="182.6514" y="45.7285">Controller</text><rect fill="#E3E3E3" height="51.2422" rx="2.5" ry="2.5" style="stroke:#181818;stroke-width:0.5;" width="98.8408" x="163.5757" y="483.0254"/><text fill="#000000" font-family="sans-serif" font-size="14" font-style="italic" lengthAdjust="spacing" textLength="84.8408" x="170.5757" y="505.1328">&#171;component&#187;</text><text fill="#000000" font-family="sans-serif" font-size="14" lengthAdjust="spacing" textLength="60.6895" x="182.6514" y="523.7539">Controller</text><rect fill="#E3E3E3" height="51.2422" rx="2.5" ry="2.5" style="stroke:#181818;stroke-width:0.5;" width="98.8408" x="373.6055" y="5"/><text fill="#000000" font-family="sans-serif" font-size="14" font-style="italic" lengthAdjust="spacing" textLength="84.8408" x="380.6055" y="27.1074">&#171;component&#187;</text><text fill="#000000" font-family="sans-serif" font-size="14" lengthAdjust="spacing" textLength="46.6826" x="399.6846" y="45.7285">Service</text><rect fill="#E3E3E3" height="51.2422" rx="2.5" ry="2.5" style="stroke:#181818;stroke-width:0.5;" width="98.8408" x="373.6055" y="483.0254"/><text fill="#000000" font-family="sans-serif" font-size="14" font-style="italic" lengthAdjust="spacing" textLength="84.8408" x="380.6055" y="505.1328">&#171;component&#187;</text><text fill="#000000" font-family="sans-serif" font-size="14" lengthAdjust="spacing" textLength="46.6826" x="399.6846" y="523.7539">Service</text><rect fill="#E3E3E3" height="51.2422" rx="2.5" ry="2.5" style="stroke:#181818;stroke-width:0.5;" width="98.8408" x="531.6099" y="5"/><text fill="#000000" font-family="sans-serif" font-size="14" font-style="italic" lengthAdjust="spacing" textLength="84.8408" x="538.6099" y="27.1074">&#171;component&#187;</text><text fill="#000000" font-family="sans-serif" font-size="14" lengthAdjust="spacing" textLength="48.2412" x="556.9097" y="45.7285">Domain</text><rect fill="#E3E3E3" height="51.2422" rx="2.5" ry="2.5" style="stroke:#181818;stroke-width:0.5;" width="98.8408" x="531.6099" y="483.0254"/><text fill="#000000" font-family="sans-serif" font-size="14" font-style="italic" lengthAdjust="spacing" textLength="84.8408" x="538.6099" y="505.1328">&#171;component&#187;</text><text fill="#000000" font-family="sans-serif" font-size="14" lengthAdjust="spacing" textLength="48.2412" x="556.9097" y="523.7539">Domain</text><rect fill="#E3E3E3" height="51.2422" rx="2.5" ry="2.5" style="stroke:#181818;stroke-width:0.5;" width="98.8408" x="640.4507" y="5"/><text fill="#000000" font-family="sans-serif" font-size="14" font-style="italic" lengthAdjust="spacing" textLength="84.8408" x="647.4507" y="27.1074">&#171;component&#187;</text><text fill="#000000" font-family="sans-serif" font-size="14" lengthAdjust="spacing" textLength="66.917" x="656.4126" y="45.7285">Repository</text><rect fill="#E3E3E3" height="51.2422" rx="2.5" ry="2.5" style="stroke:#181818;stroke-width:0.5;" width="98.8408" x="640.4507" y="483.0254"/><text fill="#000000" font-family="sans-serif" font-size="14" font-style="italic" lengthAdjust="spacing" textLength="84.8408" x="647.4507" y="505.1328">&#171;component&#187;</text><text fill="#000000" font-family="sans-serif" font-size="14" lengthAdjust="spacing" textLength="66.917" x="656.4126" y="523.7539">Repository</text><rect fill="#E3E3E3" height="51.2422" rx="2.5" ry="2.5" style="stroke:#181818;stroke-width:0.5;" width="98.8408" x="786.0942" y="5"/><text fill="#000000" font-family="sans-serif" font-size="14" font-style="italic" lengthAdjust="spacing" textLength="84.8408" x="793.0942" y="27.1074">&#171;component&#187;</text><text fill="#000000" font-family="sans-serif" font-size="14" lengthAdjust="spacing" textLength="62.2344" x="804.3975" y="45.7285">MySql DB</text><rect fill="#E3E3E3" height="51.2422" rx="2.5" ry="2.5" style="stroke:#181818;stroke-width:0.5;" width="98.8408" x="786.0942" y="483.0254"/><text fill="#000000" font-family="sans-serif" font-size="14" font-style="italic" lengthAdjust="spacing" textLength="84.8408" x="793.0942" y="505.1328">&#171;component&#187;</text><text fill="#000000" font-family="sans-serif" font-size="14" lengthAdjust="spacing" textLength="62.2344" x="804.3975" y="523.7539">MySql DB</text><rect fill="#FFFFFF" height="375.4922" style="stroke:#181818;stroke-width:1.0;" width="10" x="207.9961" y="90.5332"/><rect fill="#FFFFFF" height="312.9102" style="stroke:#181818;stroke-width:1.0;" width="10" x="418.0259" y="121.8242"/><rect fill="#FFFFFF" height="31.291" style="stroke:#181818;stroke-width:1.0;" width="10" x="576.0303" y="372.1523"/><rect fill="#FFFFFF" height="31.291" style="stroke:#181818;stroke-width:1.0;" width="10" x="684.8711" y="153.1152"/><rect fill="#FFFFFF" height="93.873" style="stroke:#181818;stroke-width:1.0;" width="10" x="684.8711" y="246.9883"/><rect fill="#FFFFFF" height="31.291" style="stroke:#181818;stroke-width:1.0;" width="10" x="830.5146" y="278.2793"/><polygon fill="#181818" points="195.9961,86.5332,205.9961,90.5332,195.9961,94.5332,199.9961,90.5332" style="stroke:#181818;stroke-width:1.0;"/><line style="stroke:#181818;stroke-width:1.0;" x1="0" x2="201.9961" y1="90.5332" y2="90.5332"/><text fill="#000000" font-family="sans-serif" font-size="13" font-weight="bold" lengthAdjust="spacing" textLength="7.23" x="7" y="85.2705">1</text><text fill="#000000" font-family="sans-serif" font-size="13" lengthAdjust="spacing" textLength="177.7661" x="18.23" y="85.2705">Submit Patient Delete Request</text><polygon fill="#181818" points="406.0259,117.8242,416.0259,121.8242,406.0259,125.8242,410.0259,121.8242" style="stroke:#181818;stroke-width:1.0;"/><line style="stroke:#181818;stroke-width:1.0;" x1="217.9961" x2="412.0259" y1="121.8242" y2="121.8242"/><text fill="#000000" font-family="sans-serif" font-size="13" font-weight="bold" lengthAdjust="spacing" textLength="7.23" x="224.9961" y="116.5615">2</text><text fill="#000000" font-family="sans-serif" font-size="13" lengthAdjust="spacing" textLength="169.7998" x="236.2261" y="116.5615">Call DeactivateAsync method</text><polygon fill="#181818" points="672.8711,149.1152,682.8711,153.1152,672.8711,157.1152,676.8711,153.1152" style="stroke:#181818;stroke-width:1.0;"/><line style="stroke:#181818;stroke-width:1.0;" x1="428.0259" x2="678.8711" y1="153.1152" y2="153.1152"/><text fill="#000000" font-family="sans-serif" font-size="13" font-weight="bold" lengthAdjust="spacing" textLength="7.23" x="435.0259" y="147.8525">3</text><text fill="#000000" font-family="sans-serif" font-size="13" lengthAdjust="spacing" textLength="127.1943" x="446.2559" y="147.8525">Get Patient through Id</text><polygon fill="#181818" points="439.0259,180.4063,429.0259,184.4063,439.0259,188.4063,435.0259,184.4063" style="stroke:#181818;stroke-width:1.0;"/><line style="stroke:#181818;stroke-width:1.0;stroke-dasharray:2.0,2.0;" x1="433.0259" x2="688.8711" y1="184.4063" y2="184.4063"/><text fill="#000000" font-family="sans-serif" font-size="13" font-weight="bold" lengthAdjust="spacing" textLength="7.23" x="445.0259" y="179.1436">4</text><text fill="#000000" font-family="sans-serif" font-size="13" lengthAdjust="spacing" textLength="40.4727" x="456.2559" y="179.1436">Patient</text><polygon fill="#181818" points="569.0303,211.6973,579.0303,215.6973,569.0303,219.6973,573.0303,215.6973" style="stroke:#181818;stroke-width:1.0;"/><line style="stroke:#181818;stroke-width:1.0;" x1="428.0259" x2="575.0303" y1="215.6973" y2="215.6973"/><text fill="#000000" font-family="sans-serif" font-size="13" font-weight="bold" lengthAdjust="spacing" textLength="7.23" x="435.0259" y="210.4346">5</text><text fill="#000000" font-family="sans-serif" font-size="13" lengthAdjust="spacing" textLength="105.5044" x="446.2559" y="210.4346">Deactivate Patient</text><polygon fill="#181818" points="672.8711,242.9883,682.8711,246.9883,672.8711,250.9883,676.8711,246.9883" style="stroke:#181818;stroke-width:1.0;"/><line style="stroke:#181818;stroke-width:1.0;" x1="428.0259" x2="678.8711" y1="246.9883" y2="246.9883"/><text fill="#000000" font-family="sans-serif" font-size="13" font-weight="bold" lengthAdjust="spacing" textLength="7.23" x="435.0259" y="241.7256">6</text><text fill="#000000" font-family="sans-serif" font-size="13" lengthAdjust="spacing" textLength="92.4917" x="446.2559" y="241.7256">Remove Patient</text><polygon fill="#181818" points="818.5146,274.2793,828.5146,278.2793,818.5146,282.2793,822.5146,278.2793" style="stroke:#181818;stroke-width:1.0;"/><line style="stroke:#181818;stroke-width:1.0;" x1="694.8711" x2="824.5146" y1="278.2793" y2="278.2793"/><text fill="#000000" font-family="sans-serif" font-size="13" font-weight="bold" lengthAdjust="spacing" textLength="7.23" x="701.8711" y="273.0166">7</text><text fill="#000000" font-family="sans-serif" font-size="13" lengthAdjust="spacing" textLength="84.5317" x="713.1011" y="273.0166">Remove Entity</text><polygon fill="#181818" points="705.8711,305.5703,695.8711,309.5703,705.8711,313.5703,701.8711,309.5703" style="stroke:#181818;stroke-width:1.0;"/><line style="stroke:#181818;stroke-width:1.0;stroke-dasharray:2.0,2.0;" x1="699.8711" x2="834.5146" y1="309.5703" y2="309.5703"/><text fill="#000000" font-family="sans-serif" font-size="13" font-weight="bold" lengthAdjust="spacing" textLength="7.23" x="711.8711" y="304.3076">8</text><text fill="#000000" font-family="sans-serif" font-size="13" lengthAdjust="spacing" textLength="100.4136" x="723.1011" y="304.3076">Confirm Removal</text><polygon fill="#181818" points="439.0259,336.8613,429.0259,340.8613,439.0259,344.8613,435.0259,340.8613" style="stroke:#181818;stroke-width:1.0;"/><line style="stroke:#181818;stroke-width:1.0;stroke-dasharray:2.0,2.0;" x1="433.0259" x2="688.8711" y1="340.8613" y2="340.8613"/><text fill="#000000" font-family="sans-serif" font-size="13" font-weight="bold" lengthAdjust="spacing" textLength="7.23" x="445.0259" y="335.5986">9</text><text fill="#000000" font-family="sans-serif" font-size="13" lengthAdjust="spacing" textLength="91.7617" x="456.2559" y="335.5986">Return Success</text><polygon fill="#181818" points="564.0303,368.1523,574.0303,372.1523,564.0303,376.1523,568.0303,372.1523" style="stroke:#181818;stroke-width:1.0;"/><line style="stroke:#181818;stroke-width:1.0;" x1="428.0259" x2="570.0303" y1="372.1523" y2="372.1523"/><text fill="#000000" font-family="sans-serif" font-size="13" font-weight="bold" lengthAdjust="spacing" textLength="14.46" x="435.0259" y="366.8896">10</text><text fill="#000000" font-family="sans-serif" font-size="13" lengthAdjust="spacing" textLength="110.5444" x="453.4858" y="366.8896">Create PatientDTO</text><polygon fill="#181818" points="439.0259,399.4434,429.0259,403.4434,439.0259,407.4434,435.0259,403.4434" style="stroke:#181818;stroke-width:1.0;"/><line style="stroke:#181818;stroke-width:1.0;stroke-dasharray:2.0,2.0;" x1="433.0259" x2="580.0303" y1="403.4434" y2="403.4434"/><text fill="#000000" font-family="sans-serif" font-size="13" font-weight="bold" lengthAdjust="spacing" textLength="14.46" x="445.0259" y="398.1807">11</text><text fill="#000000" font-family="sans-serif" font-size="13" lengthAdjust="spacing" textLength="70.0718" x="463.4858" y="398.1807">Return DTO</text><polygon fill="#181818" points="228.9961,430.7344,218.9961,434.7344,228.9961,438.7344,224.9961,434.7344" style="stroke:#181818;stroke-width:1.0;"/><line style="stroke:#181818;stroke-width:1.0;stroke-dasharray:2.0,2.0;" x1="222.9961" x2="422.0259" y1="434.7344" y2="434.7344"/><text fill="#000000" font-family="sans-serif" font-size="13" font-weight="bold" lengthAdjust="spacing" textLength="14.46" x="234.9961" y="429.4717">12</text><text fill="#000000" font-family="sans-serif" font-size="13" lengthAdjust="spacing" textLength="70.0718" x="253.4561" y="429.4717">Return DTO</text><polygon fill="#181818" points="11,462.0254,1,466.0254,11,470.0254,7,466.0254" style="stroke:#181818;stroke-width:1.0;"/><line style="stroke:#181818;stroke-width:1.0;stroke-dasharray:2.0,2.0;" x1="5" x2="211.9961" y1="466.0254" y2="466.0254"/><text fill="#000000" font-family="sans-serif" font-size="13" font-weight="bold" lengthAdjust="spacing" textLength="14.46" x="17" y="460.7627">13</text><text fill="#000000" font-family="sans-serif" font-size="13" lengthAdjust="spacing" textLength="70.0718" x="35.46" y="460.7627">Return DTO</text><!--SRC=[XT9BRi8m403G_PnYn3uNG0Yf45HLAW8bg7jZfc3XJx0dLBbzRTEIq1QwzRpvsGv7PHlXXK7Zh9C7xmmX-vOWN2EDa4UnfvexJUX9ih1xFGJX87RkGzazlWiT242qx6nhjkG18c4bLICiusZkB7kdDVaHYe3pJVMAaubqfd6MB4-djxmcVrQIigqNrTiZMpeZbCsqN2qVoOeQ5nGxtsLTBTQhHtpPrIUDvIpZMLd-i51CynvZhDkjKOnhmIg6i2HDJ5ZHgQN082IhiuW72GFarMDgMckCSw5Z2_esJw6p4WtnmUtwn4G1yZt4n3Js69-fRyZnzThz0Ly6EKa1v1MBQxUl1DZH3_TTErtWU33FDUEsVJGL6NVkut_sdUPRkzg5PSLTJsCG88cYBnl_oRlovf8Yz73Ip6yMogMvzJQ-W9GKmd-BpJqDbYetgtwO202I-bqykK7XB2zrltx0NNfvk4bHNDXTbt_69m00]--></g></svg>