<svg xmlns="http://www.w3.org/2000/svg" xmlns:xlink="http://www.w3.org/1999/xlink" contentStyleType="text/css" height="472px" preserveAspectRatio="none" style="width:932px;height:472px;background:#FFFFFF;" version="1.1" viewBox="0 0 932 472" width="932px" zoomAndPan="magnify"><defs/><g><rect fill="#FFFFFF" height="307.6191" style="stroke:#181818;stroke-width:1.0;" width="10" x="191.3716" y="90.5332"/><rect fill="#FFFFFF" height="245.0371" style="stroke:#181818;stroke-width:1.0;" width="10" x="418.7305" y="121.8242"/><rect fill="#FFFFFF" height="42.291" style="stroke:#181818;stroke-width:1.0;" width="10" x="423.7305" y="223.6973"/><rect fill="#FFFFFF" height="31.291" style="stroke:#181818;stroke-width:1.0;" width="10" x="654.7603" y="304.2793"/><rect fill="#FFFFFF" height="31.291" style="stroke:#181818;stroke-width:1.0;" width="10" x="763.6011" y="153.1152"/><line style="stroke:#181818;stroke-width:0.5;stroke-dasharray:5.0,5.0;" x1="195.9512" x2="195.9512" y1="57.2422" y2="416.1523"/><line style="stroke:#181818;stroke-width:0.5;stroke-dasharray:5.0,5.0;" x1="423.3101" x2="423.3101" y1="57.2422" y2="416.1523"/><line style="stroke:#181818;stroke-width:0.5;stroke-dasharray:5.0,5.0;" x1="659.3398" x2="659.3398" y1="57.2422" y2="416.1523"/><line style="stroke:#181818;stroke-width:0.5;stroke-dasharray:5.0,5.0;" x1="768.1807" x2="768.1807" y1="57.2422" y2="416.1523"/><line style="stroke:#181818;stroke-width:0.5;stroke-dasharray:5.0,5.0;" x1="877.0215" x2="877.0215" y1="57.2422" y2="416.1523"/><rect fill="#E3E3E3" height="51.2422" rx="2.5" ry="2.5" style="stroke:#181818;stroke-width:0.5;" width="98.8408" x="146.9512" y="5"/><text fill="#000000" font-family="sans-serif" font-size="14" font-style="italic" lengthAdjust="spacing" textLength="84.8408" x="153.9512" y="27.1074">&#171;component&#187;</text><text fill="#000000" font-family="sans-serif" font-size="14" lengthAdjust="spacing" textLength="60.6895" x="166.0269" y="45.7285">Controller</text><rect fill="#E3E3E3" height="51.2422" rx="2.5" ry="2.5" style="stroke:#181818;stroke-width:0.5;" width="98.8408" x="146.9512" y="415.1523"/><text fill="#000000" font-family="sans-serif" font-size="14" font-style="italic" lengthAdjust="spacing" textLength="84.8408" x="153.9512" y="437.2598">&#171;component&#187;</text><text fill="#000000" font-family="sans-serif" font-size="14" lengthAdjust="spacing" textLength="60.6895" x="166.0269" y="455.8809">Controller</text><rect fill="#E3E3E3" height="51.2422" rx="2.5" ry="2.5" style="stroke:#181818;stroke-width:0.5;" width="98.8408" x="374.3101" y="5"/><text fill="#000000" font-family="sans-serif" font-size="14" font-style="italic" lengthAdjust="spacing" textLength="84.8408" x="381.3101" y="27.1074">&#171;component&#187;</text><text fill="#000000" font-family="sans-serif" font-size="14" lengthAdjust="spacing" textLength="46.6826" x="400.3892" y="45.7285">Service</text><rect fill="#E3E3E3" height="51.2422" rx="2.5" ry="2.5" style="stroke:#181818;stroke-width:0.5;" width="98.8408" x="374.3101" y="415.1523"/><text fill="#000000" font-family="sans-serif" font-size="14" font-style="italic" lengthAdjust="spacing" textLength="84.8408" x="381.3101" y="437.2598">&#171;component&#187;</text><text fill="#000000" font-family="sans-serif" font-size="14" lengthAdjust="spacing" textLength="46.6826" x="400.3892" y="455.8809">Service</text><rect fill="#E3E3E3" height="51.2422" rx="2.5" ry="2.5" style="stroke:#181818;stroke-width:0.5;" width="98.8408" x="610.3398" y="5"/><text fill="#000000" font-family="sans-serif" font-size="14" font-style="italic" lengthAdjust="spacing" textLength="84.8408" x="617.3398" y="27.1074">&#171;component&#187;</text><text fill="#000000" font-family="sans-serif" font-size="14" lengthAdjust="spacing" textLength="48.2412" x="635.6396" y="45.7285">Domain</text><rect fill="#E3E3E3" height="51.2422" rx="2.5" ry="2.5" style="stroke:#181818;stroke-width:0.5;" width="98.8408" x="610.3398" y="415.1523"/><text fill="#000000" font-family="sans-serif" font-size="14" font-style="italic" lengthAdjust="spacing" textLength="84.8408" x="617.3398" y="437.2598">&#171;component&#187;</text><text fill="#000000" font-family="sans-serif" font-size="14" lengthAdjust="spacing" textLength="48.2412" x="635.6396" y="455.8809">Domain</text><rect fill="#E3E3E3" height="51.2422" rx="2.5" ry="2.5" style="stroke:#181818;stroke-width:0.5;" width="98.8408" x="719.1807" y="5"/><text fill="#000000" font-family="sans-serif" font-size="14" font-style="italic" lengthAdjust="spacing" textLength="84.8408" x="726.1807" y="27.1074">&#171;component&#187;</text><text fill="#000000" font-family="sans-serif" font-size="14" lengthAdjust="spacing" textLength="66.917" x="735.1426" y="45.7285">Repository</text><rect fill="#E3E3E3" height="51.2422" rx="2.5" ry="2.5" style="stroke:#181818;stroke-width:0.5;" width="98.8408" x="719.1807" y="415.1523"/><text fill="#000000" font-family="sans-serif" font-size="14" font-style="italic" lengthAdjust="spacing" textLength="84.8408" x="726.1807" y="437.2598">&#171;component&#187;</text><text fill="#000000" font-family="sans-serif" font-size="14" lengthAdjust="spacing" textLength="66.917" x="735.1426" y="455.8809">Repository</text><rect fill="#E3E3E3" height="51.2422" rx="2.5" ry="2.5" style="stroke:#181818;stroke-width:0.5;" width="98.8408" x="828.0215" y="5"/><text fill="#000000" font-family="sans-serif" font-size="14" font-style="italic" lengthAdjust="spacing" textLength="84.8408" x="835.0215" y="27.1074">&#171;component&#187;</text><text fill="#000000" font-family="sans-serif" font-size="14" lengthAdjust="spacing" textLength="62.2344" x="846.3247" y="45.7285">MySql DB</text><rect fill="#E3E3E3" height="51.2422" rx="2.5" ry="2.5" style="stroke:#181818;stroke-width:0.5;" width="98.8408" x="828.0215" y="415.1523"/><text fill="#000000" font-family="sans-serif" font-size="14" font-style="italic" lengthAdjust="spacing" textLength="84.8408" x="835.0215" y="437.2598">&#171;component&#187;</text><text fill="#000000" font-family="sans-serif" font-size="14" lengthAdjust="spacing" textLength="62.2344" x="846.3247" y="455.8809">MySql DB</text><rect fill="#FFFFFF" height="307.6191" style="stroke:#181818;stroke-width:1.0;" width="10" x="191.3716" y="90.5332"/><rect fill="#FFFFFF" height="245.0371" style="stroke:#181818;stroke-width:1.0;" width="10" x="418.7305" y="121.8242"/><rect fill="#FFFFFF" height="42.291" style="stroke:#181818;stroke-width:1.0;" width="10" x="423.7305" y="223.6973"/><rect fill="#FFFFFF" height="31.291" style="stroke:#181818;stroke-width:1.0;" width="10" x="654.7603" y="304.2793"/><rect fill="#FFFFFF" height="31.291" style="stroke:#181818;stroke-width:1.0;" width="10" x="763.6011" y="153.1152"/><polygon fill="#181818" points="179.3716,86.5332,189.3716,90.5332,179.3716,94.5332,183.3716,90.5332" style="stroke:#181818;stroke-width:1.0;"/><line style="stroke:#181818;stroke-width:1.0;" x1="0" x2="185.3716" y1="90.5332" y2="90.5332"/><text fill="#000000" font-family="sans-serif" font-size="13" font-weight="bold" lengthAdjust="spacing" textLength="7.23" x="7" y="85.2705">1</text><text fill="#000000" font-family="sans-serif" font-size="13" lengthAdjust="spacing" textLength="161.1416" x="18.23" y="85.2705">Submit Patient Get Request</text><polygon fill="#181818" points="406.7305,117.8242,416.7305,121.8242,406.7305,125.8242,410.7305,121.8242" style="stroke:#181818;stroke-width:1.0;"/><line style="stroke:#181818;stroke-width:1.0;" x1="201.3716" x2="412.7305" y1="121.8242" y2="121.8242"/><text fill="#000000" font-family="sans-serif" font-size="13" font-weight="bold" lengthAdjust="spacing" textLength="7.23" x="208.3716" y="116.5615">2</text><text fill="#000000" font-family="sans-serif" font-size="13" lengthAdjust="spacing" textLength="187.1289" x="219.6016" y="116.5615">Call GetAllFilteredAsync method</text><polygon fill="#181818" points="751.6011,149.1152,761.6011,153.1152,751.6011,157.1152,755.6011,153.1152" style="stroke:#181818;stroke-width:1.0;"/><line style="stroke:#181818;stroke-width:1.0;" x1="428.7305" x2="757.6011" y1="153.1152" y2="153.1152"/><text fill="#000000" font-family="sans-serif" font-size="13" font-weight="bold" lengthAdjust="spacing" textLength="7.23" x="435.7305" y="147.8525">3</text><text fill="#000000" font-family="sans-serif" font-size="13" lengthAdjust="spacing" textLength="89.5972" x="446.9604" y="147.8525">Get All Patients</text><polygon fill="#181818" points="439.7305,180.4063,429.7305,184.4063,439.7305,188.4063,435.7305,184.4063" style="stroke:#181818;stroke-width:1.0;"/><line style="stroke:#181818;stroke-width:1.0;stroke-dasharray:2.0,2.0;" x1="433.7305" x2="767.6011" y1="184.4063" y2="184.4063"/><text fill="#000000" font-family="sans-serif" font-size="13" font-weight="bold" lengthAdjust="spacing" textLength="7.23" x="445.7305" y="179.1436">4</text><text fill="#000000" font-family="sans-serif" font-size="13" lengthAdjust="spacing" textLength="64.3145" x="456.9604" y="179.1436">Patient List</text><line style="stroke:#181818;stroke-width:1.0;" x1="428.7305" x2="475.7305" y1="210.6973" y2="210.6973"/><line style="stroke:#181818;stroke-width:1.0;" x1="475.7305" x2="475.7305" y1="210.6973" y2="223.6973"/><line style="stroke:#181818;stroke-width:1.0;" x1="434.7305" x2="475.7305" y1="223.6973" y2="223.6973"/><polygon fill="#181818" points="444.7305,219.6973,434.7305,223.6973,444.7305,227.6973,440.7305,223.6973" style="stroke:#181818;stroke-width:1.0;"/><text fill="#000000" font-family="sans-serif" font-size="13" font-weight="bold" lengthAdjust="spacing" textLength="7.23" x="440.7305" y="205.4346">5</text><text fill="#000000" font-family="sans-serif" font-size="13" lengthAdjust="spacing" textLength="52.73" x="451.9604" y="205.4346">Filter List</text><line style="stroke:#181818;stroke-width:1.0;stroke-dasharray:2.0,2.0;" x1="433.7305" x2="475.7305" y1="264.9883" y2="264.9883"/><line style="stroke:#181818;stroke-width:1.0;stroke-dasharray:2.0,2.0;" x1="475.7305" x2="475.7305" y1="264.9883" y2="277.9883"/><line style="stroke:#181818;stroke-width:1.0;stroke-dasharray:2.0,2.0;" x1="428.7305" x2="475.7305" y1="277.9883" y2="277.9883"/><polygon fill="#181818" points="438.7305,273.9883,428.7305,277.9883,438.7305,281.9883,434.7305,277.9883" style="stroke:#181818;stroke-width:1.0;"/><text fill="#000000" font-family="sans-serif" font-size="13" font-weight="bold" lengthAdjust="spacing" textLength="7.23" x="440.7305" y="259.7256">6</text><text fill="#000000" font-family="sans-serif" font-size="13" lengthAdjust="spacing" textLength="67.1899" x="451.9604" y="259.7256">Filtered List</text><polygon fill="#181818" points="642.7603,300.2793,652.7603,304.2793,642.7603,308.2793,646.7603,304.2793" style="stroke:#181818;stroke-width:1.0;"/><line style="stroke:#181818;stroke-width:1.0;" x1="428.7305" x2="648.7603" y1="304.2793" y2="304.2793"/><text fill="#000000" font-family="sans-serif" font-size="13" font-weight="bold" lengthAdjust="spacing" textLength="7.23" x="435.7305" y="299.0166">7</text><text fill="#000000" font-family="sans-serif" font-size="13" lengthAdjust="spacing" textLength="195.7998" x="446.9604" y="299.0166">Converts List into PatientDTO List</text><polygon fill="#181818" points="439.7305,331.5703,429.7305,335.5703,439.7305,339.5703,435.7305,335.5703" style="stroke:#181818;stroke-width:1.0;"/><line style="stroke:#181818;stroke-width:1.0;stroke-dasharray:2.0,2.0;" x1="433.7305" x2="658.7603" y1="335.5703" y2="335.5703"/><text fill="#000000" font-family="sans-serif" font-size="13" font-weight="bold" lengthAdjust="spacing" textLength="7.23" x="445.7305" y="330.3076">8</text><text fill="#000000" font-family="sans-serif" font-size="13" lengthAdjust="spacing" textLength="93.9136" x="456.9604" y="330.3076">Return DTO List</text><polygon fill="#181818" points="212.3716,362.8613,202.3716,366.8613,212.3716,370.8613,208.3716,366.8613" style="stroke:#181818;stroke-width:1.0;"/><line style="stroke:#181818;stroke-width:1.0;stroke-dasharray:2.0,2.0;" x1="206.3716" x2="422.7305" y1="366.8613" y2="366.8613"/><text fill="#000000" font-family="sans-serif" font-size="13" font-weight="bold" lengthAdjust="spacing" textLength="7.23" x="218.3716" y="361.5986">9</text><text fill="#000000" font-family="sans-serif" font-size="13" lengthAdjust="spacing" textLength="93.9136" x="229.6016" y="361.5986">Return DTO List</text><polygon fill="#181818" points="11,394.1523,1,398.1523,11,402.1523,7,398.1523" style="stroke:#181818;stroke-width:1.0;"/><line style="stroke:#181818;stroke-width:1.0;stroke-dasharray:2.0,2.0;" x1="5" x2="195.3716" y1="398.1523" y2="398.1523"/><text fill="#000000" font-family="sans-serif" font-size="13" font-weight="bold" lengthAdjust="spacing" textLength="14.46" x="17" y="392.8896">10</text><text fill="#000000" font-family="sans-serif" font-size="13" lengthAdjust="spacing" textLength="93.9136" x="35.46" y="392.8896">Return DTO List</text><!--SRC=[VT5DRi8m40NWlKynOfyB88G4X7O30YMeU-DCmS8_mPvGvVQr7IL0McNjxtdUsFucJSqTrw2jiUBgh4OWro3pmqdDnOrViAHM8JWKnCr5lG9_vPNzaUO2trnvP8mtP4sZp-WO2uIaa3Kt1BEDDUIiKkXcm3riJiKE5WjXTMqD6bekttc9xY459bjkYwyfcrlDfKaqF-odP86rzPAiQvCkjiV35D-tvLr1lavudUSZox9bscCEPNFMak38IOOZ-4I20kyDUc9Sa7nmmYGPItk7NDnf3XkkLDGhfJwa8dHOhNnh16YagwsUuSWPImyHmh7tF4q9mNwgV-fupbZQBXjczULsChIgS8JxgplRbUdelnr64gi_rxutZlyIrhNcWOvymY0DsRvLVZgCfeK4Op7Mpmhv0gbn1WRyCYxneLjwvKdVrLjaMMUdSVgwNm00]--></g></svg>