<?xml version="1.0" encoding="us-ascii" standalone="no"?><svg xmlns="http://www.w3.org/2000/svg" xmlns:xlink="http://www.w3.org/1999/xlink" contentStyleType="text/css" height="391px" preserveAspectRatio="none" style="width:1360px;height:391px;background:#FFFFFF;" version="1.1" viewBox="0 0 1360 391" width="1360px" zoomAndPan="magnify"><defs/><g><rect fill="#FFFFFF" height="250.1875" style="stroke:#181818;stroke-width:1.0;" width="10" x="280" y="81.8047"/><rect fill="#FFFFFF" height="28.5234" style="stroke:#181818;stroke-width:1.0;" width="10" x="918" y="110.3281"/><rect fill="#FFFFFF" height="127.0938" style="stroke:#181818;stroke-width:1.0;" width="10" x="1081" y="167.375"/><rect fill="#FFFFFF" height="28.5234" style="stroke:#181818;stroke-width:1.0;" width="10" x="1261" y="195.8984"/><line style="stroke:#181818;stroke-width:0.5;stroke-dasharray:5.0,5.0;" x1="285" x2="285" y1="51.2813" y2="340.9922"/><line style="stroke:#181818;stroke-width:0.5;stroke-dasharray:5.0,5.0;" x1="922.5" x2="922.5" y1="51.2813" y2="340.9922"/><line style="stroke:#181818;stroke-width:0.5;stroke-dasharray:5.0,5.0;" x1="1085.5" x2="1085.5" y1="51.2813" y2="340.9922"/><line style="stroke:#181818;stroke-width:0.5;stroke-dasharray:5.0,5.0;" x1="1265.5" x2="1265.5" y1="51.2813" y2="340.9922"/><rect fill="#E3E3E3" height="45.2813" rx="2.5" ry="2.5" style="stroke:#181818;stroke-width:0.5;" width="178" x="196" y="5"/><text fill="#000000" font-family="sans-serif" font-size="14" font-style="italic" lengthAdjust="spacing" textLength="86" x="242" y="24.6738">&#171;component&#187;</text><text fill="#000000" font-family="sans-serif" font-size="14" lengthAdjust="spacing" textLength="164" x="203" y="40.3145">OperationTypesController</text><rect fill="#E3E3E3" height="45.2813" rx="2.5" ry="2.5" style="stroke:#181818;stroke-width:0.5;" width="178" x="196" y="339.9922"/><text fill="#000000" font-family="sans-serif" font-size="14" font-style="italic" lengthAdjust="spacing" textLength="86" x="242" y="359.666">&#171;component&#187;</text><text fill="#000000" font-family="sans-serif" font-size="14" lengthAdjust="spacing" textLength="164" x="203" y="375.3066">OperationTypesController</text><rect fill="#E3E3E3" height="45.2813" rx="2.5" ry="2.5" style="stroke:#181818;stroke-width:0.5;" width="143" x="851.5" y="5"/><text fill="#000000" font-family="sans-serif" font-size="14" font-style="italic" lengthAdjust="spacing" textLength="86" x="880" y="24.6738">&#171;component&#187;</text><text fill="#000000" font-family="sans-serif" font-size="14" lengthAdjust="spacing" textLength="129" x="858.5" y="40.3145">AuthorizationService</text><rect fill="#E3E3E3" height="45.2813" rx="2.5" ry="2.5" style="stroke:#181818;stroke-width:0.5;" width="143" x="851.5" y="339.9922"/><text fill="#000000" font-family="sans-serif" font-size="14" font-style="italic" lengthAdjust="spacing" textLength="86" x="880" y="359.666">&#171;component&#187;</text><text fill="#000000" font-family="sans-serif" font-size="14" lengthAdjust="spacing" textLength="129" x="858.5" y="375.3066">AuthorizationService</text><rect fill="#E3E3E3" height="45.2813" rx="2.5" ry="2.5" style="stroke:#181818;stroke-width:0.5;" width="163" x="1004.5" y="5"/><text fill="#000000" font-family="sans-serif" font-size="14" font-style="italic" lengthAdjust="spacing" textLength="86" x="1043" y="24.6738">&#171;component&#187;</text><text fill="#000000" font-family="sans-serif" font-size="14" lengthAdjust="spacing" textLength="149" x="1011.5" y="40.3145">OperationTypesService</text><rect fill="#E3E3E3" height="45.2813" rx="2.5" ry="2.5" style="stroke:#181818;stroke-width:0.5;" width="163" x="1004.5" y="339.9922"/><text fill="#000000" font-family="sans-serif" font-size="14" font-style="italic" lengthAdjust="spacing" textLength="86" x="1043" y="359.666">&#171;component&#187;</text><text fill="#000000" font-family="sans-serif" font-size="14" lengthAdjust="spacing" textLength="149" x="1011.5" y="375.3066">OperationTypesService</text><rect fill="#E3E3E3" height="45.2813" rx="2.5" ry="2.5" style="stroke:#181818;stroke-width:0.5;" width="177" x="1177.5" y="5"/><text fill="#000000" font-family="sans-serif" font-size="14" font-style="italic" lengthAdjust="spacing" textLength="86" x="1223" y="24.6738">&#171;component&#187;</text><text fill="#000000" font-family="sans-serif" font-size="14" lengthAdjust="spacing" textLength="163" x="1184.5" y="40.3145">OperationTypeRepository</text><rect fill="#E3E3E3" height="45.2813" rx="2.5" ry="2.5" style="stroke:#181818;stroke-width:0.5;" width="177" x="1177.5" y="339.9922"/><text fill="#000000" font-family="sans-serif" font-size="14" font-style="italic" lengthAdjust="spacing" textLength="86" x="1223" y="359.666">&#171;component&#187;</text><text fill="#000000" font-family="sans-serif" font-size="14" lengthAdjust="spacing" textLength="163" x="1184.5" y="375.3066">OperationTypeRepository</text><rect fill="#FFFFFF" height="250.1875" style="stroke:#181818;stroke-width:1.0;" width="10" x="280" y="81.8047"/><rect fill="#FFFFFF" height="28.5234" style="stroke:#181818;stroke-width:1.0;" width="10" x="918" y="110.3281"/><rect fill="#FFFFFF" height="127.0938" style="stroke:#181818;stroke-width:1.0;" width="10" x="1081" y="167.375"/><rect fill="#FFFFFF" height="28.5234" style="stroke:#181818;stroke-width:1.0;" width="10" x="1261" y="195.8984"/><polygon fill="#181818" points="268,77.8047,278,81.8047,268,85.8047,272,81.8047" style="stroke:#181818;stroke-width:1.0;"/><line style="stroke:#181818;stroke-width:1.0;" x1="0" x2="274" y1="81.8047" y2="81.8047"/><text fill="#000000" font-family="sans-serif" font-size="13" font-weight="bold" lengthAdjust="spacing" textLength="7" x="7" y="77.0498">1</text><text fill="#000000" font-family="sans-serif" font-size="13" lengthAdjust="spacing" textLength="250" x="18" y="77.0498">GetAllFiltered(name, specialization, status)</text><polygon fill="#181818" points="906,106.3281,916,110.3281,906,114.3281,910,110.3281" style="stroke:#181818;stroke-width:1.0;"/><line style="stroke:#181818;stroke-width:1.0;" x1="290" x2="912" y1="110.3281" y2="110.3281"/><text fill="#000000" font-family="sans-serif" font-size="13" font-weight="bold" lengthAdjust="spacing" textLength="7" x="297" y="105.5732">2</text><text fill="#000000" font-family="sans-serif" font-size="13" lengthAdjust="spacing" textLength="598" x="308" y="105.5732">ValidateUserRole(Request.Headers["Authorization"].ToString(), new List&lt;string&gt; { Role.ADMIN }).Result</text><polygon fill="#181818" points="301,134.8516,291,138.8516,301,142.8516,297,138.8516" style="stroke:#181818;stroke-width:1.0;"/><line style="stroke:#181818;stroke-width:1.0;" x1="295" x2="922" y1="138.8516" y2="138.8516"/><text fill="#000000" font-family="sans-serif" font-size="13" font-weight="bold" lengthAdjust="spacing" textLength="7" x="307" y="134.0967">3</text><text fill="#000000" font-family="sans-serif" font-size="13" lengthAdjust="spacing" textLength="22" x="318" y="134.0967">true</text><polygon fill="#181818" points="1069,163.375,1079,167.375,1069,171.375,1073,167.375" style="stroke:#181818;stroke-width:1.0;"/><line style="stroke:#181818;stroke-width:1.0;" x1="290" x2="1075" y1="167.375" y2="167.375"/><text fill="#000000" font-family="sans-serif" font-size="13" font-weight="bold" lengthAdjust="spacing" textLength="7" x="297" y="162.6201">4</text><text fill="#000000" font-family="sans-serif" font-size="13" lengthAdjust="spacing" textLength="287" x="308" y="162.6201">GetAllFilteredAsync(name, specialization, status)</text><polygon fill="#181818" points="1249,191.8984,1259,195.8984,1249,199.8984,1253,195.8984" style="stroke:#181818;stroke-width:1.0;"/><line style="stroke:#181818;stroke-width:1.0;" x1="1091" x2="1255" y1="195.8984" y2="195.8984"/><text fill="#000000" font-family="sans-serif" font-size="13" font-weight="bold" lengthAdjust="spacing" textLength="7" x="1098" y="191.1436">5</text><text fill="#000000" font-family="sans-serif" font-size="13" lengthAdjust="spacing" textLength="85" x="1109" y="191.1436">GetAllAsync();</text><polygon fill="#181818" points="1102,220.4219,1092,224.4219,1102,228.4219,1098,224.4219" style="stroke:#181818;stroke-width:1.0;"/><line style="stroke:#181818;stroke-width:1.0;stroke-dasharray:2.0,2.0;" x1="1096" x2="1265" y1="224.4219" y2="224.4219"/><text fill="#000000" font-family="sans-serif" font-size="13" font-weight="bold" lengthAdjust="spacing" textLength="7" x="1108" y="219.667">6</text><text fill="#000000" font-family="sans-serif" font-size="13" lengthAdjust="spacing" textLength="88" x="1119" y="219.667">operationTypes</text><line style="stroke:#181818;stroke-width:1.0;" x1="1091" x2="1133" y1="257.9453" y2="257.9453"/><line style="stroke:#181818;stroke-width:1.0;" x1="1133" x2="1133" y1="257.9453" y2="270.9453"/><line style="stroke:#181818;stroke-width:1.0;" x1="1086" x2="1133" y1="270.9453" y2="270.9453"/><polygon fill="#181818" points="1096,266.9453,1086,270.9453,1096,274.9453,1092,270.9453" style="stroke:#181818;stroke-width:1.0;"/><text fill="#000000" font-family="sans-serif" font-size="13" font-weight="bold" lengthAdjust="spacing" textLength="7" x="1098" y="253.1904">7</text><text fill="#000000" font-family="sans-serif" font-size="13" lengthAdjust="spacing" textLength="102" x="1109" y="253.1904">filter by each filter</text><polygon fill="#181818" points="301,290.4688,291,294.4688,301,298.4688,297,294.4688" style="stroke:#181818;stroke-width:1.0;"/><line style="stroke:#181818;stroke-width:1.0;" x1="295" x2="1085" y1="294.4688" y2="294.4688"/><text fill="#000000" font-family="sans-serif" font-size="13" font-weight="bold" lengthAdjust="spacing" textLength="7" x="307" y="289.7139">8</text><text fill="#000000" font-family="sans-serif" font-size="13" lengthAdjust="spacing" textLength="88" x="318" y="289.7139">operationTypes</text><polygon fill="#181818" points="11,318.9922,1,322.9922,11,326.9922,7,322.9922" style="stroke:#181818;stroke-width:1.0;"/><line style="stroke:#181818;stroke-width:1.0;stroke-dasharray:2.0,2.0;" x1="5" x2="279" y1="322.9922" y2="322.9922"/><text fill="#000000" font-family="sans-serif" font-size="13" font-weight="bold" lengthAdjust="spacing" textLength="7" x="17" y="318.2373">9</text><text fill="#000000" font-family="sans-serif" font-size="13" lengthAdjust="spacing" textLength="88" x="28" y="318.2373">operationTypes</text><!--SRC=[bLBBJiCm4BpxArOzjHBj1uIgKWJb8V5IMhWW3ekpRQqwTh0tL07nxwHEGviM4EHYsJipExCRlrGcHuSPPDPOkN0s8s1NaF1VbHpb4kSquL8JE9ACPgvt0Nw1gLqfCuSPQaz2OC7M5DapEI4g22kfSZGCdTkS7BAoPbhcv4-iOMUr9jS1z70oJQvWE9GsowqXmwDHcnmNlB1ElGM12RbN9IaGuyauUVYDsMwxI_qNCw7SUiNMbO6RZEzkzxZr1_rH21F1EN6izPdIJ8xIhi6CZi3d91NgJP3gpiY5xmcKh5wHAN15c4Ob5C95y50HqgfuxyabLbCtePU2F0yk25Do_h4zdixJO6edxAgbT7j7O6W5Lyhpq8Ud4Rp3McGGdrvVti17Rv2GBpHlBOIkeXxi9Wr4zO-HqXwgSLeRRKUEVMdaNtC7jQRbUhgDMgtIEzv2rrKH5j3_wcnRMzxr6T2DS3WZc0M7y5n2XLiqrsfxt_6s8_YvIN1_y33izslg8LU8Jm00]--></g></svg>