<?xml version="1.0" encoding="us-ascii" standalone="no"?><svg xmlns="http://www.w3.org/2000/svg" xmlns:xlink="http://www.w3.org/1999/xlink" contentStyleType="text/css" height="432px" preserveAspectRatio="none" style="width:1039px;height:432px;background:#FFFFFF;" version="1.1" viewBox="0 0 1039 432" width="1039px" zoomAndPan="magnify"><defs/><g><rect fill="#FFFFFF" height="282.7109" style="stroke:#181818;stroke-width:1.0;" width="10" x="243" y="81.8047"/><rect fill="#FFFFFF" height="225.6641" style="stroke:#181818;stroke-width:1.0;" width="10" x="472" y="110.3281"/><rect fill="#FFFFFF" height="39.5234" style="stroke:#181818;stroke-width:1.0;" width="10" x="477" y="203.8984"/><rect fill="#FFFFFF" height="28.5234" style="stroke:#181818;stroke-width:1.0;" width="10" x="758" y="278.9453"/><rect fill="#FFFFFF" height="28.5234" style="stroke:#181818;stroke-width:1.0;" width="10" x="868" y="138.8516"/><line style="stroke:#181818;stroke-width:0.5;stroke-dasharray:5.0,5.0;" x1="248" x2="248" y1="51.2813" y2="382.5156"/><line style="stroke:#181818;stroke-width:0.5;stroke-dasharray:5.0,5.0;" x1="477" x2="477" y1="51.2813" y2="382.5156"/><line style="stroke:#181818;stroke-width:0.5;stroke-dasharray:5.0,5.0;" x1="763" x2="763" y1="51.2813" y2="382.5156"/><line style="stroke:#181818;stroke-width:0.5;stroke-dasharray:5.0,5.0;" x1="873" x2="873" y1="51.2813" y2="382.5156"/><line style="stroke:#181818;stroke-width:0.5;stroke-dasharray:5.0,5.0;" x1="983" x2="983" y1="51.2813" y2="382.5156"/><rect fill="#E3E3E3" height="45.2813" rx="2.5" ry="2.5" style="stroke:#181818;stroke-width:0.5;" width="100" x="198" y="5"/><text fill="#000000" font-family="sans-serif" font-size="14" font-style="italic" lengthAdjust="spacing" textLength="86" x="205" y="24.6738">&#171;component&#187;</text><text fill="#000000" font-family="sans-serif" font-size="14" lengthAdjust="spacing" textLength="62" x="217" y="40.3145">Controller</text><rect fill="#E3E3E3" height="45.2813" rx="2.5" ry="2.5" style="stroke:#181818;stroke-width:0.5;" width="100" x="198" y="381.5156"/><text fill="#000000" font-family="sans-serif" font-size="14" font-style="italic" lengthAdjust="spacing" textLength="86" x="205" y="401.1895">&#171;component&#187;</text><text fill="#000000" font-family="sans-serif" font-size="14" lengthAdjust="spacing" textLength="62" x="217" y="416.8301">Controller</text><rect fill="#E3E3E3" height="45.2813" rx="2.5" ry="2.5" style="stroke:#181818;stroke-width:0.5;" width="100" x="427" y="5"/><text fill="#000000" font-family="sans-serif" font-size="14" font-style="italic" lengthAdjust="spacing" textLength="86" x="434" y="24.6738">&#171;component&#187;</text><text fill="#000000" font-family="sans-serif" font-size="14" lengthAdjust="spacing" textLength="47" x="453.5" y="40.3145">Service</text><rect fill="#E3E3E3" height="45.2813" rx="2.5" ry="2.5" style="stroke:#181818;stroke-width:0.5;" width="100" x="427" y="381.5156"/><text fill="#000000" font-family="sans-serif" font-size="14" font-style="italic" lengthAdjust="spacing" textLength="86" x="434" y="401.1895">&#171;component&#187;</text><text fill="#000000" font-family="sans-serif" font-size="14" lengthAdjust="spacing" textLength="47" x="453.5" y="416.8301">Service</text><rect fill="#E3E3E3" height="45.2813" rx="2.5" ry="2.5" style="stroke:#181818;stroke-width:0.5;" width="100" x="713" y="5"/><text fill="#000000" font-family="sans-serif" font-size="14" font-style="italic" lengthAdjust="spacing" textLength="86" x="720" y="24.6738">&#171;component&#187;</text><text fill="#000000" font-family="sans-serif" font-size="14" lengthAdjust="spacing" textLength="48" x="739" y="40.3145">Domain</text><rect fill="#E3E3E3" height="45.2813" rx="2.5" ry="2.5" style="stroke:#181818;stroke-width:0.5;" width="100" x="713" y="381.5156"/><text fill="#000000" font-family="sans-serif" font-size="14" font-style="italic" lengthAdjust="spacing" textLength="86" x="720" y="401.1895">&#171;component&#187;</text><text fill="#000000" font-family="sans-serif" font-size="14" lengthAdjust="spacing" textLength="48" x="739" y="416.8301">Domain</text><rect fill="#E3E3E3" height="45.2813" rx="2.5" ry="2.5" style="stroke:#181818;stroke-width:0.5;" width="100" x="823" y="5"/><text fill="#000000" font-family="sans-serif" font-size="14" font-style="italic" lengthAdjust="spacing" textLength="86" x="830" y="24.6738">&#171;component&#187;</text><text fill="#000000" font-family="sans-serif" font-size="14" lengthAdjust="spacing" textLength="68" x="839" y="40.3145">Repository</text><rect fill="#E3E3E3" height="45.2813" rx="2.5" ry="2.5" style="stroke:#181818;stroke-width:0.5;" width="100" x="823" y="381.5156"/><text fill="#000000" font-family="sans-serif" font-size="14" font-style="italic" lengthAdjust="spacing" textLength="86" x="830" y="401.1895">&#171;component&#187;</text><text fill="#000000" font-family="sans-serif" font-size="14" lengthAdjust="spacing" textLength="68" x="839" y="416.8301">Repository</text><rect fill="#E3E3E3" height="45.2813" rx="2.5" ry="2.5" style="stroke:#181818;stroke-width:0.5;" width="100" x="933" y="5"/><text fill="#000000" font-family="sans-serif" font-size="14" font-style="italic" lengthAdjust="spacing" textLength="86" x="940" y="24.6738">&#171;component&#187;</text><text fill="#000000" font-family="sans-serif" font-size="14" lengthAdjust="spacing" textLength="61" x="952.5" y="40.3145">MySql DB</text><rect fill="#E3E3E3" height="45.2813" rx="2.5" ry="2.5" style="stroke:#181818;stroke-width:0.5;" width="100" x="933" y="381.5156"/><text fill="#000000" font-family="sans-serif" font-size="14" font-style="italic" lengthAdjust="spacing" textLength="86" x="940" y="401.1895">&#171;component&#187;</text><text fill="#000000" font-family="sans-serif" font-size="14" lengthAdjust="spacing" textLength="61" x="952.5" y="416.8301">MySql DB</text><rect fill="#FFFFFF" height="282.7109" style="stroke:#181818;stroke-width:1.0;" width="10" x="243" y="81.8047"/><rect fill="#FFFFFF" height="225.6641" style="stroke:#181818;stroke-width:1.0;" width="10" x="472" y="110.3281"/><rect fill="#FFFFFF" height="39.5234" style="stroke:#181818;stroke-width:1.0;" width="10" x="477" y="203.8984"/><rect fill="#FFFFFF" height="28.5234" style="stroke:#181818;stroke-width:1.0;" width="10" x="758" y="278.9453"/><rect fill="#FFFFFF" height="28.5234" style="stroke:#181818;stroke-width:1.0;" width="10" x="868" y="138.8516"/><polygon fill="#181818" points="231,77.8047,241,81.8047,231,85.8047,235,81.8047" style="stroke:#181818;stroke-width:1.0;"/><line style="stroke:#181818;stroke-width:1.0;" x1="0" x2="237" y1="81.8047" y2="81.8047"/><text fill="#000000" font-family="sans-serif" font-size="13" font-weight="bold" lengthAdjust="spacing" textLength="7" x="7" y="77.0498">1</text><text fill="#000000" font-family="sans-serif" font-size="13" lengthAdjust="spacing" textLength="213" x="18" y="77.0498">Submit OperationTypes Get Request</text><polygon fill="#181818" points="460,106.3281,470,110.3281,460,114.3281,464,110.3281" style="stroke:#181818;stroke-width:1.0;"/><line style="stroke:#181818;stroke-width:1.0;" x1="253" x2="466" y1="110.3281" y2="110.3281"/><text fill="#000000" font-family="sans-serif" font-size="13" font-weight="bold" lengthAdjust="spacing" textLength="7" x="260" y="105.5732">2</text><text fill="#000000" font-family="sans-serif" font-size="13" lengthAdjust="spacing" textLength="189" x="271" y="105.5732">Call GetAllFilteredAsync method</text><polygon fill="#181818" points="856,134.8516,866,138.8516,856,142.8516,860,138.8516" style="stroke:#181818;stroke-width:1.0;"/><line style="stroke:#181818;stroke-width:1.0;" x1="482" x2="862" y1="138.8516" y2="138.8516"/><text fill="#000000" font-family="sans-serif" font-size="13" font-weight="bold" lengthAdjust="spacing" textLength="7" x="489" y="134.0967">3</text><text fill="#000000" font-family="sans-serif" font-size="13" lengthAdjust="spacing" textLength="135" x="500" y="134.0967">Get All OperationTypes</text><polygon fill="#181818" points="493,163.375,483,167.375,493,171.375,489,167.375" style="stroke:#181818;stroke-width:1.0;"/><line style="stroke:#181818;stroke-width:1.0;stroke-dasharray:2.0,2.0;" x1="487" x2="872" y1="167.375" y2="167.375"/><text fill="#000000" font-family="sans-serif" font-size="13" font-weight="bold" lengthAdjust="spacing" textLength="7" x="499" y="162.6201">4</text><text fill="#000000" font-family="sans-serif" font-size="13" lengthAdjust="spacing" textLength="116" x="510" y="162.6201">OperationTypes List</text><line style="stroke:#181818;stroke-width:1.0;" x1="482" x2="529" y1="190.8984" y2="190.8984"/><line style="stroke:#181818;stroke-width:1.0;" x1="529" x2="529" y1="190.8984" y2="203.8984"/><line style="stroke:#181818;stroke-width:1.0;" x1="488" x2="529" y1="203.8984" y2="203.8984"/><polygon fill="#181818" points="498,199.8984,488,203.8984,498,207.8984,494,203.8984" style="stroke:#181818;stroke-width:1.0;"/><text fill="#000000" font-family="sans-serif" font-size="13" font-weight="bold" lengthAdjust="spacing" textLength="7" x="494" y="186.1436">5</text><text fill="#000000" font-family="sans-serif" font-size="13" lengthAdjust="spacing" textLength="54" x="505" y="186.1436">Filter List</text><line style="stroke:#181818;stroke-width:1.0;stroke-dasharray:2.0,2.0;" x1="487" x2="529" y1="242.4219" y2="242.4219"/><line style="stroke:#181818;stroke-width:1.0;stroke-dasharray:2.0,2.0;" x1="529" x2="529" y1="242.4219" y2="255.4219"/><line style="stroke:#181818;stroke-width:1.0;stroke-dasharray:2.0,2.0;" x1="482" x2="529" y1="255.4219" y2="255.4219"/><polygon fill="#181818" points="492,251.4219,482,255.4219,492,259.4219,488,255.4219" style="stroke:#181818;stroke-width:1.0;"/><text fill="#000000" font-family="sans-serif" font-size="13" font-weight="bold" lengthAdjust="spacing" textLength="7" x="494" y="237.667">6</text><text fill="#000000" font-family="sans-serif" font-size="13" lengthAdjust="spacing" textLength="68" x="505" y="237.667">Filtered List</text><polygon fill="#181818" points="746,274.9453,756,278.9453,746,282.9453,750,278.9453" style="stroke:#181818;stroke-width:1.0;"/><line style="stroke:#181818;stroke-width:1.0;" x1="482" x2="752" y1="278.9453" y2="278.9453"/><text fill="#000000" font-family="sans-serif" font-size="13" font-weight="bold" lengthAdjust="spacing" textLength="7" x="489" y="274.1904">7</text><text fill="#000000" font-family="sans-serif" font-size="13" lengthAdjust="spacing" textLength="246" x="500" y="274.1904">Converts List into OperationTypesDTO List</text><polygon fill="#181818" points="493,303.4688,483,307.4688,493,311.4688,489,307.4688" style="stroke:#181818;stroke-width:1.0;"/><line style="stroke:#181818;stroke-width:1.0;stroke-dasharray:2.0,2.0;" x1="487" x2="762" y1="307.4688" y2="307.4688"/><text fill="#000000" font-family="sans-serif" font-size="13" font-weight="bold" lengthAdjust="spacing" textLength="7" x="499" y="302.7139">8</text><text fill="#000000" font-family="sans-serif" font-size="13" lengthAdjust="spacing" textLength="180" x="510" y="302.7139">Return OperationTypesDTOList</text><polygon fill="#181818" points="264,331.9922,254,335.9922,264,339.9922,260,335.9922" style="stroke:#181818;stroke-width:1.0;"/><line style="stroke:#181818;stroke-width:1.0;stroke-dasharray:2.0,2.0;" x1="258" x2="476" y1="335.9922" y2="335.9922"/><text fill="#000000" font-family="sans-serif" font-size="13" font-weight="bold" lengthAdjust="spacing" textLength="7" x="270" y="331.2373">9</text><text fill="#000000" font-family="sans-serif" font-size="13" lengthAdjust="spacing" textLength="180" x="281" y="331.2373">Return OperationTypesDTOList</text><polygon fill="#181818" points="11,360.5156,1,364.5156,11,368.5156,7,364.5156" style="stroke:#181818;stroke-width:1.0;"/><line style="stroke:#181818;stroke-width:1.0;stroke-dasharray:2.0,2.0;" x1="5" x2="247" y1="364.5156" y2="364.5156"/><text fill="#000000" font-family="sans-serif" font-size="13" font-weight="bold" lengthAdjust="spacing" textLength="14" x="17" y="359.7607">10</text><text fill="#000000" font-family="sans-serif" font-size="13" lengthAdjust="spacing" textLength="180" x="35" y="359.7607">Return OperationTypesDTOList</text><!--SRC=[bP51Ri8m44NtFiMe-rm08IGWj1jGgWHrRvmfMDYUO4-eSlicZe1YAjIkyvx__vbmrAwHNbgmv4WTF5a4zYsASFtII7MKUwouCmWU5KktDp-1S90rVMctXqzf0WeXMoRNsXrw8Ng4jTADT0mlItBioHZqBo03BBVb6gPJHROXXuvditkyGd_M2YDRhSgFPsnELceNqRpOF2DBR2Xe9jz5kboz5y_mJLUT3EIB22_oF655Deix9b2rEwiPYWQzP4rkspKOu0qPIZor65X8nVei6QCWH9pVwyEq2IobCGCzD-PL6qQFzJnqJe55Fb1zamTSYFW_UdceFuaflPY4tvo14Y9EpQw9ITErxYlMc3YNd54PcutehuKI4kk7P-_h3xVgjvCxe-Un0sZ7b9JBjqKIsej23FObid-cH6wzUrJJ2j6zzerd-BiyzfzcsIZ-munN_mO0]--></g></svg>