<svg xmlns="http://www.w3.org/2000/svg" xmlns:xlink="http://www.w3.org/1999/xlink" contentStyleType="text/css" height="383px" preserveAspectRatio="none" style="width:463px;height:383px;background:#FFFFFF;" version="1.1" viewBox="0 0 463 383" width="463px" zoomAndPan="magnify"><defs/><g><rect fill="#FFFFFF" height="93.873" style="stroke:#181818;stroke-width:1.0;" width="10" x="133.5635" y="90.5332"/><rect fill="#FFFFFF" height="93.873" style="stroke:#181818;stroke-width:1.0;" width="10" x="133.5635" y="215.6973"/><rect fill="#FFFFFF" height="31.291" style="stroke:#181818;stroke-width:1.0;" width="10" x="402.8486" y="121.8242"/><rect fill="#FFFFFF" height="31.291" style="stroke:#181818;stroke-width:1.0;" width="10" x="402.8486" y="246.9883"/><line style="stroke:#181818;stroke-width:0.5;stroke-dasharray:5.0,5.0;" x1="138.1431" x2="138.1431" y1="57.2422" y2="327.5703"/><line style="stroke:#181818;stroke-width:0.5;stroke-dasharray:5.0,5.0;" x1="407.4282" x2="407.4282" y1="57.2422" y2="327.5703"/><rect fill="#E3E3E3" height="51.2422" rx="2.5" ry="2.5" style="stroke:#181818;stroke-width:0.5;" width="98.8408" x="89.1431" y="5"/><text fill="#000000" font-family="sans-serif" font-size="14" font-style="italic" lengthAdjust="spacing" textLength="84.8408" x="96.1431" y="27.1074">&#171;component&#187;</text><text fill="#000000" font-family="sans-serif" font-size="14" lengthAdjust="spacing" textLength="56.0342" x="110.5464" y="45.7285">Frontend</text><rect fill="#E3E3E3" height="51.2422" rx="2.5" ry="2.5" style="stroke:#181818;stroke-width:0.5;" width="98.8408" x="89.1431" y="326.5703"/><text fill="#000000" font-family="sans-serif" font-size="14" font-style="italic" lengthAdjust="spacing" textLength="84.8408" x="96.1431" y="348.6777">&#171;component&#187;</text><text fill="#000000" font-family="sans-serif" font-size="14" lengthAdjust="spacing" textLength="56.0342" x="110.5464" y="367.2988">Frontend</text><rect fill="#E3E3E3" height="51.2422" rx="2.5" ry="2.5" style="stroke:#181818;stroke-width:0.5;" width="98.8408" x="358.4282" y="5"/><text fill="#000000" font-family="sans-serif" font-size="14" font-style="italic" lengthAdjust="spacing" textLength="84.8408" x="365.4282" y="27.1074">&#171;component&#187;</text><text fill="#000000" font-family="sans-serif" font-size="14" lengthAdjust="spacing" textLength="80.1445" x="367.7764" y="45.7285">DM Backend</text><rect fill="#E3E3E3" height="51.2422" rx="2.5" ry="2.5" style="stroke:#181818;stroke-width:0.5;" width="98.8408" x="358.4282" y="326.5703"/><text fill="#000000" font-family="sans-serif" font-size="14" font-style="italic" lengthAdjust="spacing" textLength="84.8408" x="365.4282" y="348.6777">&#171;component&#187;</text><text fill="#000000" font-family="sans-serif" font-size="14" lengthAdjust="spacing" textLength="80.1445" x="367.7764" y="367.2988">DM Backend</text><rect fill="#FFFFFF" height="93.873" style="stroke:#181818;stroke-width:1.0;" width="10" x="133.5635" y="90.5332"/><rect fill="#FFFFFF" height="93.873" style="stroke:#181818;stroke-width:1.0;" width="10" x="133.5635" y="215.6973"/><rect fill="#FFFFFF" height="31.291" style="stroke:#181818;stroke-width:1.0;" width="10" x="402.8486" y="121.8242"/><rect fill="#FFFFFF" height="31.291" style="stroke:#181818;stroke-width:1.0;" width="10" x="402.8486" y="246.9883"/><polygon fill="#181818" points="121.5635,86.5332,131.5635,90.5332,121.5635,94.5332,125.5635,90.5332" style="stroke:#181818;stroke-width:1.0;"/><line style="stroke:#181818;stroke-width:1.0;" x1="0" x2="127.5635" y1="90.5332" y2="90.5332"/><text fill="#000000" font-family="sans-serif" font-size="13" font-weight="bold" lengthAdjust="spacing" textLength="7.23" x="7" y="85.2705">1</text><text fill="#000000" font-family="sans-serif" font-size="13" lengthAdjust="spacing" textLength="72.9917" x="18.23" y="85.2705">access page</text><polygon fill="#181818" points="390.8486,117.8242,400.8486,121.8242,390.8486,125.8242,394.8486,121.8242" style="stroke:#181818;stroke-width:1.0;"/><line style="stroke:#181818;stroke-width:1.0;" x1="143.5635" x2="396.8486" y1="121.8242" y2="121.8242"/><text fill="#000000" font-family="sans-serif" font-size="13" font-weight="bold" lengthAdjust="spacing" textLength="7.23" x="150.5635" y="116.5615">2</text><text fill="#000000" font-family="sans-serif" font-size="13" lengthAdjust="spacing" textLength="110.5254" x="161.7935" y="116.5615">getEditForm(email)</text><polygon fill="#181818" points="154.5635,149.1152,144.5635,153.1152,154.5635,157.1152,150.5635,153.1152" style="stroke:#181818;stroke-width:1.0;"/><line style="stroke:#181818;stroke-width:1.0;stroke-dasharray:2.0,2.0;" x1="148.5635" x2="406.8486" y1="153.1152" y2="153.1152"/><text fill="#000000" font-family="sans-serif" font-size="13" font-weight="bold" lengthAdjust="spacing" textLength="7.23" x="160.5635" y="147.8525">3</text><text fill="#000000" font-family="sans-serif" font-size="13" lengthAdjust="spacing" textLength="59.9663" x="171.7935" y="147.8525">AllergyDto</text><polygon fill="#181818" points="11,180.4063,1,184.4063,11,188.4063,7,184.4063" style="stroke:#181818;stroke-width:1.0;"/><line style="stroke:#181818;stroke-width:1.0;stroke-dasharray:2.0,2.0;" x1="5" x2="137.5635" y1="184.4063" y2="184.4063"/><text fill="#000000" font-family="sans-serif" font-size="13" font-weight="bold" lengthAdjust="spacing" textLength="7.23" x="17" y="179.1436">4</text><text fill="#000000" font-family="sans-serif" font-size="13" lengthAdjust="spacing" textLength="96.8208" x="28.23" y="179.1436">provide edit form</text><polygon fill="#181818" points="121.5635,211.6973,131.5635,215.6973,121.5635,219.6973,125.5635,215.6973" style="stroke:#181818;stroke-width:1.0;"/><line style="stroke:#181818;stroke-width:1.0;" x1="0" x2="127.5635" y1="215.6973" y2="215.6973"/><text fill="#000000" font-family="sans-serif" font-size="13" font-weight="bold" lengthAdjust="spacing" textLength="7.23" x="7" y="210.4346">5</text><text fill="#000000" font-family="sans-serif" font-size="13" lengthAdjust="spacing" textLength="103.3335" x="18.23" y="210.4346">edit info of Allergy</text><polygon fill="#181818" points="390.8486,242.9883,400.8486,246.9883,390.8486,250.9883,394.8486,246.9883" style="stroke:#181818;stroke-width:1.0;"/><line style="stroke:#181818;stroke-width:1.0;" x1="143.5635" x2="396.8486" y1="246.9883" y2="246.9883"/><text fill="#000000" font-family="sans-serif" font-size="13" font-weight="bold" lengthAdjust="spacing" textLength="7.23" x="150.5635" y="241.7256">6</text><text fill="#000000" font-family="sans-serif" font-size="13" lengthAdjust="spacing" textLength="229.0552" x="161.7935" y="241.7256">updateAllergy(designation, AllergyDTO)</text><polygon fill="#181818" points="154.5635,274.2793,144.5635,278.2793,154.5635,282.2793,150.5635,278.2793" style="stroke:#181818;stroke-width:1.0;"/><line style="stroke:#181818;stroke-width:1.0;stroke-dasharray:2.0,2.0;" x1="148.5635" x2="406.8486" y1="278.2793" y2="278.2793"/><text fill="#000000" font-family="sans-serif" font-size="13" font-weight="bold" lengthAdjust="spacing" textLength="7.23" x="160.5635" y="273.0166">7</text><text fill="#000000" font-family="sans-serif" font-size="13" lengthAdjust="spacing" textLength="46.96" x="171.7935" y="273.0166">success</text><polygon fill="#181818" points="11,305.5703,1,309.5703,11,313.5703,7,309.5703" style="stroke:#181818;stroke-width:1.0;"/><line style="stroke:#181818;stroke-width:1.0;stroke-dasharray:2.0,2.0;" x1="5" x2="137.5635" y1="309.5703" y2="309.5703"/><text fill="#000000" font-family="sans-serif" font-size="13" font-weight="bold" lengthAdjust="spacing" textLength="7.23" x="17" y="304.3076">8</text><text fill="#000000" font-family="sans-serif" font-size="13" lengthAdjust="spacing" textLength="101.1753" x="28.23" y="304.3076">success and data</text><!--SRC=[TP11Ri8m44NtFiM85PMQ2w08gH6mgxfeBp2r9yOYdedi2HMtxnG13KXacV_qvidra7Z4WXcoiFXzaKoWPI9NRyk8_e2HFlKq41JoYXo7EL3t6EGdSOGUXqhEuQJ2K_wcufmXcdmQaHKMkoAin641M66tXRRraaTXObslxz7DEtHs-0ftZx1hrcPO0NfFjLfa98TUqn6LR71cDw8p8f9kGzATbBoaZ6bu-GUxhJDpSt6z3GELUDgek41pfcsQlzmLZ4MEAH2G2Q4tunoqgsUHSUSzSIyW_LNx96yQW_sxCCj0DKL6JSAljvwlZ_laUNETpW_mBFWo0t80kuFk8TY-Nm00]--></g></svg>