<svg xmlns="http://www.w3.org/2000/svg" xmlns:xlink="http://www.w3.org/1999/xlink" contentStyleType="text/css" height="383px" preserveAspectRatio="none" style="width:934px;height:383px;background:#FFFFFF;" version="1.1" viewBox="0 0 934 383" width="934px" zoomAndPan="magnify"><defs/><g><rect fill="#FFFFFF" height="93.873" style="stroke:#181818;stroke-width:1.0;" width="10" x="645.1465" y="90.5332"/><rect fill="#FFFFFF" height="102.873" style="stroke:#181818;stroke-width:1.0;" width="10" x="645.1465" y="215.6973"/><rect fill="#FFFFFF" height="31.291" style="stroke:#181818;stroke-width:1.0;" width="10" x="873.959" y="121.8242"/><rect fill="#FFFFFF" height="31.291" style="stroke:#181818;stroke-width:1.0;" width="10" x="873.959" y="246.9883"/><line style="stroke:#181818;stroke-width:0.5;stroke-dasharray:5.0,5.0;" x1="649.7261" x2="649.7261" y1="57.2422" y2="327.5703"/><line style="stroke:#181818;stroke-width:0.5;stroke-dasharray:5.0,5.0;" x1="878.5386" x2="878.5386" y1="57.2422" y2="327.5703"/><rect fill="#E2E2F0" height="51.2422" rx="2.5" ry="2.5" style="stroke:#181818;stroke-width:0.5;" width="98.8408" x="600.7261" y="5"/><text fill="#000000" font-family="sans-serif" font-size="14" font-style="italic" lengthAdjust="spacing" textLength="84.8408" x="607.7261" y="27.1074">&#171;component&#187;</text><text fill="#000000" font-family="sans-serif" font-size="14" lengthAdjust="spacing" textLength="56.0342" x="622.1294" y="45.7285">Frontend</text><rect fill="#E2E2F0" height="51.2422" rx="2.5" ry="2.5" style="stroke:#181818;stroke-width:0.5;" width="98.8408" x="600.7261" y="326.5703"/><text fill="#000000" font-family="sans-serif" font-size="14" font-style="italic" lengthAdjust="spacing" textLength="84.8408" x="607.7261" y="348.6777">&#171;component&#187;</text><text fill="#000000" font-family="sans-serif" font-size="14" lengthAdjust="spacing" textLength="56.0342" x="622.1294" y="367.2988">Frontend</text><rect fill="#E2E2F0" height="51.2422" rx="2.5" ry="2.5" style="stroke:#181818;stroke-width:0.5;" width="98.8408" x="829.5386" y="5"/><text fill="#000000" font-family="sans-serif" font-size="14" font-style="italic" lengthAdjust="spacing" textLength="84.8408" x="836.5386" y="27.1074">&#171;component&#187;</text><text fill="#000000" font-family="sans-serif" font-size="14" lengthAdjust="spacing" textLength="80.1445" x="838.8867" y="45.7285">DM Backend</text><rect fill="#E2E2F0" height="51.2422" rx="2.5" ry="2.5" style="stroke:#181818;stroke-width:0.5;" width="98.8408" x="829.5386" y="326.5703"/><text fill="#000000" font-family="sans-serif" font-size="14" font-style="italic" lengthAdjust="spacing" textLength="84.8408" x="836.5386" y="348.6777">&#171;component&#187;</text><text fill="#000000" font-family="sans-serif" font-size="14" lengthAdjust="spacing" textLength="80.1445" x="838.8867" y="367.2988">DM Backend</text><rect fill="#FFFFFF" height="93.873" style="stroke:#181818;stroke-width:1.0;" width="10" x="645.1465" y="90.5332"/><rect fill="#FFFFFF" height="102.873" style="stroke:#181818;stroke-width:1.0;" width="10" x="645.1465" y="215.6973"/><rect fill="#FFFFFF" height="31.291" style="stroke:#181818;stroke-width:1.0;" width="10" x="873.959" y="121.8242"/><rect fill="#FFFFFF" height="31.291" style="stroke:#181818;stroke-width:1.0;" width="10" x="873.959" y="246.9883"/><polygon fill="#181818" points="633.1465,86.5332,643.1465,90.5332,633.1465,94.5332,637.1465,90.5332" style="stroke:#181818;stroke-width:1.0;"/><line style="stroke:#181818;stroke-width:1.0;" x1="0" x2="639.1465" y1="90.5332" y2="90.5332"/><text fill="#000000" font-family="sans-serif" font-size="13" font-weight="bold" lengthAdjust="spacing" textLength="7.23" x="7" y="85.2705">1</text><text fill="#000000" font-family="sans-serif" font-size="13" lengthAdjust="spacing" textLength="72.9917" x="18.23" y="85.2705">access page</text><polygon fill="#181818" points="861.959,117.8242,871.959,121.8242,861.959,125.8242,865.959,121.8242" style="stroke:#181818;stroke-width:1.0;"/><line style="stroke:#181818;stroke-width:1.0;" x1="655.1465" x2="867.959" y1="121.8242" y2="121.8242"/><text fill="#000000" font-family="sans-serif" font-size="13" font-weight="bold" lengthAdjust="spacing" textLength="7.23" x="662.1465" y="116.5615">2</text><text fill="#000000" font-family="sans-serif" font-size="13" lengthAdjust="spacing" textLength="96.0781" x="673.3765" y="116.5615">getCreateForm()</text><polygon fill="#181818" points="666.1465,149.1152,656.1465,153.1152,666.1465,157.1152,662.1465,153.1152" style="stroke:#181818;stroke-width:1.0;"/><line style="stroke:#181818;stroke-width:1.0;stroke-dasharray:2.0,2.0;" x1="660.1465" x2="877.959" y1="153.1152" y2="153.1152"/><text fill="#000000" font-family="sans-serif" font-size="13" font-weight="bold" lengthAdjust="spacing" textLength="7.23" x="672.1465" y="147.8525">3</text><text fill="#000000" font-family="sans-serif" font-size="13" lengthAdjust="spacing" textLength="26" x="683.3765" y="147.8525">form</text><polygon fill="#181818" points="11,180.4063,1,184.4063,11,188.4063,7,184.4063" style="stroke:#181818;stroke-width:1.0;"/><line style="stroke:#181818;stroke-width:1.0;stroke-dasharray:2.0,2.0;" x1="5" x2="649.1465" y1="184.4063" y2="184.4063"/><text fill="#000000" font-family="sans-serif" font-size="13" font-weight="bold" lengthAdjust="spacing" textLength="7.23" x="17" y="179.1436">4</text><text fill="#000000" font-family="sans-serif" font-size="13" lengthAdjust="spacing" textLength="57.1035" x="28.23" y="179.1436">data input</text><polygon fill="#181818" points="633.1465,211.6973,643.1465,215.6973,633.1465,219.6973,637.1465,215.6973" style="stroke:#181818;stroke-width:1.0;"/><line style="stroke:#181818;stroke-width:1.0;" x1="0" x2="639.1465" y1="215.6973" y2="215.6973"/><text fill="#000000" font-family="sans-serif" font-size="13" font-weight="bold" lengthAdjust="spacing" textLength="7.23" x="7" y="210.4346">5</text><text fill="#000000" font-family="sans-serif" font-size="13" lengthAdjust="spacing" textLength="614.9165" x="18.23" y="210.4346">info to create Patient Profile(fullName,email, phone, gender, dateOfBirth, emailUser, gender, emailContact)</text><polygon fill="#181818" points="861.959,242.9883,871.959,246.9883,861.959,250.9883,865.959,246.9883" style="stroke:#181818;stroke-width:1.0;"/><line style="stroke:#181818;stroke-width:1.0;" x1="655.1465" x2="867.959" y1="246.9883" y2="246.9883"/><text fill="#000000" font-family="sans-serif" font-size="13" font-weight="bold" lengthAdjust="spacing" textLength="7.23" x="662.1465" y="241.7256">6</text><text fill="#000000" font-family="sans-serif" font-size="13" lengthAdjust="spacing" textLength="188.5825" x="673.3765" y="241.7256">createPatientProfile(patientDTO)</text><polygon fill="#181818" points="666.1465,274.2793,656.1465,278.2793,666.1465,282.2793,662.1465,278.2793" style="stroke:#181818;stroke-width:1.0;"/><line style="stroke:#181818;stroke-width:1.0;stroke-dasharray:2.0,2.0;" x1="660.1465" x2="877.959" y1="278.2793" y2="278.2793"/><text fill="#000000" font-family="sans-serif" font-size="13" font-weight="bold" lengthAdjust="spacing" textLength="7.23" x="672.1465" y="273.0166">7</text><text fill="#000000" font-family="sans-serif" font-size="13" lengthAdjust="spacing" textLength="46.96" x="683.3765" y="273.0166">success</text><polygon fill="#181818" points="11,305.5703,1,309.5703,11,313.5703,7,309.5703" style="stroke:#181818;stroke-width:1.0;"/><line style="stroke:#181818;stroke-width:1.0;stroke-dasharray:2.0,2.0;" x1="5" x2="644.1465" y1="309.5703" y2="309.5703"/><text fill="#000000" font-family="sans-serif" font-size="13" font-weight="bold" lengthAdjust="spacing" textLength="7.23" x="17" y="304.3076">8</text><text fill="#000000" font-family="sans-serif" font-size="13" lengthAdjust="spacing" textLength="101.1753" x="28.23" y="304.3076">success and data</text><!--SRC=[TP11ReCm44NtFiKegqI22qI81KdOfOdKzW1JCu0LOoDxQDNRTo3GqgXbv_cF-VzFl1dNOy0EUjGtREYPFor18Cte6aigVWEnnSf_6DT0ZJQIKZYmTqFtHa4fGTXeqwDZs9J1EoPNRG0Zb2V8CksxtZjodEU_qUCP2Z5UuE8HbW_IN9Ri0RMc62LdGmerctTa4a69WH2540tn8P2CIn-wxUw7AavADgVpebfKLT5QpT9q30gmXmePGJeFl6R4P_fR0EDg3-n1JrPmHJQI5Qx1ryRIjXwiVSAE4khGs0JwLheaairL599nFLtgmWHk4vYGrpZE5tqQ7UH-OhtxiwT4k5lFpejnVtyUNox_De_3TCE7yklsCm7egkaIIdq1]--></g></svg>