<?xml version="1.0" encoding="us-ascii" standalone="no"?><svg xmlns="http://www.w3.org/2000/svg" xmlns:xlink="http://www.w3.org/1999/xlink" contentStyleType="text/css" height="408px" preserveAspectRatio="none" style="width:679px;height:408px;background:#FFFFFF;" version="1.1" viewBox="0 0 679 408" width="679px" zoomAndPan="magnify"><defs/><g><rect fill="#FFFFFF" height="220.1875" style="stroke:#181818;stroke-width:1.0;" width="10" x="22.5" y="90.6406"/><rect fill="#FFFFFF" height="85.5703" style="stroke:#181818;stroke-width:1.0;" width="10" x="382.5" y="111.1641"/><rect fill="#FFFFFF" height="85.5703" style="stroke:#181818;stroke-width:1.0;" width="10" x="382.5" y="225.2578"/><rect fill="#FFFFFF" height="28.5234" style="stroke:#181818;stroke-width:1.0;" width="10" x="618.5" y="139.6875"/><rect fill="#FFFFFF" height="28.5234" style="stroke:#181818;stroke-width:1.0;" width="10" x="618.5" y="253.7813"/><line style="stroke:#181818;stroke-width:0.5;stroke-dasharray:5.0,5.0;" x1="27" x2="27" y1="80.6406" y2="328.8281"/><line style="stroke:#181818;stroke-width:0.5;stroke-dasharray:5.0,5.0;" x1="387.5" x2="387.5" y1="80.6406" y2="328.8281"/><line style="stroke:#181818;stroke-width:0.5;stroke-dasharray:5.0,5.0;" x1="623.5" x2="623.5" y1="80.6406" y2="328.8281"/><text fill="#000000" font-family="sans-serif" font-size="14" lengthAdjust="spacing" textLength="39" x="5" y="77.6738">Admin</text><ellipse cx="27.5" cy="13.5" fill="#E2E2F0" rx="8" ry="8" style="stroke:#181818;stroke-width:0.5;"/><path d="M27.5,21.5 L27.5,48.5 M14.5,29.5 L40.5,29.5 M27.5,48.5 L14.5,63.5 M27.5,48.5 L40.5,63.5 " fill="none" style="stroke:#181818;stroke-width:0.5;"/><text fill="#000000" font-family="sans-serif" font-size="14" lengthAdjust="spacing" textLength="39" x="5" y="340.502">Admin</text><ellipse cx="27.5" cy="351.9688" fill="#E2E2F0" rx="8" ry="8" style="stroke:#181818;stroke-width:0.5;"/><path d="M27.5,359.9688 L27.5,386.9688 M14.5,367.9688 L40.5,367.9688 M27.5,386.9688 L14.5,401.9688 M27.5,386.9688 L40.5,401.9688 " fill="none" style="stroke:#181818;stroke-width:0.5;"/><rect fill="#E2E2F0" height="45.2813" rx="2.5" ry="2.5" style="stroke:#181818;stroke-width:0.5;" width="100" x="337.5" y="34.3594"/><text fill="#000000" font-family="sans-serif" font-size="14" font-style="italic" lengthAdjust="spacing" textLength="86" x="344.5" y="54.0332">&#171;component&#187;</text><text fill="#000000" font-family="sans-serif" font-size="14" lengthAdjust="spacing" textLength="58" x="358.5" y="69.6738">Frontend</text><rect fill="#E2E2F0" height="45.2813" rx="2.5" ry="2.5" style="stroke:#181818;stroke-width:0.5;" width="100" x="337.5" y="327.8281"/><text fill="#000000" font-family="sans-serif" font-size="14" font-style="italic" lengthAdjust="spacing" textLength="86" x="344.5" y="347.502">&#171;component&#187;</text><text fill="#000000" font-family="sans-serif" font-size="14" lengthAdjust="spacing" textLength="58" x="358.5" y="363.1426">Frontend</text><rect fill="#E2E2F0" height="45.2813" rx="2.5" ry="2.5" style="stroke:#181818;stroke-width:0.5;" width="100" x="573.5" y="34.3594"/><text fill="#000000" font-family="sans-serif" font-size="14" font-style="italic" lengthAdjust="spacing" textLength="86" x="580.5" y="54.0332">&#171;component&#187;</text><text fill="#000000" font-family="sans-serif" font-size="14" lengthAdjust="spacing" textLength="80" x="583.5" y="69.6738">DM Backend</text><rect fill="#E2E2F0" height="45.2813" rx="2.5" ry="2.5" style="stroke:#181818;stroke-width:0.5;" width="100" x="573.5" y="327.8281"/><text fill="#000000" font-family="sans-serif" font-size="14" font-style="italic" lengthAdjust="spacing" textLength="86" x="580.5" y="347.502">&#171;component&#187;</text><text fill="#000000" font-family="sans-serif" font-size="14" lengthAdjust="spacing" textLength="80" x="583.5" y="363.1426">DM Backend</text><rect fill="#FFFFFF" height="220.1875" style="stroke:#181818;stroke-width:1.0;" width="10" x="22.5" y="90.6406"/><rect fill="#FFFFFF" height="85.5703" style="stroke:#181818;stroke-width:1.0;" width="10" x="382.5" y="111.1641"/><rect fill="#FFFFFF" height="85.5703" style="stroke:#181818;stroke-width:1.0;" width="10" x="382.5" y="225.2578"/><rect fill="#FFFFFF" height="28.5234" style="stroke:#181818;stroke-width:1.0;" width="10" x="618.5" y="139.6875"/><rect fill="#FFFFFF" height="28.5234" style="stroke:#181818;stroke-width:1.0;" width="10" x="618.5" y="253.7813"/><polygon fill="#181818" points="370.5,107.1641,380.5,111.1641,370.5,115.1641,374.5,111.1641" style="stroke:#181818;stroke-width:1.0;"/><line style="stroke:#181818;stroke-width:1.0;" x1="32.5" x2="376.5" y1="111.1641" y2="111.1641"/><text fill="#000000" font-family="sans-serif" font-size="13" font-weight="bold" lengthAdjust="spacing" textLength="7" x="39.5" y="106.4092">1</text><text fill="#000000" font-family="sans-serif" font-size="13" lengthAdjust="spacing" textLength="74" x="50.5" y="106.4092">access page</text><polygon fill="#181818" points="606.5,135.6875,616.5,139.6875,606.5,143.6875,610.5,139.6875" style="stroke:#181818;stroke-width:1.0;"/><line style="stroke:#181818;stroke-width:1.0;" x1="392.5" x2="612.5" y1="139.6875" y2="139.6875"/><text fill="#000000" font-family="sans-serif" font-size="13" font-weight="bold" lengthAdjust="spacing" textLength="7" x="399.5" y="134.9326">2</text><text fill="#000000" font-family="sans-serif" font-size="13" lengthAdjust="spacing" textLength="94" x="410.5" y="134.9326">getCreateForm()</text><polygon fill="#181818" points="403.5,164.2109,393.5,168.2109,403.5,172.2109,399.5,168.2109" style="stroke:#181818;stroke-width:1.0;"/><line style="stroke:#181818;stroke-width:1.0;stroke-dasharray:2.0,2.0;" x1="397.5" x2="622.5" y1="168.2109" y2="168.2109"/><text fill="#000000" font-family="sans-serif" font-size="13" font-weight="bold" lengthAdjust="spacing" textLength="7" x="409.5" y="163.4561">3</text><text fill="#000000" font-family="sans-serif" font-size="13" lengthAdjust="spacing" textLength="25" x="420.5" y="163.4561">form</text><polygon fill="#181818" points="43.5,192.7344,33.5,196.7344,43.5,200.7344,39.5,196.7344" style="stroke:#181818;stroke-width:1.0;"/><line style="stroke:#181818;stroke-width:1.0;stroke-dasharray:2.0,2.0;" x1="37.5" x2="386.5" y1="196.7344" y2="196.7344"/><text fill="#000000" font-family="sans-serif" font-size="13" font-weight="bold" lengthAdjust="spacing" textLength="7" x="49.5" y="191.9795">4</text><text fill="#000000" font-family="sans-serif" font-size="13" lengthAdjust="spacing" textLength="57" x="60.5" y="191.9795">data input</text><polygon fill="#181818" points="370.5,221.2578,380.5,225.2578,370.5,229.2578,374.5,225.2578" style="stroke:#181818;stroke-width:1.0;"/><line style="stroke:#181818;stroke-width:1.0;" x1="32.5" x2="376.5" y1="225.2578" y2="225.2578"/><text fill="#000000" font-family="sans-serif" font-size="13" font-weight="bold" lengthAdjust="spacing" textLength="7" x="39.5" y="220.5029">5</text><text fill="#000000" font-family="sans-serif" font-size="13" lengthAdjust="spacing" textLength="320" x="50.5" y="220.5029">info to create info to create user (email, username, role)</text><polygon fill="#181818" points="606.5,249.7813,616.5,253.7813,606.5,257.7813,610.5,253.7813" style="stroke:#181818;stroke-width:1.0;"/><line style="stroke:#181818;stroke-width:1.0;" x1="392.5" x2="612.5" y1="253.7813" y2="253.7813"/><text fill="#000000" font-family="sans-serif" font-size="13" font-weight="bold" lengthAdjust="spacing" textLength="7" x="399.5" y="249.0264">6</text><text fill="#000000" font-family="sans-serif" font-size="13" lengthAdjust="spacing" textLength="196" x="410.5" y="249.0264">createUser(email, username, role)</text><polygon fill="#181818" points="403.5,278.3047,393.5,282.3047,403.5,286.3047,399.5,282.3047" style="stroke:#181818;stroke-width:1.0;"/><line style="stroke:#181818;stroke-width:1.0;stroke-dasharray:2.0,2.0;" x1="397.5" x2="622.5" y1="282.3047" y2="282.3047"/><text fill="#000000" font-family="sans-serif" font-size="13" font-weight="bold" lengthAdjust="spacing" textLength="7" x="409.5" y="277.5498">7</text><text fill="#000000" font-family="sans-serif" font-size="13" lengthAdjust="spacing" textLength="49" x="420.5" y="277.5498">success</text><polygon fill="#181818" points="38.5,306.8281,28.5,310.8281,38.5,314.8281,34.5,310.8281" style="stroke:#181818;stroke-width:1.0;"/><line style="stroke:#181818;stroke-width:1.0;stroke-dasharray:2.0,2.0;" x1="32.5" x2="386.5" y1="310.8281" y2="310.8281"/><text fill="#000000" font-family="sans-serif" font-size="13" font-weight="bold" lengthAdjust="spacing" textLength="7" x="44.5" y="306.0732">8</text><text fill="#000000" font-family="sans-serif" font-size="13" lengthAdjust="spacing" textLength="103" x="55.5" y="306.0732">success and data</text><!--SRC=[XP31ReCm38RlUGgBKokrBr1LI33WrjEq1_22OL69WnApQMy_ZxOhHTDsY_D_zk_VwUnun8WUHhHdxEbPFWU2I5QG-u5C-W7I6xRXmt4F7Gw9ZC590a_-bQA-hOG8MT5wnnbWWg8osYREkX5P86jYO25kPx6fuNYqmO-1YINF7z7g1AKkSuFBDMncE_UEGjysHGNxN4SU0Asbb3H9JtUYgOtQAL4gqPCyHTBl9aI_sTwfiZRgixyEwbGrBItLvgAgsG5Q50GzooHBI8rkgoZZk0iW0UnijowdH14svD4DkxbWzBI360RQ_hgwJhoqlYZyR-DZcZJDT_aZq9K0v7OEjugrgFJUvWi0]--></g></svg>