<?xml version="1.0" encoding="us-ascii" standalone="no"?><svg xmlns="http://www.w3.org/2000/svg" xmlns:xlink="http://www.w3.org/1999/xlink" contentStyleType="text/css" height="469px" preserveAspectRatio="none" style="width:1195px;height:469px;background:#FFFFFF;" version="1.1" viewBox="0 0 1195 469" width="1195px" zoomAndPan="magnify"><defs/><g><rect fill="#FFFFFF" height="340.2813" style="stroke:#181818;stroke-width:1.0;" width="10" x="256" y="61.2813"/><rect fill="#FFFFFF" height="262.7109" style="stroke:#181818;stroke-width:1.0;" width="10" x="478" y="110.3281"/><rect fill="#FFFFFF" height="205.6641" style="stroke:#181818;stroke-width:1.0;" width="10" x="715" y="138.8516"/><rect fill="#FFFFFF" height="148.6172" style="stroke:#181818;stroke-width:1.0;" width="10" x="974" y="167.375"/><line style="stroke:#181818;stroke-width:0.5;stroke-dasharray:5.0,5.0;" x1="261" x2="261" y1="51.2813" y2="419.5625"/><line style="stroke:#181818;stroke-width:0.5;stroke-dasharray:5.0,5.0;" x1="483" x2="483" y1="51.2813" y2="419.5625"/><line style="stroke:#181818;stroke-width:0.5;stroke-dasharray:5.0,5.0;" x1="720" x2="720" y1="51.2813" y2="419.5625"/><line style="stroke:#181818;stroke-width:0.5;stroke-dasharray:5.0,5.0;" x1="979" x2="979" y1="51.2813" y2="419.5625"/><rect fill="#E3E3E3" height="45.2813" rx="2.5" ry="2.5" style="stroke:#181818;stroke-width:0.5;" width="104" x="209" y="5"/><text fill="#000000" font-family="sans-serif" font-size="14" font-style="italic" lengthAdjust="spacing" textLength="86" x="218" y="24.6738">&#171;component&#187;</text><text fill="#000000" font-family="sans-serif" font-size="14" lengthAdjust="spacing" textLength="90" x="216" y="40.3145">WebAplication</text><rect fill="#E3E3E3" height="45.2813" rx="2.5" ry="2.5" style="stroke:#181818;stroke-width:0.5;" width="104" x="209" y="418.5625"/><text fill="#000000" font-family="sans-serif" font-size="14" font-style="italic" lengthAdjust="spacing" textLength="86" x="218" y="438.2363">&#171;component&#187;</text><text fill="#000000" font-family="sans-serif" font-size="14" lengthAdjust="spacing" textLength="90" x="216" y="453.877">WebAplication</text><rect fill="#E3E3E3" height="45.2813" rx="2.5" ry="2.5" style="stroke:#181818;stroke-width:0.5;" width="100" x="433" y="5"/><text fill="#000000" font-family="sans-serif" font-size="14" font-style="italic" lengthAdjust="spacing" textLength="86" x="440" y="24.6738">&#171;component&#187;</text><text fill="#000000" font-family="sans-serif" font-size="14" lengthAdjust="spacing" textLength="73" x="446.5" y="40.3145">HTML+CSS</text><rect fill="#E3E3E3" height="45.2813" rx="2.5" ry="2.5" style="stroke:#181818;stroke-width:0.5;" width="100" x="433" y="418.5625"/><text fill="#000000" font-family="sans-serif" font-size="14" font-style="italic" lengthAdjust="spacing" textLength="86" x="440" y="438.2363">&#171;component&#187;</text><text fill="#000000" font-family="sans-serif" font-size="14" lengthAdjust="spacing" textLength="73" x="446.5" y="453.877">HTML+CSS</text><rect fill="#E3E3E3" height="45.2813" rx="2.5" ry="2.5" style="stroke:#181818;stroke-width:0.5;" width="100" x="670" y="5"/><text fill="#000000" font-family="sans-serif" font-size="14" font-style="italic" lengthAdjust="spacing" textLength="86" x="677" y="24.6738">&#171;component&#187;</text><text fill="#000000" font-family="sans-serif" font-size="14" lengthAdjust="spacing" textLength="70" x="685" y="40.3145">component</text><rect fill="#E3E3E3" height="45.2813" rx="2.5" ry="2.5" style="stroke:#181818;stroke-width:0.5;" width="100" x="670" y="418.5625"/><text fill="#000000" font-family="sans-serif" font-size="14" font-style="italic" lengthAdjust="spacing" textLength="86" x="677" y="438.2363">&#171;component&#187;</text><text fill="#000000" font-family="sans-serif" font-size="14" lengthAdjust="spacing" textLength="70" x="685" y="453.877">component</text><rect fill="#E3E3E3" height="45.2813" rx="2.5" ry="2.5" style="stroke:#181818;stroke-width:0.5;" width="100" x="929" y="5"/><text fill="#000000" font-family="sans-serif" font-size="14" font-style="italic" lengthAdjust="spacing" textLength="86" x="936" y="24.6738">&#171;component&#187;</text><text fill="#000000" font-family="sans-serif" font-size="14" lengthAdjust="spacing" textLength="47" x="955.5" y="40.3145">Service</text><rect fill="#E3E3E3" height="45.2813" rx="2.5" ry="2.5" style="stroke:#181818;stroke-width:0.5;" width="100" x="929" y="418.5625"/><text fill="#000000" font-family="sans-serif" font-size="14" font-style="italic" lengthAdjust="spacing" textLength="86" x="936" y="438.2363">&#171;component&#187;</text><text fill="#000000" font-family="sans-serif" font-size="14" lengthAdjust="spacing" textLength="47" x="955.5" y="453.877">Service</text><rect fill="#FFFFFF" height="340.2813" style="stroke:#181818;stroke-width:1.0;" width="10" x="256" y="61.2813"/><rect fill="#FFFFFF" height="262.7109" style="stroke:#181818;stroke-width:1.0;" width="10" x="478" y="110.3281"/><rect fill="#FFFFFF" height="205.6641" style="stroke:#181818;stroke-width:1.0;" width="10" x="715" y="138.8516"/><rect fill="#FFFFFF" height="148.6172" style="stroke:#181818;stroke-width:1.0;" width="10" x="974" y="167.375"/><polygon fill="#181818" points="244,77.8047,254,81.8047,244,85.8047,248,81.8047" style="stroke:#181818;stroke-width:1.0;"/><line style="stroke:#181818;stroke-width:1.0;" x1="0" x2="250" y1="81.8047" y2="81.8047"/><text fill="#000000" font-family="sans-serif" font-size="13" font-weight="bold" lengthAdjust="spacing" textLength="7" x="7" y="77.0498">1</text><text fill="#000000" font-family="sans-serif" font-size="13" lengthAdjust="spacing" textLength="74" x="18" y="77.0498">access page</text><polygon fill="#181818" points="466,106.3281,476,110.3281,466,114.3281,470,110.3281" style="stroke:#181818;stroke-width:1.0;"/><line style="stroke:#181818;stroke-width:1.0;" x1="266" x2="472" y1="110.3281" y2="110.3281"/><text fill="#000000" font-family="sans-serif" font-size="13" font-weight="bold" lengthAdjust="spacing" textLength="7" x="273" y="105.5732">2</text><text fill="#000000" font-family="sans-serif" font-size="13" lengthAdjust="spacing" textLength="51" x="284" y="105.5732">onClick()</text><polygon fill="#181818" points="703,134.8516,713,138.8516,703,142.8516,707,138.8516" style="stroke:#181818;stroke-width:1.0;"/><line style="stroke:#181818;stroke-width:1.0;" x1="488" x2="709" y1="138.8516" y2="138.8516"/><text fill="#000000" font-family="sans-serif" font-size="13" font-weight="bold" lengthAdjust="spacing" textLength="7" x="495" y="134.0967">3</text><text fill="#000000" font-family="sans-serif" font-size="13" lengthAdjust="spacing" textLength="197" x="506" y="134.0967">onViewedicalRecord(patientEmail)</text><polygon fill="#181818" points="962,163.375,972,167.375,962,171.375,966,167.375" style="stroke:#181818;stroke-width:1.0;"/><line style="stroke:#181818;stroke-width:1.0;" x1="725" x2="968" y1="167.375" y2="167.375"/><text fill="#000000" font-family="sans-serif" font-size="13" font-weight="bold" lengthAdjust="spacing" textLength="7" x="732" y="162.6201">4</text><text fill="#000000" font-family="sans-serif" font-size="13" lengthAdjust="spacing" textLength="219" x="743" y="162.6201">postViewMedicalRecord(patientEmail)</text><polygon fill="#181818" points="1177,191.8984,1187,195.8984,1177,199.8984,1181,195.8984" style="stroke:#181818;stroke-width:1.0;"/><line style="stroke:#181818;stroke-width:1.0;" x1="984" x2="1183" y1="195.8984" y2="195.8984"/><text fill="#000000" font-family="sans-serif" font-size="13" font-weight="bold" lengthAdjust="spacing" textLength="7" x="991" y="191.1436">5</text><text fill="#000000" font-family="sans-serif" font-size="13" lengthAdjust="spacing" textLength="124" x="1002" y="191.1436">Patient Post Request</text><polygon fill="#181818" points="995,223.4219,985,227.4219,995,231.4219,991,227.4219" style="stroke:#181818;stroke-width:1.0;"/><line style="stroke:#181818;stroke-width:1.0;stroke-dasharray:2.0,2.0;" x1="989" x2="1188" y1="227.4219" y2="227.4219"/><text fill="#000000" font-family="sans-serif" font-size="13" font-weight="bold" lengthAdjust="spacing" textLength="7" x="1001" y="222.667">6</text><text fill="#000000" font-family="sans-serif" font-size="13" lengthAdjust="spacing" textLength="121" x="1012" y="222.667">Success and Patient</text><path d="M597,208.8984 L597,232.8984 L969,232.8984 L969,218.8984 L959,208.8984 L597,208.8984 " fill="#FAFAFA" style="stroke:#181818;stroke-width:0.5;"/><path d="M959,208.8984 L959,218.8984 L969,218.8984 L959,208.8984 " fill="#FAFAFA" style="stroke:#181818;stroke-width:0.5;"/><text fill="#000000" font-family="sans-serif" font-size="13" lengthAdjust="spacing" textLength="351" x="603" y="225.667">this a reference to GetPatientByEmail (already implemented)</text><polygon fill="#181818" points="1177,254.9453,1187,258.9453,1177,262.9453,1181,258.9453" style="stroke:#181818;stroke-width:1.0;"/><line style="stroke:#181818;stroke-width:1.0;" x1="984" x2="1183" y1="258.9453" y2="258.9453"/><text fill="#000000" font-family="sans-serif" font-size="13" font-weight="bold" lengthAdjust="spacing" textLength="7" x="991" y="254.1904">7</text><text fill="#000000" font-family="sans-serif" font-size="13" lengthAdjust="spacing" textLength="167" x="1002" y="254.1904">Medical Record Get Request</text><polygon fill="#181818" points="995,283.4688,985,287.4688,995,291.4688,991,287.4688" style="stroke:#181818;stroke-width:1.0;"/><line style="stroke:#181818;stroke-width:1.0;stroke-dasharray:2.0,2.0;" x1="989" x2="1188" y1="287.4688" y2="287.4688"/><text fill="#000000" font-family="sans-serif" font-size="13" font-weight="bold" lengthAdjust="spacing" textLength="7" x="1001" y="282.7139">8</text><text fill="#000000" font-family="sans-serif" font-size="13" lengthAdjust="spacing" textLength="170" x="1012" y="282.7139">Success and Medical Record</text><polygon fill="#181818" points="736,311.9922,726,315.9922,736,319.9922,732,315.9922" style="stroke:#181818;stroke-width:1.0;"/><line style="stroke:#181818;stroke-width:1.0;stroke-dasharray:2.0,2.0;" x1="730" x2="978" y1="315.9922" y2="315.9922"/><text fill="#000000" font-family="sans-serif" font-size="13" font-weight="bold" lengthAdjust="spacing" textLength="7" x="742" y="311.2373">9</text><text fill="#000000" font-family="sans-serif" font-size="13" lengthAdjust="spacing" textLength="170" x="753" y="311.2373">Success and Medical Record</text><polygon fill="#181818" points="499,340.5156,489,344.5156,499,348.5156,495,344.5156" style="stroke:#181818;stroke-width:1.0;"/><line style="stroke:#181818;stroke-width:1.0;stroke-dasharray:2.0,2.0;" x1="493" x2="719" y1="344.5156" y2="344.5156"/><text fill="#000000" font-family="sans-serif" font-size="13" font-weight="bold" lengthAdjust="spacing" textLength="14" x="505" y="339.7607">10</text><text fill="#000000" font-family="sans-serif" font-size="13" lengthAdjust="spacing" textLength="170" x="523" y="339.7607">Success and Medical Record</text><polygon fill="#181818" points="277,369.0391,267,373.0391,277,377.0391,273,373.0391" style="stroke:#181818;stroke-width:1.0;"/><line style="stroke:#181818;stroke-width:1.0;stroke-dasharray:2.0,2.0;" x1="271" x2="482" y1="373.0391" y2="373.0391"/><text fill="#000000" font-family="sans-serif" font-size="13" font-weight="bold" lengthAdjust="spacing" textLength="14" x="283" y="368.2842">11</text><text fill="#000000" font-family="sans-serif" font-size="13" lengthAdjust="spacing" textLength="170" x="301" y="368.2842">Success and Medical Record</text><polygon fill="#181818" points="11,397.5625,1,401.5625,11,405.5625,7,401.5625" style="stroke:#181818;stroke-width:1.0;"/><line style="stroke:#181818;stroke-width:1.0;stroke-dasharray:2.0,2.0;" x1="5" x2="260" y1="401.5625" y2="401.5625"/><text fill="#000000" font-family="sans-serif" font-size="13" font-weight="bold" lengthAdjust="spacing" textLength="14" x="17" y="396.8076">12</text><text fill="#000000" font-family="sans-serif" font-size="13" lengthAdjust="spacing" textLength="219" x="35" y="396.8076">success and view medical record view</text><!--SRC=[ZPB1Ri8m38RlUGgB4sZY1Ig4j24s3aD25B6pIKs9Q98kIK6y_Pm6M45QjHugjVv-v__j-ACoDJhKeAsnyk2i9WYk8U7lbHhb4KlAmwKYS2G3chBg0lw0XJqhKy8UAqz2O1EiQVIEd12C12LLZIR0u8jshtMb90PbpG3Gm_iS9XDfTMqDcJ2TFlABpVBpPPRdBRhOzA7tGilEbdriJkwa9BLaFbzldrWE88CwOI2s9yPJVcU0KfBtF8oI0x9h_is6Ch1cne6Emz6lQB7X5bnaX7r4PAleJ0NdhjOahIk6DK-03vjhLDMeSzviAGHhMDdwog2sFaJriayETtrKyJSaERV9O9LOM74dMDDtGpv490KVZnd9cnGEJN738s4iTtIgF8GCma5ndTU_9qT6yYMny47XIhzTMYimnCeH5XTGkgv8SuMAqVsmriur2AGaiKV7r1-U7ZL2f6wtyVQHeg2dsSJftdRNe-peuaxIFjkhy6zTl0QSPPmqlgCvyK91NuKk3IB-Ux3BLoy-Fm00]--></g></svg>