<svg xmlns="http://www.w3.org/2000/svg" xmlns:xlink="http://www.w3.org/1999/xlink" contentStyleType="text/css" height="2416px" preserveAspectRatio="none" style="width:697px;height:2416px;background:#FFFFFF;" version="1.1" viewBox="0 0 697 2416" width="697px" zoomAndPan="magnify"><defs/><g><!--entity ADM--><g id="elem_ADM"><ellipse cx="54.8413" cy="1717.5" fill="#F1F1F1" rx="8" ry="8" style="stroke:#181818;stroke-width:0.5;"/><path d="M54.8413,1725.5 L54.8413,1752.5 M41.8413,1733.5 L67.8413,1733.5 M54.8413,1752.5 L41.8413,1767.5 M54.8413,1752.5 L67.8413,1767.5 " fill="none" style="stroke:#181818;stroke-width:0.5;"/><text fill="#000000" font-family="sans-serif" font-size="14" lengthAdjust="spacing" textLength="39.6826" x="35" y="1784.1074">Admin</text></g><!--entity BOU--><g id="elem_BOU"><ellipse cx="55.0171" cy="968.5" fill="#F1F1F1" rx="8" ry="8" style="stroke:#181818;stroke-width:0.5;"/><path d="M55.0171,976.5 L55.0171,1003.5 M42.0171,984.5 L68.0171,984.5 M55.0171,1003.5 L42.0171,1018.5 M55.0171,1003.5 L68.0171,1018.5 " fill="none" style="stroke:#181818;stroke-width:0.5;"/><text fill="#000000" font-family="sans-serif" font-size="14" lengthAdjust="spacing" textLength="98.0342" x="6" y="1035.1074">Backoffice User</text></g><!--entity STF--><g id="elem_STF"><ellipse cx="54.8965" cy="780.5" fill="#F1F1F1" rx="8" ry="8" style="stroke:#181818;stroke-width:0.5;"/><path d="M54.8965,788.5 L54.8965,815.5 M41.8965,796.5 L67.8965,796.5 M54.8965,815.5 L41.8965,830.5 M54.8965,815.5 L67.8965,830.5 " fill="none" style="stroke:#181818;stroke-width:0.5;"/><text fill="#000000" font-family="sans-serif" font-size="14" lengthAdjust="spacing" textLength="28.793" x="40.5" y="847.1074">Staff</text></g><!--entity DOC--><g id="elem_DOC"><ellipse cx="55.1172" cy="626.5" fill="#F1F1F1" rx="8" ry="8" style="stroke:#181818;stroke-width:0.5;"/><path d="M55.1172,634.5 L55.1172,661.5 M42.1172,642.5 L68.1172,642.5 M55.1172,661.5 L42.1172,676.5 M55.1172,661.5 L68.1172,676.5 " fill="none" style="stroke:#181818;stroke-width:0.5;"/><text fill="#000000" font-family="sans-serif" font-size="14" lengthAdjust="spacing" textLength="41.2344" x="34.5" y="693.1074">Doctor</text></g><!--entity PAT--><g id="elem_PAT"><ellipse cx="54.793" cy="169.5" fill="#F1F1F1" rx="8" ry="8" style="stroke:#181818;stroke-width:0.5;"/><path d="M54.793,177.5 L54.793,204.5 M41.793,185.5 L67.793,185.5 M54.793,204.5 L41.793,219.5 M54.793,204.5 L67.793,219.5 " fill="none" style="stroke:#181818;stroke-width:0.5;"/><text fill="#000000" font-family="sans-serif" font-size="14" lengthAdjust="spacing" textLength="43.5859" x="33" y="236.1074">Patient</text></g><!--entity NU--><g id="elem_NU"><ellipse cx="55.1724" cy="55.5" fill="#F1F1F1" rx="8" ry="8" style="stroke:#181818;stroke-width:0.5;"/><path d="M55.1724,63.5 L55.1724,90.5 M42.1724,71.5 L68.1724,71.5 M55.1724,90.5 L42.1724,105.5 M55.1724,90.5 L68.1724,105.5 " fill="none" style="stroke:#181818;stroke-width:0.5;"/><text fill="#000000" font-family="sans-serif" font-size="14" lengthAdjust="spacing" textLength="37.3447" x="36.5" y="122.1074">Nurse</text></g><g id="elem_UC1"><ellipse cx="427.4084" cy="1129.3817" fill="#F1F1F1" rx="157.4084" ry="33.8817" style="stroke:#181818;stroke-width:0.5;"/><text fill="#000000" font-family="sans-serif" font-size="14" lengthAdjust="spacing" textLength="278.5576" x="286.1848" y="1133.1786">UC1 - I want to register new backoffice users</text></g><g id="elem_UC2"><ellipse cx="427.5545" cy="916.5109" fill="#F1F1F1" rx="125.5545" ry="27.5109" style="stroke:#181818;stroke-width:0.5;"/><text fill="#000000" font-family="sans-serif" font-size="14" lengthAdjust="spacing" textLength="214.7373" x="320.1859" y="920.3078">UC2 - I want to reset my password</text></g><g id="elem_UC3"><ellipse cx="427.4482" cy="44.5896" fill="#F1F1F1" rx="180.9482" ry="38.5896" style="stroke:#181818;stroke-width:0.5;"/><text fill="#000000" font-family="sans-serif" font-size="14" lengthAdjust="spacing" textLength="327.6123" x="261.6972" y="48.3865">UC3 - I want to register for the healthcare application</text></g><g id="elem_UC4"><ellipse cx="427.3436" cy="147.4687" fill="#F1F1F1" rx="135.3436" ry="29.4687" style="stroke:#181818;stroke-width:0.5;"/><text fill="#000000" font-family="sans-serif" font-size="14" lengthAdjust="spacing" textLength="235.7715" x="309.4579" y="151.2656">UC4 - I want to update my user profile</text></g><g id="elem_UC5"><ellipse cx="427.2564" cy="253.6513" fill="#F1F1F1" rx="193.7564" ry="41.1513" style="stroke:#181818;stroke-width:0.5;"/><text fill="#000000" font-family="sans-serif" font-size="14" lengthAdjust="spacing" textLength="357.9775" x="248.2676" y="257.4482">UC5 - I want to delete my account and all associated data</text></g><g id="elem_UC6"><ellipse cx="427.5862" cy="1019.3172" fill="#F1F1F1" rx="189.5862" ry="40.3172" style="stroke:#181818;stroke-width:0.5;"/><text fill="#000000" font-family="sans-serif" font-size="14" lengthAdjust="spacing" textLength="349.3711" x="252.9007" y="1023.1141">UC6 - I want to log in to the system using my credentials</text></g><g id="elem_UC7"><ellipse cx="427.7469" cy="384.6494" fill="#F1F1F1" rx="263.7469" ry="55.1494" style="stroke:#181818;stroke-width:0.5;"/><text fill="#000000" font-family="sans-serif" font-size="14" lengthAdjust="spacing" textLength="501.1152" x="177.1893" y="388.4463">UC7 - I want to log in to the healthcare system using my external IAM credentials</text></g><g id="elem_UC8"><ellipse cx="427.2838" cy="1231.2568" fill="#F1F1F1" rx="149.2838" ry="32.2568" style="stroke:#181818;stroke-width:0.5;"/><text fill="#000000" font-family="sans-serif" font-size="14" lengthAdjust="spacing" textLength="265.3574" x="294.6051" y="1235.0536">UC8 - I want to create a new patient profile</text></g><g id="elem_UC9"><ellipse cx="427.5715" cy="1332.5143" fill="#F1F1F1" rx="155.5715" ry="33.5143" style="stroke:#181818;stroke-width:0.5;"/><text fill="#000000" font-family="sans-serif" font-size="14" lengthAdjust="spacing" textLength="278.5918" x="288.2756" y="1336.3112">UC9 - I want to edit an existing patient profile</text></g><g id="elem_UC10"><ellipse cx="427.6416" cy="1431.6283" fill="#F1F1F1" rx="138.6416" ry="30.1283" style="stroke:#181818;stroke-width:0.5;"/><text fill="#000000" font-family="sans-serif" font-size="14" lengthAdjust="spacing" textLength="242.8057" x="306.2387" y="1435.4252">UC10 - I want to delete a patient profile</text></g><g id="elem_UC11"><ellipse cx="427.5403" cy="1541.5081" fill="#F1F1F1" rx="213.0403" ry="45.0081" style="stroke:#181818;stroke-width:0.5;"/><text fill="#000000" font-family="sans-serif" font-size="14" lengthAdjust="spacing" textLength="397.6328" x="228.7239" y="1545.3049">UC11 - I want to list/search patient profiles by different attributes</text></g><g id="elem_UC12"><ellipse cx="427.5953" cy="1653.5191" fill="#F1F1F1" rx="145.5953" ry="31.5191" style="stroke:#181818;stroke-width:0.5;"/><text fill="#000000" font-family="sans-serif" font-size="14" lengthAdjust="spacing" textLength="257.5645" x="298.813" y="1657.3159">UC12 - I want to create a new staff profile</text></g><g id="elem_UC13"><ellipse cx="427.6207" cy="1748.5241" fill="#F1F1F1" rx="130.6207" ry="28.5241" style="stroke:#181818;stroke-width:0.5;"/><text fill="#000000" font-family="sans-serif" font-size="14" lengthAdjust="spacing" textLength="221.7646" x="314.7936" y="1752.321">UC13 - I want to edit a staff&#8217;s profile</text></g><g id="elem_UC14"><ellipse cx="427.394" cy="1843.5788" fill="#F1F1F1" rx="143.394" ry="31.0788" style="stroke:#181818;stroke-width:0.5;"/><text fill="#000000" font-family="sans-serif" font-size="14" lengthAdjust="spacing" textLength="252.9023" x="300.9428" y="1847.3757">UC14 - I want to deactivate a staff profile</text></g><g id="elem_UC15"><ellipse cx="427.3141" cy="1940.5628" fill="#F1F1F1" rx="140.8141" ry="30.5628" style="stroke:#181818;stroke-width:0.5;"/><text fill="#000000" font-family="sans-serif" font-size="14" lengthAdjust="spacing" textLength="247.4268" x="303.6007" y="1944.3597">UC15 - I want to list/search staff profiles</text></g><g id="elem_UC16"><ellipse cx="427.266" cy="504.2532" fill="#F1F1F1" rx="134.266" ry="29.2532" style="stroke:#181818;stroke-width:0.5;"/><text fill="#000000" font-family="sans-serif" font-size="14" lengthAdjust="spacing" textLength="233.4678" x="310.5321" y="508.0501">UC16 - I want to request an operation</text></g><g id="elem_UC17"><ellipse cx="427.5023" cy="604.3005" fill="#F1F1F1" rx="164.5023" ry="35.3005" style="stroke:#181818;stroke-width:0.5;"/><text fill="#000000" font-family="sans-serif" font-size="14" lengthAdjust="spacing" textLength="297.2949" x="278.8548" y="608.0973">UC17 - I want to update an operation requisition</text></g><g id="elem_UC18"><ellipse cx="427.3524" cy="710.6705" fill="#F1F1F1" rx="166.3524" ry="35.6705" style="stroke:#181818;stroke-width:0.5;"/><text fill="#000000" font-family="sans-serif" font-size="14" lengthAdjust="spacing" textLength="301.1572" x="276.7738" y="714.4674">UC18 - I want to remove an operation requisition</text></g><g id="elem_UC19"><ellipse cx="427.711" cy="817.5422" fill="#F1F1F1" rx="168.211" ry="36.0422" style="stroke:#181818;stroke-width:0.5;"/><text fill="#000000" font-family="sans-serif" font-size="14" lengthAdjust="spacing" textLength="305.0332" x="275.1944" y="821.3391">UC19 - I want to list/search operation requisitions</text></g><g id="elem_UC20"><ellipse cx="427.3171" cy="2039.6634" fill="#F1F1F1" rx="156.3171" ry="33.6634" style="stroke:#181818;stroke-width:0.5;"/><text fill="#000000" font-family="sans-serif" font-size="14" lengthAdjust="spacing" textLength="280.1572" x="287.2384" y="2043.4603">UC20 - I want to add new types of operations</text></g><g id="elem_UC21"><ellipse cx="427.5715" cy="2141.5143" fill="#F1F1F1" rx="155.5715" ry="33.5143" style="stroke:#181818;stroke-width:0.5;"/><text fill="#000000" font-family="sans-serif" font-size="14" lengthAdjust="spacing" textLength="278.5918" x="288.2756" y="2145.3112">UC21 - I want to edit existing operation types</text></g><g id="elem_UC22"><ellipse cx="427.3339" cy="2260.5668" fill="#F1F1F1" rx="240.8339" ry="50.5668" style="stroke:#181818;stroke-width:0.5;"/><text fill="#000000" font-family="sans-serif" font-size="14" lengthAdjust="spacing" textLength="454.4668" x="200.1005" y="2264.3637">UC22 - I want to remove obsolete or no longer performed operation types</text></g><g id="elem_UC23"><ellipse cx="427.3859" cy="2378.4772" fill="#F1F1F1" rx="150.3859" ry="32.4772" style="stroke:#181818;stroke-width:0.5;"/><text fill="#000000" font-family="sans-serif" font-size="14" lengthAdjust="spacing" textLength="267.6816" x="293.5451" y="2382.2741">UC23 - I want to list/search operation types</text></g><!--link ADM to UC1--><g id="link_ADM_UC1"><path d="M57.96,1708.64 C64.51,1592.26 89.61,1256.44 164,1181.5 C192.07,1153.23 224.8923,1139.2153 263.9823,1131.5453 " fill="none" id="ADM-to-UC1" style="stroke:#181818;stroke-width:1.0;"/><polygon fill="#181818" points="269.87,1130.39,260.2682,1128.1977,264.9636,1131.3527,261.8086,1136.048,269.87,1130.39" style="stroke:#181818;stroke-width:1.0;"/></g><!--link BOU to UC2--><g id="link_BOU_UC2"><path d="M104.12,980.62 C122.62,973.87 144.09,966.67 164,961.5 C214.57,948.37 265.7105,938.977 313.6905,931.557 " fill="none" id="BOU-to-UC2" style="stroke:#181818;stroke-width:1.0;"/><polygon fill="#181818" points="319.62,930.64,310.1144,928.0625,314.6787,931.4042,311.3371,935.9685,319.62,930.64" style="stroke:#181818;stroke-width:1.0;"/></g><!--link PAT to UC3--><g id="link_PAT_UC3"><path d="M77.14,174.16 C97.08,151.13 129.07,118.62 164,100.5 C196.57,83.6 228.1002,73.1341 264.2302,64.8941 " fill="none" id="PAT-to-UC3" style="stroke:#181818;stroke-width:1.0;"/><polygon fill="#181818" points="270.08,63.56,260.4159,61.6613,265.2052,64.6718,262.1947,69.4611,270.08,63.56" style="stroke:#181818;stroke-width:1.0;"/></g><!--link PAT to UC4--><g id="link_PAT_UC4"><path d="M77.25,197.46 C122.23,191.03 223.8604,176.4895 307.8304,164.4795 " fill="none" id="PAT-to-UC4" style="stroke:#181818;stroke-width:1.0;"/><polygon fill="#181818" points="313.77,163.63,304.2943,160.9446,308.8204,164.3379,305.427,168.864,313.77,163.63" style="stroke:#181818;stroke-width:1.0;"/></g><!--link PAT to UC5--><g id="link_PAT_UC5"><path d="M77.25,203.54 C114.08,208.81 186.9304,219.2308 260.3704,229.7308 " fill="none" id="PAT-to-UC5" style="stroke:#181818;stroke-width:1.0;"/><polygon fill="#181818" points="266.31,230.58,257.9667,225.3465,261.3603,229.8723,256.8345,233.2659,266.31,230.58" style="stroke:#181818;stroke-width:1.0;"/></g><!--link BOU to UC6--><g id="link_BOU_UC6"><path d="M104.06,1002.09 C140.08,1004.04 185.8688,1006.5057 237.4188,1009.2957 " fill="none" id="BOU-to-UC6" style="stroke:#181818;stroke-width:1.0;"/><polygon fill="#181818" points="243.41,1009.62,234.6393,1005.1395,238.4173,1009.3498,234.207,1013.1278,243.41,1009.62" style="stroke:#181818;stroke-width:1.0;"/></g><!--link PAT to UC7--><g id="link_PAT_UC7"><path d="M77.2,229.76 C96.95,254.97 128.61,290.52 164,311.5 C187.29,325.31 207.6351,334.6228 233.9651,343.8128 " fill="none" id="PAT-to-UC7" style="stroke:#181818;stroke-width:1.0;"/><polygon fill="#181818" points="239.63,345.79,232.4509,339.0476,234.9093,344.1423,229.8146,346.6008,239.63,345.79" style="stroke:#181818;stroke-width:1.0;"/></g><!--link ADM to UC8--><g id="link_ADM_UC8"><path d="M59.68,1708.81 C69.93,1607.1 102.22,1340.91 164,1281.5 C194.43,1252.24 230.4712,1238.4436 271.9312,1231.5536 " fill="none" id="ADM-to-UC8" style="stroke:#181818;stroke-width:1.0;"/><polygon fill="#181818" points="277.85,1230.57,268.316,1228.0995,272.9176,1231.3897,269.6275,1235.9913,277.85,1230.57" style="stroke:#181818;stroke-width:1.0;"/></g><!--link ADM to UC9--><g id="link_ADM_UC9"><path d="M55.32,1708.78 C56.33,1633.56 69.96,1470.19 164,1384.5 C193.62,1357.51 227.1903,1343.955 266.4903,1336.315 " fill="none" id="ADM-to-UC9" style="stroke:#181818;stroke-width:1.0;"/><polygon fill="#181818" points="272.38,1335.17,262.7821,1332.961,267.4719,1336.1241,264.3087,1340.814,272.38,1335.17" style="stroke:#181818;stroke-width:1.0;"/></g><!--link ADM to UC10--><g id="link_ADM_UC10"><path d="M60.07,1708.59 C68.4,1648.96 93.07,1537.44 164,1479.5 C198.8,1451.07 238.9779,1438.1218 282.8379,1431.9818 " fill="none" id="ADM-to-UC10" style="stroke:#181818;stroke-width:1.0;"/><polygon fill="#181818" points="288.78,1431.15,279.3124,1428.4364,283.8283,1431.8432,280.4215,1436.3591,288.78,1431.15" style="stroke:#181818;stroke-width:1.0;"/></g><!--link ADM to UC11--><g id="link_ADM_UC11"><path d="M75.16,1709.75 C93.47,1676.76 124.17,1630.67 164,1604.5 C189.65,1587.64 213.6154,1577.0118 243.6354,1567.9618 " fill="none" id="ADM-to-UC11" style="stroke:#181818;stroke-width:1.0;"/><polygon fill="#181818" points="249.38,1566.23,239.6085,1564.998,244.5928,1567.6732,241.9176,1572.6575,249.38,1566.23" style="stroke:#181818;stroke-width:1.0;"/></g><!--link ADM to UC12--><g id="link_ADM_UC12"><path d="M75.04,1738.88 C96.25,1728.53 131.81,1712.23 164,1702.5 C209.26,1688.82 254.2177,1679.2823 299.0377,1671.5323 " fill="none" id="ADM-to-UC12" style="stroke:#181818;stroke-width:1.0;"/><polygon fill="#181818" points="304.95,1670.51,295.4001,1668.102,300.0231,1671.3619,296.7631,1675.985,304.95,1670.51" style="stroke:#181818;stroke-width:1.0;"/></g><!--link ADM to UC13--><g id="link_ADM_UC13"><path d="M75.14,1748.5 C115.96,1748.5 208.59,1748.5 290.98,1748.5 " fill="none" id="ADM-to-UC13" style="stroke:#181818;stroke-width:1.0;"/><polygon fill="#181818" points="296.98,1748.5,287.98,1744.5,291.98,1748.5,287.98,1752.5,296.98,1748.5" style="stroke:#181818;stroke-width:1.0;"/></g><!--link ADM to UC14--><g id="link_ADM_UC14"><path d="M75.04,1758.12 C96.25,1768.47 131.81,1784.77 164,1794.5 C209.82,1808.35 255.4669,1817.9824 300.6769,1825.7624 " fill="none" id="ADM-to-UC14" style="stroke:#181818;stroke-width:1.0;"/><polygon fill="#181818" points="306.59,1826.78,298.3987,1821.3116,301.6624,1825.932,297.042,1829.1957,306.59,1826.78" style="stroke:#181818;stroke-width:1.0;"/></g><!--link ADM to UC15--><g id="link_ADM_UC15"><path d="M74.99,1788.11 C93.11,1821.43 123.61,1867.51 164,1892.5 C201.13,1915.47 240.5732,1927.1059 283.0832,1933.8059 " fill="none" id="ADM-to-UC15" style="stroke:#181818;stroke-width:1.0;"/><polygon fill="#181818" points="289.01,1934.74,280.7425,1929.3876,284.071,1933.9616,279.497,1937.29,289.01,1934.74" style="stroke:#181818;stroke-width:1.0;"/></g><!--link DOC to UC16--><g id="link_DOC_UC16"><path d="M75.52,630.69 C95.03,606 127.35,570.42 164,551.5 C204.73,530.47 247.2752,519.5618 291.4252,513.0018 " fill="none" id="DOC-to-UC16" style="stroke:#181818;stroke-width:1.0;"/><polygon fill="#181818" points="297.36,512.12,287.8698,509.4862,292.4143,512.8549,289.0456,517.3993,297.36,512.12" style="stroke:#181818;stroke-width:1.0;"/></g><!--link DOC to UC17--><g id="link_DOC_UC17"><path d="M75.66,654.69 C115.6,648.97 203.3605,636.4198 283.8805,624.8998 " fill="none" id="DOC-to-UC17" style="stroke:#181818;stroke-width:1.0;"/><polygon fill="#181818" points="289.82,624.05,280.3442,621.365,284.8704,624.7581,281.4772,629.2843,289.82,624.05" style="stroke:#181818;stroke-width:1.0;"/></g><!--link DOC to UC18--><g id="link_DOC_UC18"><path d="M75.66,660.31 C115.45,666 202.6505,678.4803 282.9705,689.9703 " fill="none" id="DOC-to-UC18" style="stroke:#181818;stroke-width:1.0;"/><polygon fill="#181818" points="288.91,690.82,280.5671,685.5858,283.9604,690.1119,279.4343,693.5052,288.91,690.82" style="stroke:#181818;stroke-width:1.0;"/></g><!--link DOC to UC19--><g id="link_DOC_UC19"><path d="M75.63,684.1 C95.22,708.63 127.6,744.11 164,763.5 C198.19,781.71 232.0288,792.5534 270.0588,800.5634 " fill="none" id="DOC-to-UC19" style="stroke:#181818;stroke-width:1.0;"/><polygon fill="#181818" points="275.93,801.8,267.9476,796.031,271.0373,800.7695,266.2988,803.8592,275.93,801.8" style="stroke:#181818;stroke-width:1.0;"/></g><!--link ADM to UC20--><g id="link_ADM_UC20"><path d="M62.3,1788.16 C73.09,1842.24 100.43,1938.14 164,1988.5 C194.84,2012.93 228.1426,2025.6132 266.7726,2033.2032 " fill="none" id="ADM-to-UC20" style="stroke:#181818;stroke-width:1.0;"/><polygon fill="#181818" points="272.66,2034.36,264.6,2028.6999,267.7538,2033.396,263.0577,2036.5498,272.66,2034.36" style="stroke:#181818;stroke-width:1.0;"/></g><!--link ADM to UC21--><g id="link_ADM_UC21"><path d="M56.19,1788.14 C58.81,1859.92 75.25,2011.33 164,2090.5 C193.79,2117.08 227.2972,2130.4208 266.4872,2137.9308 " fill="none" id="ADM-to-UC21" style="stroke:#181818;stroke-width:1.0;"/><polygon fill="#181818" points="272.38,2139.06,264.2937,2133.4376,267.4694,2138.119,262.788,2141.2947,272.38,2139.06" style="stroke:#181818;stroke-width:1.0;"/></g><!--link ADM to UC22--><g id="link_ADM_UC22"><path d="M60.44,1788.16 C72.18,1885.92 107.07,2134.72 164,2192.5 C181.18,2209.94 196.7138,2220.6934 219.3238,2230.5934 " fill="none" id="ADM-to-UC22" style="stroke:#181818;stroke-width:1.0;"/><polygon fill="#181818" points="224.82,2233,218.1801,2225.726,220.2398,2230.9945,214.9713,2233.0543,224.82,2233" style="stroke:#181818;stroke-width:1.0;"/></g><!--link ADM to UC23--><g id="link_ADM_UC23"><path d="M57.73,1788.03 C63.71,1905.93 87.57,2251.75 164,2328.5 C193.79,2358.41 229.6504,2372.401 271.1304,2379.261 " fill="none" id="ADM-to-UC23" style="stroke:#181818;stroke-width:1.0;"/><polygon fill="#181818" points="277.05,2380.24,268.8233,2374.8251,272.117,2379.4242,267.518,2382.7179,277.05,2380.24" style="stroke:#181818;stroke-width:1.0;"/></g><!--SRC=[ZLLBRjim4Dth54GsMGMDvF-cW1EtG1Rv0AaFC9P64X59L4awZdUzHg_NatH8M_PGbTjkR7B4zsRu-8QyDc-oQK53BMhLgBJKgaPXzHQZyvSMqZSeyDNkAnGQKmjDKM5qVLvXIiZKJZQ5oA4o64NHjPMMLgyDYdkWdvM4mgtyyW5rI-2emjmAguIMHMb59XslL4qKGMgL5bVBh9RDbG0Zbgl7BdX7bQWybwbdrlxptVEw-_ng8SzzyFNRrowuKkxVHrVFzrtq1Qp4nlhmo_9R5txQQeC- -BIcNMmDfgxwg_LzB6x4WzX1SwWQ2saiQj7WJcpELH506-492CBnIGzlq8fwJzeQirCwEq8I3XaDfyofK5kYA14gMwQWKK3RLZ859s2NVCIPnW7Jjit0eilkoXMjLhciy8WRSzmam6LOuG47QQgs58Gc4r1LX3GgbKIQ2QA68zM4Kqq3gaeLGZPkv7PYzhIncgfn3YBwL6D6XoF9IqUgAQUQ_OMAYT9dnGzIhu5AF2mV1rBCU8fva88MEy70dtPxS4vFjZb7Bm8qPj8fHVdf_5mjmmoBm6stGyh31MXy6s13grQKzPD1q6dPXnknsLFhvJbg5mLhjTniBNQIn863u-IoACPrNh-gmCpnQ42K0-xNZv-cmvvw9_1lFEx9GUqgtm_f1rC7Beud5mK9mATj1yQDfxqs_Bv5umzKjQXzptMumANnRAZfECnpIICvHU32UDvBNQltVrC4LemN5_S-I7BI8B1Z4jeHiioVkjstv26LdwawU18uCed_FFjJDvpBy7GTGNXv9aD2g8rHlY_eGcpSHT0KxZf3JJTaJLVH1UR0bideF_G9u2Dw5o9wayJDpMT_oTC3T1md4Jqbn_68ZSTiF67hfom-OvnpDbxmNBTy4lD9mYSZFXdpoIIYDx2RJFbanYTpFk4L9Bo2X5UGy0gyIBy1]--></g></svg>